999
dxfrw 0.6.3
  0
SECTION
  2
HEADER
  9
$ACADVER
  1
AC1021
  9
$DWGCODEPAGE
  3
ANSI_1252
  9
$INSBASE
 10
0
 20
0
 30
0
  9
$EXTMIN
 10
-11.8
 20
-26.51482305836667
 30
0
  9
$EXTMAX
 10
228.4
 20
135.625
 30
0
  9
$LIMMIN
 10
0
 20
0
  9
$LIMMAX
 10
420
 20
297
  9
$ORTHOMODE
 70
    0
  9
$REGENMODE
 70
    1
  9
$FILLMODE
 70
    1
  9
$QTEXTMODE
 70
    0
  9
$MIRRTEXT
 70
    1
  9
$LTSCALE
 40
1
  9
$ATTMODE
 70
    1
  9
$TEXTSIZE
 40
3.5
  9
$TRACEWID
 40
1
  9
$TEXTSTYLE
  7
Standard
  9
$CLAYER
  8
0
  9
$CELTYPE
  6
ByLayer
  9
$CECOLOR
 62
  256
  9
$CELTSCALE
 40
1
  9
$DISPSILH
 70
    0
  9
$DIMSCALE
 40
1
  9
$DIMASZ
 40
3.556
  9
$DIMEXO
 40
1
  9
$DIMDLI
 40
3.75
  9
$DIMRND
 40
0
  9
$DIMDLE
 40
0
  9
$DIMEXE
 40
1
  9
$DIMTP
 40
0
  9
$DIMTM
 40
0
  9
$DIMTXT
 40
3.5
  9
$DIMCEN
 40
2.5
  9
$DIMTSZ
 40
0
  9
$DIMTOL
 70
    0
  9
$DIMLIM
 70
    0
  9
$DIMTIH
 70
    1
  9
$DIMTOH
 70
    1
  9
$DIMSE1
 70
    0
  9
$DIMSE2
 70
    0
  9
$DIMTAD
 70
    1
  9
$DIMZIN
 70
    0
  9
$DIMBLK
  1

  9
$DIMASO
 70
    1
  9
$DIMSHO
 70
    1
  9
$DIMPOST
  1

  9
$DIMAPOST
  1

  9
$DIMALT
 70
    0
  9
$DIMALTD
 70
    3
  9
$DIMALTF
 40
0.0393700787
  9
$DIMLFAC
 40
1
  9
$DIMTOFL
 70
    1
  9
$DIMTVP
 40
0
  9
$DIMTIX
 70
    0
  9
$DIMSOXD
 70
    0
  9
$DIMSAH
 70
    0
  9
$DIMBLK1
  1

  9
$DIMBLK2
  1

  9
$DIMSTYLE
  2
ISO-25
  9
$DIMCLRD
 70
    0
  9
$DIMCLRE
 70
    0
  9
$DIMCLRT
 70
    0
  9
$DIMTFAC
 40
1
  9
$DIMGAP
 40
1.524
  9
$DIMJUST
 70
    0
  9
$DIMSD1
 70
    0
  9
$DIMSD2
 70
    0
  9
$DIMTOLJ
 70
    0
  9
$DIMTZIN
 70
    0
  9
$DIMALTZ
 70
    0
  9
$DIMALTTZ
 70
    0
  9
$DIMUPT
 70
    0
  9
$DIMDEC
 70
    2
  9
$DIMTDEC
 70
    5
  9
$DIMALTU
 70
    2
  9
$DIMALTTD
 70
    3
  9
$DIMTXSTY
  7
Standard
  9
$DIMAUNIT
 70
    0
  9
$DIMADEC
 70
    0
  9
$DIMALTRND
 40
0
  9
$DIMAZIN
 70
    0
  9
$DIMDSEP
 70
   44
  9
$DIMATFIT
 70
    3
  9
$DIMFRAC
 70
    0
  9
$DIMLDRBLK
  1

  9
$DIMLUNIT
 70
    2
  9
$DIMLWD
 70
   -2
  9
$DIMLWE
 70
   -2
  9
$DIMTMOVE
 70
    0
  9
$DIMFXL
 40
1
  9
$DIMFXLON
 70
    0
  9
$DIMJOGANG
 40
0.7854
  9
$DIMTFILL
 70
    0
  9
$DIMTFILLCLR
 70
    0
  9
$DIMARCSYM
 70
    0
  9
$DIMLTYPE
  6

  9
$DIMLTEX1
  6

  9
$DIMLTEX2
  6

  9
$LUNITS
 70
    2
  9
$LUPREC
 70
    2
  9
$SKETCHINC
 40
1
  9
$FILLETRAD
 40
10
  9
$AUNITS
 70
    0
  9
$AUPREC
 70
    2
  9
$MENU
  1
.
  9
$ELEVATION
 40
0
  9
$PELEVATION
 40
0
  9
$THICKNESS
 40
0
  9
$LIMCHECK
 70
    0
  9
$CHAMFERA
 40
0
  9
$CHAMFERB
 40
0
  9
$CHAMFERC
 40
0
  9
$CHAMFERD
 40
0
  9
$SKPOLY
 70
    0
  9
$USRTIMER
 70
    1
  9
$ANGBASE
 50
0
  9
$ANGDIR
 70
    0
  9
$PDMODE
 70
    0
  9
$PDSIZE
 40
-1
  9
$PLINEWID
 40
0
  9
$SPLFRAME
 70
    0
  9
$SPLINETYPE
 70
    6
  9
$SPLINESEGS
 70
    8
  9
$HANDSEED
  5
20000
  9
$SURFTAB1
 70
    6
  9
$SURFTAB2
 70
    6
  9
$SURFTYPE
 70
    6
  9
$SURFU
 70
    6
  9
$SURFV
 70
    6
  9
$UCSBASE
  2

  9
$UCSNAME
  2

  9
$UCSORG
 10
0
 20
0
 30
0
  9
$UCSXDIR
 10
1
 20
0
 30
0
  9
$UCSYDIR
 10
0
 20
1
 30
0
  9
$UCSORTHOREF
  2

  9
$UCSORTHOVIEW
 70
    0
  9
$UCSORGTOP
 10
0
 20
0
 30
0
  9
$UCSORGBOTTOM
 10
0
 20
0
 30
0
  9
$UCSORGLEFT
 10
0
 20
0
 30
0
  9
$UCSORGRIGHT
 10
0
 20
0
 30
0
  9
$UCSORGFRONT
 10
0
 20
0
 30
0
  9
$UCSORGBACK
 10
0
 20
0
 30
0
  9
$PUCSBASE
  2

  9
$PUCSNAME
  2

  9
$PUCSORG
 10
0
 20
0
 30
0
  9
$PUCSXDIR
 10
1
 20
0
 30
0
  9
$PUCSYDIR
 10
0
 20
1
 30
0
  9
$PUCSORTHOREF
  2

  9
$PUCSORTHOVIEW
 70
    0
  9
$PUCSORGTOP
 10
0
 20
0
 30
0
  9
$PUCSORGBOTTOM
 10
0
 20
0
 30
0
  9
$PUCSORGLEFT
 10
0
 20
0
 30
0
  9
$PUCSORGRIGHT
 10
0
 20
0
 30
0
  9
$PUCSORGFRONT
 10
0
 20
0
 30
0
  9
$PUCSORGBACK
 10
0
 20
0
 30
0
  9
$USERI1
 70
    0
  9
$USERI2
 70
    0
  9
$USERI3
 70
    0
  9
$USERI4
 70
    0
  9
$USERI5
 70
    0
  9
$USERR1
 40
0
  9
$USERR2
 40
0
  9
$USERR3
 40
0
  9
$USERR4
 40
0
  9
$USERR5
 40
0
  9
$WORLDVIEW
 70
    1
  9
$SHADEDGE
 70
    3
  9
$SHADEDIF
 70
   70
  9
$TILEMODE
 70
    1
  9
$MAXACTVP
 70
   64
  9
$PINSBASE
 10
0
 20
0
 30
0
  9
$PLIMCHECK
 70
    0
  9
$PEXTMIN
 10
1e+20
 20
1e+20
 30
1e+20
  9
$PEXTMAX
 10
-1e+20
 20
-1e+20
 30
-1e+20
  9
$GRIDMODE
 70
    0
  9
$SNAPSTYLE
 70
    0
  9
$PLIMMIN
 10
0
 20
0
  9
$PLIMMAX
 10
420
 20
297
  9
$UNITMODE
 70
    0
  9
$VISRETAIN
 70
    1
  9
$PLINEGEN
 70
    0
  9
$PSLTSCALE
 70
    1
  9
$TREEDEPTH
 70
 3020
  9
$CMLSTYLE
  2
Standard
  9
$CMLJUST
 70
    0
  9
$CMLSCALE
 40
20
  9
$PROXYGRAPHICS
 70
    1
  9
$MEASUREMENT
 70
    1
  9
$CELWEIGHT
370
   -1
  9
$ENDCAPS
280
    0
  9
$JOINSTYLE
280
    0
  9
$LWDISPLAY
290
    1
  9
$INSUNITS
 70
    4
  9
$HYPERLINKBASE
  1

  9
$STYLESHEET
  1

  9
$XEDIT
290
    1
  9
$CEPSNTYPE
380
    0
  9
$PSTYLEMODE
290
    1
  9
$EXTNAMES
290
    1
  9
$PSVPSCALE
 40
0
  9
$OLESTARTUP
290
    0
  9
$SORTENTS
280
  127
  9
$INDEXCTL
280
    0
  9
$HIDETEXT
280
    1
  9
$XCLIPFRAME
290
    0
  9
$HALOGAP
280
    0
  9
$OBSCOLOR
 70
  257
  9
$OBSLTYPE
280
    0
  9
$INTERSECTIONDISPLAY
280
    0
  9
$INTERSECTIONCOLOR
 70
  257
  9
$DIMASSOC
280
    1
  9
$PROJECTNAME
  1

  9
$CAMERADISPLAY
290
    0
  9
$LENSLENGTH
 40
50
  9
$CAMERAHEIGHT
 40
0
  9
$STEPSPERSEC
 40
2
  9
$STEPSIZE
 40
50
  9
$3DDWFPREC
 40
2
  9
$PSOLWIDTH
 40
5
  9
$PSOLHEIGHT
 40
80
  9
$LOFTANG1
 40
1.570796326794897
  9
$LOFTANG2
 40
1.570796326794897
  9
$LOFTMAG1
 40
0
  9
$LOFTMAG2
 40
0
  9
$LOFTPARAM
 70
    7
  9
$LOFTNORMALS
280
    1
  9
$LATITUDE
 40
1
  9
$LONGITUDE
 40
1
  9
$NORTHDIRECTION
 40
0
  9
$TIMEZONE
 70
-8000
  9
$LIGHTGLYPHDISPLAY
280
    1
  9
$TILEMODELIGHTSYNCH
280
    1
  9
$SOLIDHIST
280
    1
  9
$SHOWHIST
280
    1
  9
$DWFFRAME
280
    2
  9
$DGNFRAME
280
    0
  9
$REALWORLDSCALE
290
    1
  9
$INTERFERECOLOR
 62
    1
  9
$CSHADOW
280
    0
  9
$SHADOWPLANELOCATION
 40
0
  0
ENDSEC
  0
SECTION
  2
CLASSES
  0
ENDSEC
  0
SECTION
  2
TABLES
  0
TABLE
  2
VPORT
  5
8
330
0
100
AcDbSymbolTable
 70
    1
  0
VPORT
  5
31
330
2
100
AcDbSymbolTableRecord
100
AcDbViewportTableRecord
  2
*ACTIVE
 70
    0
 10
0
 20
0
 11
1
 21
1
 12
108.331817006054
 22
61.94527504127684
 13
0
 23
0
 14
10
 24
10
 15
10
 25
10
 16
0
 26
0
 36
1
 17
0
 27
0
 37
0
 40
150.3735
 41
1.875068794716566
 42
50
 43
0
 44
0
 50
0
 51
0
 71
    0
 72
  100
 73
    1
 74
    3
 75
    0
 76
    0
 77
    0
 78
    0
281
    0
 65
    1
110
0
120
0
130
0
111
1
121
0
131
0
112
0
122
1
132
0
 79
    0
146
0
348
10020
 60
    7
 61
    5
292
1
282
    1
141
0
142
0
 63
  250
421
3358443
  0
ENDTAB
  0
TABLE
  2
LTYPE
  5
5
330
0
100
AcDbSymbolTable
 70
    4
  0
LTYPE
  5
14
330
5
100
AcDbSymbolTableRecord
100
AcDbLinetypeTableRecord
  2
ByBlock
 70
    0
  3

 72
   65
 73
    0
 40
0
  0
LTYPE
  5
15
330
5
100
AcDbSymbolTableRecord
100
AcDbLinetypeTableRecord
  2
ByLayer
 70
    0
  3

 72
   65
 73
    0
 40
0
  0
LTYPE
  5
16
330
5
100
AcDbSymbolTableRecord
100
AcDbLinetypeTableRecord
  2
Continuous
 70
    0
  3
Solid line
 72
   65
 73
    0
 40
0
  0
LTYPE
  5
32
330
5
100
AcDbSymbolTableRecord
100
AcDbLinetypeTableRecord
  2
DOT
 70
    0
  3
Dot . . . . . . . . . . . . . . . . . . . . . .
 72
   65
 73
    2
 40
6.35
 49
0
 74
    0
 49
-6.35
 74
    0
  0
LTYPE
  5
33
330
5
100
AcDbSymbolTableRecord
100
AcDbLinetypeTableRecord
  2
DOTTINY
 70
    0
  3
Dot (.15x) .....................................
 72
   65
 73
    2
 40
0.9525
 49
0
 74
    0
 49
-0.9525
 74
    0
  0
LTYPE
  5
34
330
5
100
AcDbSymbolTableRecord
100
AcDbLinetypeTableRecord
  2
DOT2
 70
    0
  3
Dot (.5x) .....................................
 72
   65
 73
    2
 40
3.175
 49
0
 74
    0
 49
-3.175
 74
    0
  0
LTYPE
  5
35
330
5
100
AcDbSymbolTableRecord
100
AcDbLinetypeTableRecord
  2
DOTX2
 70
    0
  3
Dot (2x) .  .  .  .  .  .  .  .  .  .  .  .  .
 72
   65
 73
    2
 40
12.7
 49
0
 74
    0
 49
-12.7
 74
    0
  0
LTYPE
  5
36
330
5
100
AcDbSymbolTableRecord
100
AcDbLinetypeTableRecord
  2
DASHED
 70
    0
  3
Dashed _ _ _ _ _ _ _ _ _ _ _ _ _ _ _ _ _
 72
   65
 73
    2
 40
19.05
 49
12.7
 74
    0
 49
-6.35
 74
    0
  0
LTYPE
  5
37
330
5
100
AcDbSymbolTableRecord
100
AcDbLinetypeTableRecord
  2
DASHEDTINY
 70
    0
  3
Dashed (.15x) _ _ _ _ _ _ _ _ _ _ _ _ _ _ _ _ _
 72
   65
 73
    2
 40
2.8575
 49
1.905
 74
    0
 49
-0.9525
 74
    0
  0
LTYPE
  5
38
330
5
100
AcDbSymbolTableRecord
100
AcDbLinetypeTableRecord
  2
DASHED2
 70
    0
  3
Dashed (.5x) _ _ _ _ _ _ _ _ _ _ _ _ _ _ _ _ _
 72
   65
 73
    2
 40
9.524999999999999
 49
6.35
 74
    0
 49
-3.175
 74
    0
  0
LTYPE
  5
39
330
5
100
AcDbSymbolTableRecord
100
AcDbLinetypeTableRecord
  2
DASHEDX2
 70
    0
  3
Dashed (2x) ____  ____  ____  ____  ____  ___
 72
   65
 73
    2
 40
38.09999999999999
 49
25.4
 74
    0
 49
-12.7
 74
    0
  0
LTYPE
  5
3A
330
5
100
AcDbSymbolTableRecord
100
AcDbLinetypeTableRecord
  2
DASHDOT
 70
    0
  3
Dash dot __ . __ . __ . __ . __ . __ . __ . __
 72
   65
 73
    4
 40
25.4
 49
12.7
 74
    0
 49
-6.35
 74
    0
 49
0
 74
    0
 49
-6.35
 74
    0
  0
LTYPE
  5
3B
330
5
100
AcDbSymbolTableRecord
100
AcDbLinetypeTableRecord
  2
DASHDOTTINY
 70
    0
  3
Dash dot (.15x) _._._._._._._._._._._._._._._.
 72
   65
 73
    4
 40
3.81
 49
1.905
 74
    0
 49
-0.9525
 74
    0
 49
0
 74
    0
 49
-0.9525
 74
    0
  0
LTYPE
  5
3C
330
5
100
AcDbSymbolTableRecord
100
AcDbLinetypeTableRecord
  2
DASHDOT2
 70
    0
  3
Dash dot (.5x) _._._._._._._._._._._._._._._.
 72
   65
 73
    4
 40
12.7
 49
6.35
 74
    0
 49
-3.175
 74
    0
 49
0
 74
    0
 49
-3.175
 74
    0
  0
LTYPE
  5
3D
330
5
100
AcDbSymbolTableRecord
100
AcDbLinetypeTableRecord
  2
DASHDOTX2
 70
    0
  3
Dash dot (2x) ____  .  ____  .  ____  .  ___
 72
   65
 73
    4
 40
50.8
 49
25.4
 74
    0
 49
-12.7
 74
    0
 49
0
 74
    0
 49
-12.7
 74
    0
  0
LTYPE
  5
3E
330
5
100
AcDbSymbolTableRecord
100
AcDbLinetypeTableRecord
  2
DIVIDE
 70
    0
  3
Divide ____ . . ____ . . ____ . . ____ . . ____
 72
   65
 73
    6
 40
31.75
 49
12.7
 74
    0
 49
-6.35
 74
    0
 49
0
 74
    0
 49
-6.35
 74
    0
 49
0
 74
    0
 49
-6.35
 74
    0
  0
LTYPE
  5
3F
330
5
100
AcDbSymbolTableRecord
100
AcDbLinetypeTableRecord
  2
DIVIDETINY
 70
    0
  3
Divide (.15x) __..__..__..__..__..__..__..__.._
 72
   65
 73
    6
 40
4.7625
 49
1.905
 74
    0
 49
-0.9525
 74
    0
 49
0
 74
    0
 49
-0.9525
 74
    0
 49
0
 74
    0
 49
-0.9525
 74
    0
  0
LTYPE
  5
40
330
5
100
AcDbSymbolTableRecord
100
AcDbLinetypeTableRecord
  2
DIVIDE2
 70
    0
  3
Divide (.5x) __..__..__..__..__..__..__..__.._
 72
   65
 73
    6
 40
15.875
 49
6.35
 74
    0
 49
-3.175
 74
    0
 49
0
 74
    0
 49
-3.175
 74
    0
 49
0
 74
    0
 49
-3.175
 74
    0
  0
LTYPE
  5
41
330
5
100
AcDbSymbolTableRecord
100
AcDbLinetypeTableRecord
  2
DIVIDEX2
 70
    0
  3
Divide (2x) ________  .  .  ________  .  .  _
 72
   65
 73
    6
 40
63.5
 49
25.4
 74
    0
 49
-12.7
 74
    0
 49
0
 74
    0
 49
-12.7
 74
    0
 49
0
 74
    0
 49
-12.7
 74
    0
  0
LTYPE
  5
42
330
5
100
AcDbSymbolTableRecord
100
AcDbLinetypeTableRecord
  2
BORDER
 70
    0
  3
Border __ __ . __ __ . __ __ . __ __ . __ __ .
 72
   65
 73
    6
 40
44.45
 49
12.7
 74
    0
 49
-6.35
 74
    0
 49
12.7
 74
    0
 49
-6.35
 74
    0
 49
0
 74
    0
 49
-6.35
 74
    0
  0
LTYPE
  5
43
330
5
100
AcDbSymbolTableRecord
100
AcDbLinetypeTableRecord
  2
BORDERTINY
 70
    0
  3
Border (.15x) __.__.__.__.__.__.__.__.__.__.__.
 72
   65
 73
    6
 40
6.6675
 49
1.905
 74
    0
 49
-0.9525
 74
    0
 49
1.905
 74
    0
 49
-0.9525
 74
    0
 49
0
 74
    0
 49
-0.9525
 74
    0
  0
LTYPE
  5
44
330
5
100
AcDbSymbolTableRecord
100
AcDbLinetypeTableRecord
  2
BORDER2
 70
    0
  3
Border (.5x) __.__.__.__.__.__.__.__.__.__.__.
 72
   65
 73
    6
 40
22.225
 49
6.35
 74
    0
 49
-3.175
 74
    0
 49
6.35
 74
    0
 49
-3.175
 74
    0
 49
0
 74
    0
 49
-3.175
 74
    0
  0
LTYPE
  5
45
330
5
100
AcDbSymbolTableRecord
100
AcDbLinetypeTableRecord
  2
BORDERX2
 70
    0
  3
Border (2x) ____  ____  .  ____  ____  .  ___
 72
   65
 73
    6
 40
88.89999999999999
 49
25.4
 74
    0
 49
-12.7
 74
    0
 49
25.4
 74
    0
 49
-12.7
 74
    0
 49
0
 74
    0
 49
-12.7
 74
    0
  0
LTYPE
  5
46
330
5
100
AcDbSymbolTableRecord
100
AcDbLinetypeTableRecord
  2
CENTER
 70
    0
  3
Center ____ _ ____ _ ____ _ ____ _ ____ _ ____
 72
   65
 73
    4
 40
50.8
 49
31.75
 74
    0
 49
-6.35
 74
    0
 49
6.35
 74
    0
 49
-6.35
 74
    0
  0
LTYPE
  5
47
330
5
100
AcDbSymbolTableRecord
100
AcDbLinetypeTableRecord
  2
CENTERTINY
 70
    0
  3
Center (.15x) ___ _ ___ _ ___ _ ___ _ ___ _ ___
 72
   65
 73
    4
 40
7.62
 49
4.7625
 74
    0
 49
-0.9525
 74
    0
 49
0.9525
 74
    0
 49
-0.9525
 74
    0
  0
LTYPE
  5
48
330
5
100
AcDbSymbolTableRecord
100
AcDbLinetypeTableRecord
  2
CENTER2
 70
    0
  3
Center (.5x) ___ _ ___ _ ___ _ ___ _ ___ _ ___
 72
   65
 73
    4
 40
28.575
 49
19.05
 74
    0
 49
-3.175
 74
    0
 49
3.175
 74
    0
 49
-3.175
 74
    0
  0
LTYPE
  5
49
330
5
100
AcDbSymbolTableRecord
100
AcDbLinetypeTableRecord
  2
CENTERX2
 70
    0
  3
Center (2x) ________  __  ________  __  _____
 72
   65
 73
    4
 40
101.6
 49
63.5
 74
    0
 49
-12.7
 74
    0
 49
12.7
 74
    0
 49
-12.7
 74
    0
  0
ENDTAB
  0
TABLE
  2
LAYER
  5
2
330
0
100
AcDbSymbolTable
 70
    1
  0
LAYER
  5
10
330
2
100
AcDbSymbolTableRecord
100
AcDbLayerTableRecord
  2
0
 70
    0
 62
    7
  6
CONTINUOUS
370
   -3
390
F
  0
ENDTAB
  0
TABLE
  2
STYLE
  5
3
330
0
100
AcDbSymbolTable
 70
    3
  0
STYLE
  5
4A
330
2
100
AcDbSymbolTableRecord
100
AcDbTextStyleTableRecord
  2
Standard
 70
    0
 40
0
 41
1
 50
0
 71
    0
 42
1
  3
txt
  4

  0
ENDTAB
  0
TABLE
  2
VIEW
  5
6
330
0
100
AcDbSymbolTable
 70
    0
  0
ENDTAB
  0
TABLE
  2
UCS
  5
7
330
0
100
AcDbSymbolTable
 70
    0
  0
ENDTAB
  0
TABLE
  2
APPID
  5
9
330
0
100
AcDbSymbolTable
 70
    1
  0
APPID
  5
12
330
9
100
AcDbSymbolTableRecord
100
AcDbRegAppTableRecord
  2
ACAD
 70
    0
  0
APPID
  5
4B
330
9
100
AcDbSymbolTableRecord
100
AcDbRegAppTableRecord
  2
LibreCad
 70
    0
  0
ENDTAB
  0
TABLE
  2
DIMSTYLE
  5
A
330
0
100
AcDbSymbolTable
 70
    1
100
AcDbDimStyleTable
 71
    1
  0
DIMSTYLE
105
4C
330
A
100
AcDbSymbolTableRecord
100
AcDbDimStyleTableRecord
  2
Standard
 70
    0
 40
1
 41
3.556
 42
1
 43
0.38
 44
1
 45
0
 46
0
 47
0
 48
0
 49
1
140
3.5
141
0.09
142
0
143
25.4
144
1
145
0
146
1
147
1.524
148
0
 71
    0
 72
    0
 73
    1
 74
    1
 75
    0
 76
    0
 77
    0
 78
    0
 79
    0
170
    0
171
    2
172
    0
173
    0
174
    0
175
    0
176
    0
177
    0
178
    0
179
    0
271
    2
272
    4
273
    2
274
    2
275
    0
276
    0
277
    2
278
   44
279
    0
280
    0
281
    0
282
    0
283
    1
284
    0
285
    0
286
    0
288
    0
289
    3
340
Standard
341

371
   -2
372
   -2
  0
ENDTAB
  0
TABLE
  2
BLOCK_RECORD
  5
1
330
0
100
AcDbSymbolTable
 70
    2
  0
BLOCK_RECORD
  5
1F
330
1
100
AcDbSymbolTableRecord
100
AcDbBlockTableRecord
  2
*Model_Space
 70
    0
280
    1
281
    0
  0
BLOCK_RECORD
  5
1E
330
1
100
AcDbSymbolTableRecord
100
AcDbBlockTableRecord
  2
*Paper_Space
 70
    0
280
    1
281
    0
  0
ENDTAB
  0
ENDSEC
  0
SECTION
  2
BLOCKS
  0
BLOCK
  5
20
330
1F
100
AcDbEntity
  8
0
100
AcDbBlockBegin
  2
*Model_Space
 70
    0
 10
0
 20
0
 30
0
  3
*Model_Space
  1

  0
ENDBLK
  5
21
330
1F
100
AcDbEntity
  8
0
100
AcDbBlockEnd
  0
BLOCK
  5
1C
330
1B
100
AcDbEntity
  8
0
100
AcDbBlockBegin
  2
*Paper_Space
 70
    0
 10
0
 20
0
 30
0
  3
*Paper_Space
  1

  0
ENDBLK
  5
1D
330
1F
100
AcDbEntity
  8
0
100
AcDbBlockEnd
  0
ENDSEC
  0
SECTION
  2
ENTITIES
  0
CIRCLE
  5
4D
100
AcDbEntity
  8
0
  6
CONTINUOUS
 62
    7
370
   25
100
AcDbCircle
 10
-6.25
 20
130.075
 40
3.149999999999977
  0
CIRCLE
  5
4E
100
AcDbEntity
  8
0
  6
CONTINUOUS
 62
    7
370
   25
100
AcDbCircle
 10
103.55
 20
-6.25
 40
3.150000000000017
  0
CIRCLE
  5
4F
100
AcDbEntity
  8
0
  6
CONTINUOUS
 62
    7
370
   25
100
AcDbCircle
 10
108.3125
 20
130.075
 40
3.150000000000006
  0
CIRCLE
  5
50
100
AcDbEntity
  8
0
  6
CONTINUOUS
 62
    7
370
   25
100
AcDbCircle
 10
-6.25
 20
61.9125
 40
3.150000000000006
  0
CIRCLE
  5
51
100
AcDbEntity
  8
0
  6
CONTINUOUS
 62
    7
370
   25
100
AcDbCircle
 10
222.875
 20
130.075
 40
3.150000000000063
  0
CIRCLE
  5
52
100
AcDbEntity
  8
0
  6
CONTINUOUS
 62
    7
370
   25
100
AcDbCircle
 10
213.35
 20
-6.25
 40
3.150000000000023
  0
CIRCLE
  5
53
100
AcDbEntity
  8
0
  6
CONTINUOUS
 62
    7
370
   25
100
AcDbCircle
 10
-6.25
 20
-6.25
 40
3.150000000000002
  0
CIRCLE
  5
54
100
AcDbEntity
  8
0
  6
CONTINUOUS
 62
    7
370
   25
100
AcDbCircle
 10
80.96250000000001
 20
100.0125
 40
1.599999999999994
  0
CIRCLE
  5
55
100
AcDbEntity
  8
0
  6
CONTINUOUS
 62
    7
370
   25
100
AcDbCircle
 10
80.96250000000001
 20
106.0125
 40
1.599999999999952
  0
CIRCLE
  5
56
100
AcDbEntity
  8
0
  6
CONTINUOUS
 62
    7
370
   25
100
AcDbCircle
 10
80.96250000000001
 20
94.0125
 40
1.600000000000009
  0
CIRCLE
  5
57
100
AcDbEntity
  8
0
  6
CONTINUOUS
 62
    7
370
   25
100
AcDbCircle
 10
222.875
 20
100.0125
 40
3.150000000000006
  0
LINE
  5
58
100
AcDbEntity
  8
0
  6
CONTINUOUS
 62
    7
370
   25
100
AcDbLine
 10
116.09425
 20
20.775
 11
122.09425
 21
20.775
  0
LINE
  5
59
100
AcDbEntity
  8
0
  6
CONTINUOUS
 62
    7
370
   25
100
AcDbLine
 10
122.59425
 20
21.275
 11
122.59425
 21
34.275
  0
LINE
  5
5A
100
AcDbEntity
  8
0
  6
CONTINUOUS
 62
    7
370
   25
100
AcDbLine
 10
116.09425
 20
34.775
 11
122.09425
 21
34.775
  0
LINE
  5
5B
100
AcDbEntity
  8
0
  6
CONTINUOUS
 62
    7
370
   25
100
AcDbLine
 10
115.59425
 20
21.275
 11
115.59425
 21
34.275
  0
LINE
  5
5C
100
AcDbEntity
  8
0
  6
CONTINUOUS
 62
    7
370
   25
100
AcDbLine
 10
33.988
 20
17.325
 11
27.988
 21
17.325
  0
LINE
  5
5D
100
AcDbEntity
  8
0
  6
CONTINUOUS
 62
    7
370
   25
100
AcDbLine
 10
27.0082041029
 20
16.525
 11
11.0917958971
 21
16.525
  0
LINE
  5
5E
100
AcDbEntity
  8
0
  6
CONTINUOUS
 62
    7
370
   25
100
AcDbLine
 10
10.112
 20
17.325
 11
4.112
 21
17.325
  0
LINE
  5
5F
100
AcDbEntity
  8
0
  6
CONTINUOUS
 62
    7
370
   25
100
AcDbLine
 10
3.1322041029
 20
16.525
 11
3.025
 21
16.525
  0
LINE
  5
60
100
AcDbEntity
  8
0
  6
CONTINUOUS
 62
    7
370
   25
100
AcDbLine
 10
2.525
 20
16.025
 11
2.525
 21
3.025
  0
LINE
  5
61
100
AcDbEntity
  8
0
  6
CONTINUOUS
 62
    7
370
   25
100
AcDbLine
 10
3.025
 20
2.525
 11
35.075
 21
2.525
  0
LINE
  5
62
100
AcDbEntity
  8
0
  6
CONTINUOUS
 62
    7
370
   25
100
AcDbLine
 10
35.575
 20
3.025
 11
35.575
 21
16.025
  0
LINE
  5
63
100
AcDbEntity
  8
0
  6
CONTINUOUS
 62
    7
370
   25
100
AcDbLine
 10
35.075
 20
16.525
 11
34.9677958971
 21
16.525
  0
LINE
  5
64
100
AcDbEntity
  8
0
  6
CONTINUOUS
 62
    7
370
   25
100
AcDbLine
 10
220.8125
 20
35.575
 11
207.8125
 21
35.575
  0
LINE
  5
65
100
AcDbEntity
  8
0
  6
CONTINUOUS
 62
    7
370
   25
100
AcDbLine
 10
207.3125
 20
35.075
 11
207.3125
 21
22.075
  0
LINE
  5
66
100
AcDbEntity
  8
0
  6
CONTINUOUS
 62
    7
370
   25
100
AcDbLine
 10
207.8125
 20
21.575
 11
220.8125
 21
21.575
  0
LINE
  5
67
100
AcDbEntity
  8
0
  6
CONTINUOUS
 62
    7
370
   25
100
AcDbLine
 10
221.3125
 20
22.075
 11
221.3125
 21
35.075
  0
LINE
  5
68
100
AcDbEntity
  8
0
  6
CONTINUOUS
 62
    7
370
   25
100
AcDbLine
 10
133.20625
 20
3.025
 11
133.20625
 21
16.025
  0
LINE
  5
69
100
AcDbEntity
  8
0
  6
CONTINUOUS
 62
    7
370
   25
100
AcDbLine
 10
132.70625
 20
16.525
 11
114.94375
 21
16.525
  0
LINE
  5
6A
100
AcDbEntity
  8
0
  6
CONTINUOUS
 62
    7
370
   25
100
AcDbLine
 10
114.44375
 20
16.025
 11
114.44375
 21
3.025
  0
LINE
  5
6B
100
AcDbEntity
  8
0
  6
CONTINUOUS
 62
    7
370
   25
100
AcDbLine
 10
114.94375
 20
2.525
 11
132.70625
 21
2.525
  0
LINE
  5
6C
100
AcDbEntity
  8
0
  6
CONTINUOUS
 62
    7
370
   25
100
AcDbLine
 10
201.7625
 20
35.575
 11
188.7625
 21
35.575
  0
LINE
  5
6D
100
AcDbEntity
  8
0
  6
CONTINUOUS
 62
    7
370
   25
100
AcDbLine
 10
188.2625
 20
35.075
 11
188.2625
 21
22.075
  0
LINE
  5
6E
100
AcDbEntity
  8
0
  6
CONTINUOUS
 62
    7
370
   25
100
AcDbLine
 10
188.7625
 20
21.575
 11
201.7625
 21
21.575
  0
LINE
  5
6F
100
AcDbEntity
  8
0
  6
CONTINUOUS
 62
    7
370
   25
100
AcDbLine
 10
202.2625
 20
22.075
 11
202.2625
 21
35.075
  0
LINE
  5
70
100
AcDbEntity
  8
0
  6
CONTINUOUS
 62
    7
370
   25
100
AcDbLine
 10
144.6125
 20
35.575
 11
131.6125
 21
35.575
  0
LINE
  5
71
100
AcDbEntity
  8
0
  6
CONTINUOUS
 62
    7
370
   25
100
AcDbLine
 10
131.1125
 20
35.075
 11
131.1125
 21
22.075
  0
LINE
  5
72
100
AcDbEntity
  8
0
  6
CONTINUOUS
 62
    7
370
   25
100
AcDbLine
 10
131.6125
 20
21.575
 11
144.6125
 21
21.575
  0
LINE
  5
73
100
AcDbEntity
  8
0
  6
CONTINUOUS
 62
    7
370
   25
100
AcDbLine
 10
145.1125
 20
22.075
 11
145.1125
 21
35.075
  0
LINE
  5
74
100
AcDbEntity
  8
0
  6
CONTINUOUS
 62
    7
370
   25
100
AcDbLine
 10
192.2375
 20
54.625
 11
179.2375
 21
54.625
  0
LINE
  5
75
100
AcDbEntity
  8
0
  6
CONTINUOUS
 62
    7
370
   25
100
AcDbLine
 10
178.7375
 20
54.125
 11
178.7375
 21
41.125
  0
LINE
  5
76
100
AcDbEntity
  8
0
  6
CONTINUOUS
 62
    7
370
   25
100
AcDbLine
 10
179.2375
 20
40.625
 11
192.2375
 21
40.625
  0
LINE
  5
77
100
AcDbEntity
  8
0
  6
CONTINUOUS
 62
    7
370
   25
100
AcDbLine
 10
192.7375
 20
41.125
 11
192.7375
 21
54.125
  0
LINE
  5
78
100
AcDbEntity
  8
0
  6
CONTINUOUS
 62
    7
370
   25
100
AcDbLine
 10
154.1375
 20
54.625
 11
141.1375
 21
54.625
  0
LINE
  5
79
100
AcDbEntity
  8
0
  6
CONTINUOUS
 62
    7
370
   25
100
AcDbLine
 10
140.6375
 20
54.125
 11
140.6375
 21
41.125
  0
LINE
  5
7A
100
AcDbEntity
  8
0
  6
CONTINUOUS
 62
    7
370
   25
100
AcDbLine
 10
141.1375
 20
40.625
 11
154.1375
 21
40.625
  0
LINE
  5
7B
100
AcDbEntity
  8
0
  6
CONTINUOUS
 62
    7
370
   25
100
AcDbLine
 10
154.6375
 20
41.125
 11
154.6375
 21
54.125
  0
LINE
  5
7C
100
AcDbEntity
  8
0
  6
CONTINUOUS
 62
    7
370
   25
100
AcDbLine
 10
135.0875
 20
54.625
 11
122.0875
 21
54.625
  0
LINE
  5
7D
100
AcDbEntity
  8
0
  6
CONTINUOUS
 62
    7
370
   25
100
AcDbLine
 10
121.5875
 20
54.125
 11
121.5875
 21
41.125
  0
LINE
  5
7E
100
AcDbEntity
  8
0
  6
CONTINUOUS
 62
    7
370
   25
100
AcDbLine
 10
122.0875
 20
40.625
 11
135.0875
 21
40.625
  0
LINE
  5
7F
100
AcDbEntity
  8
0
  6
CONTINUOUS
 62
    7
370
   25
100
AcDbLine
 10
135.5875
 20
41.125
 11
135.5875
 21
54.125
  0
LINE
  5
80
100
AcDbEntity
  8
0
  6
CONTINUOUS
 62
    7
370
   25
100
AcDbLine
 10
182.7125
 20
35.575
 11
169.7125
 21
35.575
  0
LINE
  5
81
100
AcDbEntity
  8
0
  6
CONTINUOUS
 62
    7
370
   25
100
AcDbLine
 10
169.2125
 20
35.075
 11
169.2125
 21
22.075
  0
LINE
  5
82
100
AcDbEntity
  8
0
  6
CONTINUOUS
 62
    7
370
   25
100
AcDbLine
 10
169.7125
 20
21.575
 11
182.7125
 21
21.575
  0
LINE
  5
83
100
AcDbEntity
  8
0
  6
CONTINUOUS
 62
    7
370
   25
100
AcDbLine
 10
183.2125
 20
22.075
 11
183.2125
 21
35.075
  0
LINE
  5
84
100
AcDbEntity
  8
0
  6
CONTINUOUS
 62
    7
370
   25
100
AcDbLine
 10
187.475
 20
73.675
 11
174.475
 21
73.675
  0
LINE
  5
85
100
AcDbEntity
  8
0
  6
CONTINUOUS
 62
    7
370
   25
100
AcDbLine
 10
173.975
 20
73.175
 11
173.975
 21
60.175
  0
LINE
  5
86
100
AcDbEntity
  8
0
  6
CONTINUOUS
 62
    7
370
   25
100
AcDbLine
 10
174.475
 20
59.675
 11
187.475
 21
59.675
  0
LINE
  5
87
100
AcDbEntity
  8
0
  6
CONTINUOUS
 62
    7
370
   25
100
AcDbLine
 10
187.975
 20
60.175
 11
187.975
 21
73.175
  0
LINE
  5
88
100
AcDbEntity
  8
0
  6
CONTINUOUS
 62
    7
370
   25
100
AcDbLine
 10
149.375
 20
73.675
 11
136.375
 21
73.675
  0
LINE
  5
89
100
AcDbEntity
  8
0
  6
CONTINUOUS
 62
    7
370
   25
100
AcDbLine
 10
135.875
 20
73.175
 11
135.875
 21
60.175
  0
LINE
  5
8A
100
AcDbEntity
  8
0
  6
CONTINUOUS
 62
    7
370
   25
100
AcDbLine
 10
136.375
 20
59.675
 11
149.375
 21
59.675
  0
LINE
  5
8B
100
AcDbEntity
  8
0
  6
CONTINUOUS
 62
    7
370
   25
100
AcDbLine
 10
149.875
 20
60.175
 11
149.875
 21
73.175
  0
LINE
  5
8C
100
AcDbEntity
  8
0
  6
CONTINUOUS
 62
    7
370
   25
100
AcDbLine
 10
106.5125
 20
73.675
 11
93.5125
 21
73.675
  0
LINE
  5
8D
100
AcDbEntity
  8
0
  6
CONTINUOUS
 62
    7
370
   25
100
AcDbLine
 10
93.0125
 20
73.175
 11
93.0125
 21
60.175
  0
LINE
  5
8E
100
AcDbEntity
  8
0
  6
CONTINUOUS
 62
    7
370
   25
100
AcDbLine
 10
93.5125
 20
59.675
 11
106.5125
 21
59.675
  0
LINE
  5
8F
100
AcDbEntity
  8
0
  6
CONTINUOUS
 62
    7
370
   25
100
AcDbLine
 10
107.0125
 20
60.175
 11
107.0125
 21
73.175
  0
LINE
  5
90
100
AcDbEntity
  8
0
  6
CONTINUOUS
 62
    7
370
   25
100
AcDbLine
 10
197
 20
92.72499999999999
 11
184
 21
92.72499999999999
  0
LINE
  5
91
100
AcDbEntity
  8
0
  6
CONTINUOUS
 62
    7
370
   25
100
AcDbLine
 10
183.5
 20
92.22499999999999
 11
183.5
 21
79.22499999999999
  0
LINE
  5
92
100
AcDbEntity
  8
0
  6
CONTINUOUS
 62
    7
370
   25
100
AcDbLine
 10
184
 20
78.72499999999999
 11
197
 21
78.72499999999999
  0
LINE
  5
93
100
AcDbEntity
  8
0
  6
CONTINUOUS
 62
    7
370
   25
100
AcDbLine
 10
197.5
 20
79.22499999999999
 11
197.5
 21
92.22499999999999
  0
LINE
  5
94
100
AcDbEntity
  8
0
  6
CONTINUOUS
 62
    7
370
   25
100
AcDbLine
 10
158.9
 20
92.72499999999999
 11
145.9
 21
92.72499999999999
  0
LINE
  5
95
100
AcDbEntity
  8
0
  6
CONTINUOUS
 62
    7
370
   25
100
AcDbLine
 10
145.4
 20
92.22499999999999
 11
145.4
 21
79.22499999999999
  0
LINE
  5
96
100
AcDbEntity
  8
0
  6
CONTINUOUS
 62
    7
370
   25
100
AcDbLine
 10
145.9
 20
78.72499999999999
 11
158.9
 21
78.72499999999999
  0
LINE
  5
97
100
AcDbEntity
  8
0
  6
CONTINUOUS
 62
    7
370
   25
100
AcDbLine
 10
159.4
 20
79.22499999999999
 11
159.4
 21
92.22499999999999
  0
LINE
  5
98
100
AcDbEntity
  8
0
  6
CONTINUOUS
 62
    7
370
   25
100
AcDbLine
 10
120.8
 20
92.72499999999999
 11
107.8
 21
92.72499999999999
  0
LINE
  5
99
100
AcDbEntity
  8
0
  6
CONTINUOUS
 62
    7
370
   25
100
AcDbLine
 10
107.3
 20
92.22499999999999
 11
107.3
 21
79.22499999999999
  0
LINE
  5
9A
100
AcDbEntity
  8
0
  6
CONTINUOUS
 62
    7
370
   25
100
AcDbLine
 10
107.8
 20
78.72499999999999
 11
120.8
 21
78.72499999999999
  0
LINE
  5
9B
100
AcDbEntity
  8
0
  6
CONTINUOUS
 62
    7
370
   25
100
AcDbLine
 10
121.3
 20
79.22499999999999
 11
121.3
 21
92.22499999999999
  0
LINE
  5
9C
100
AcDbEntity
  8
0
  6
CONTINUOUS
 62
    7
370
   25
100
AcDbLine
 10
54.125
 20
16.525
 11
41.125
 21
16.525
  0
LINE
  5
9D
100
AcDbEntity
  8
0
  6
CONTINUOUS
 62
    7
370
   25
100
AcDbLine
 10
40.625
 20
16.025
 11
40.625
 21
3.025
  0
LINE
  5
9E
100
AcDbEntity
  8
0
  6
CONTINUOUS
 62
    7
370
   25
100
AcDbLine
 10
41.125
 20
2.525
 11
54.125
 21
2.525
  0
LINE
  5
9F
100
AcDbEntity
  8
0
  6
CONTINUOUS
 62
    7
370
   25
100
AcDbLine
 10
54.625
 20
3.025
 11
54.625
 21
16.025
  0
LINE
  5
A0
100
AcDbEntity
  8
0
  6
CONTINUOUS
 62
    7
370
   25
100
AcDbLine
 10
35.075
 20
35.575
 11
22.075
 21
35.575
  0
LINE
  5
A1
100
AcDbEntity
  8
0
  6
CONTINUOUS
 62
    7
370
   25
100
AcDbLine
 10
21.575
 20
35.075
 11
21.575
 21
22.075
  0
LINE
  5
A2
100
AcDbEntity
  8
0
  6
CONTINUOUS
 62
    7
370
   25
100
AcDbLine
 10
22.075
 20
21.575
 11
35.075
 21
21.575
  0
LINE
  5
A3
100
AcDbEntity
  8
0
  6
CONTINUOUS
 62
    7
370
   25
100
AcDbLine
 10
35.575
 20
22.075
 11
35.575
 21
35.075
  0
LINE
  5
A4
100
AcDbEntity
  8
0
  6
CONTINUOUS
 62
    7
370
   25
100
AcDbLine
 10
35.075
 20
54.625
 11
22.075
 21
54.625
  0
LINE
  5
A5
100
AcDbEntity
  8
0
  6
CONTINUOUS
 62
    7
370
   25
100
AcDbLine
 10
21.575
 20
54.125
 11
21.575
 21
41.125
  0
LINE
  5
A6
100
AcDbEntity
  8
0
  6
CONTINUOUS
 62
    7
370
   25
100
AcDbLine
 10
22.075
 20
40.625
 11
35.075
 21
40.625
  0
LINE
  5
A7
100
AcDbEntity
  8
0
  6
CONTINUOUS
 62
    7
370
   25
100
AcDbLine
 10
35.575
 20
41.125
 11
35.575
 21
54.125
  0
LINE
  5
A8
100
AcDbEntity
  8
0
  6
CONTINUOUS
 62
    7
370
   25
100
AcDbLine
 10
35.075
 20
73.675
 11
22.075
 21
73.675
  0
LINE
  5
A9
100
AcDbEntity
  8
0
  6
CONTINUOUS
 62
    7
370
   25
100
AcDbLine
 10
21.575
 20
73.175
 11
21.575
 21
60.175
  0
LINE
  5
AA
100
AcDbEntity
  8
0
  6
CONTINUOUS
 62
    7
370
   25
100
AcDbLine
 10
22.075
 20
59.675
 11
35.075
 21
59.675
  0
LINE
  5
AB
100
AcDbEntity
  8
0
  6
CONTINUOUS
 62
    7
370
   25
100
AcDbLine
 10
35.575
 20
60.175
 11
35.575
 21
73.175
  0
LINE
  5
AC
100
AcDbEntity
  8
0
  6
CONTINUOUS
 62
    7
370
   25
100
AcDbLine
 10
73.175
 20
92.72499999999999
 11
60.175
 21
92.72499999999999
  0
LINE
  5
AD
100
AcDbEntity
  8
0
  6
CONTINUOUS
 62
    7
370
   25
100
AcDbLine
 10
59.675
 20
92.22499999999999
 11
59.675
 21
79.22499999999999
  0
LINE
  5
AE
100
AcDbEntity
  8
0
  6
CONTINUOUS
 62
    7
370
   25
100
AcDbLine
 10
60.175
 20
78.72499999999999
 11
73.175
 21
78.72499999999999
  0
LINE
  5
AF
100
AcDbEntity
  8
0
  6
CONTINUOUS
 62
    7
370
   25
100
AcDbLine
 10
73.675
 20
79.22499999999999
 11
73.675
 21
92.22499999999999
  0
LINE
  5
B0
100
AcDbEntity
  8
0
  6
CONTINUOUS
 62
    7
370
   25
100
AcDbLine
 10
35.075
 20
92.72499999999999
 11
22.075
 21
92.72499999999999
  0
LINE
  5
B1
100
AcDbEntity
  8
0
  6
CONTINUOUS
 62
    7
370
   25
100
AcDbLine
 10
21.575
 20
92.22499999999999
 11
21.575
 21
79.22499999999999
  0
LINE
  5
B2
100
AcDbEntity
  8
0
  6
CONTINUOUS
 62
    7
370
   25
100
AcDbLine
 10
22.075
 20
78.72499999999999
 11
35.075
 21
78.72499999999999
  0
LINE
  5
B3
100
AcDbEntity
  8
0
  6
CONTINUOUS
 62
    7
370
   25
100
AcDbLine
 10
35.575
 20
79.22499999999999
 11
35.575
 21
92.22499999999999
  0
LINE
  5
B4
100
AcDbEntity
  8
0
  6
CONTINUOUS
 62
    7
370
   25
100
AcDbLine
 10
225.575
 20
121.3
 11
212.575
 21
121.3
  0
LINE
  5
B5
100
AcDbEntity
  8
0
  6
CONTINUOUS
 62
    7
370
   25
100
AcDbLine
 10
212.075
 20
120.8
 11
212.075
 21
107.8
  0
LINE
  5
B6
100
AcDbEntity
  8
0
  6
CONTINUOUS
 62
    7
370
   25
100
AcDbLine
 10
212.575
 20
107.3
 11
225.575
 21
107.3
  0
LINE
  5
B7
100
AcDbEntity
  8
0
  6
CONTINUOUS
 62
    7
370
   25
100
AcDbLine
 10
226.075
 20
107.8
 11
226.075
 21
120.8
  0
LINE
  5
B8
100
AcDbEntity
  8
0
  6
CONTINUOUS
 62
    7
370
   25
100
AcDbLine
 10
182.7125
 20
121.3
 11
169.7125
 21
121.3
  0
LINE
  5
B9
100
AcDbEntity
  8
0
  6
CONTINUOUS
 62
    7
370
   25
100
AcDbLine
 10
169.2125
 20
120.8
 11
169.2125
 21
107.8
  0
LINE
  5
BA
100
AcDbEntity
  8
0
  6
CONTINUOUS
 62
    7
370
   25
100
AcDbLine
 10
169.7125
 20
107.3
 11
182.7125
 21
107.3
  0
LINE
  5
BB
100
AcDbEntity
  8
0
  6
CONTINUOUS
 62
    7
370
   25
100
AcDbLine
 10
183.2125
 20
107.8
 11
183.2125
 21
120.8
  0
LINE
  5
BC
100
AcDbEntity
  8
0
  6
CONTINUOUS
 62
    7
370
   25
100
AcDbLine
 10
144.6125
 20
121.3
 11
131.6125
 21
121.3
  0
LINE
  5
BD
100
AcDbEntity
  8
0
  6
CONTINUOUS
 62
    7
370
   25
100
AcDbLine
 10
131.1125
 20
120.8
 11
131.1125
 21
107.8
  0
LINE
  5
BE
100
AcDbEntity
  8
0
  6
CONTINUOUS
 62
    7
370
   25
100
AcDbLine
 10
131.6125
 20
107.3
 11
144.6125
 21
107.3
  0
LINE
  5
BF
100
AcDbEntity
  8
0
  6
CONTINUOUS
 62
    7
370
   25
100
AcDbLine
 10
145.1125
 20
107.8
 11
145.1125
 21
120.8
  0
LINE
  5
C0
100
AcDbEntity
  8
0
  6
CONTINUOUS
 62
    7
370
   25
100
AcDbLine
 10
101.75
 20
121.3
 11
88.75
 21
121.3
  0
LINE
  5
C1
100
AcDbEntity
  8
0
  6
CONTINUOUS
 62
    7
370
   25
100
AcDbLine
 10
88.25
 20
120.8
 11
88.25
 21
107.8
  0
LINE
  5
C2
100
AcDbEntity
  8
0
  6
CONTINUOUS
 62
    7
370
   25
100
AcDbLine
 10
88.75
 20
107.3
 11
101.75
 21
107.3
  0
LINE
  5
C3
100
AcDbEntity
  8
0
  6
CONTINUOUS
 62
    7
370
   25
100
AcDbLine
 10
102.25
 20
107.8
 11
102.25
 21
120.8
  0
LINE
  5
C4
100
AcDbEntity
  8
0
  6
CONTINUOUS
 62
    7
370
   25
100
AcDbLine
 10
54.125
 20
121.3
 11
41.125
 21
121.3
  0
LINE
  5
C5
100
AcDbEntity
  8
0
  6
CONTINUOUS
 62
    7
370
   25
100
AcDbLine
 10
40.625
 20
120.8
 11
40.625
 21
107.8
  0
LINE
  5
C6
100
AcDbEntity
  8
0
  6
CONTINUOUS
 62
    7
370
   25
100
AcDbLine
 10
41.125
 20
107.3
 11
54.125
 21
107.3
  0
LINE
  5
C7
100
AcDbEntity
  8
0
  6
CONTINUOUS
 62
    7
370
   25
100
AcDbLine
 10
54.625
 20
107.8
 11
54.625
 21
120.8
  0
LINE
  5
C8
100
AcDbEntity
  8
0
  6
CONTINUOUS
 62
    7
370
   25
100
AcDbLine
 10
16.025
 20
121.3
 11
3.025
 21
121.3
  0
LINE
  5
C9
100
AcDbEntity
  8
0
  6
CONTINUOUS
 62
    7
370
   25
100
AcDbLine
 10
2.525
 20
120.8
 11
2.525
 21
107.8
  0
LINE
  5
CA
100
AcDbEntity
  8
0
  6
CONTINUOUS
 62
    7
370
   25
100
AcDbLine
 10
3.025
 20
107.3
 11
16.025
 21
107.3
  0
LINE
  5
CB
100
AcDbEntity
  8
0
  6
CONTINUOUS
 62
    7
370
   25
100
AcDbLine
 10
16.525
 20
107.8
 11
16.525
 21
120.8
  0
LINE
  5
CC
100
AcDbEntity
  8
0
  6
CONTINUOUS
 62
    7
370
   25
100
AcDbLine
 10
35.075
 20
121.3
 11
22.075
 21
121.3
  0
LINE
  5
CD
100
AcDbEntity
  8
0
  6
CONTINUOUS
 62
    7
370
   25
100
AcDbLine
 10
21.575
 20
120.8
 11
21.575
 21
107.8
  0
LINE
  5
CE
100
AcDbEntity
  8
0
  6
CONTINUOUS
 62
    7
370
   25
100
AcDbLine
 10
22.075
 20
107.3
 11
35.075
 21
107.3
  0
LINE
  5
CF
100
AcDbEntity
  8
0
  6
CONTINUOUS
 62
    7
370
   25
100
AcDbLine
 10
35.575
 20
107.8
 11
35.575
 21
120.8
  0
LINE
  5
D0
100
AcDbEntity
  8
0
  6
CONTINUOUS
 62
    7
370
   25
100
AcDbLine
 10
73.175
 20
121.3
 11
60.175
 21
121.3
  0
LINE
  5
D1
100
AcDbEntity
  8
0
  6
CONTINUOUS
 62
    7
370
   25
100
AcDbLine
 10
59.675
 20
120.8
 11
59.675
 21
107.8
  0
LINE
  5
D2
100
AcDbEntity
  8
0
  6
CONTINUOUS
 62
    7
370
   25
100
AcDbLine
 10
60.175
 20
107.3
 11
73.175
 21
107.3
  0
LINE
  5
D3
100
AcDbEntity
  8
0
  6
CONTINUOUS
 62
    7
370
   25
100
AcDbLine
 10
73.675
 20
107.8
 11
73.675
 21
120.8
  0
LINE
  5
D4
100
AcDbEntity
  8
0
  6
CONTINUOUS
 62
    7
370
   25
100
AcDbLine
 10
125.5625
 20
121.3
 11
112.5625
 21
121.3
  0
LINE
  5
D5
100
AcDbEntity
  8
0
  6
CONTINUOUS
 62
    7
370
   25
100
AcDbLine
 10
112.0625
 20
120.8
 11
112.0625
 21
107.8
  0
LINE
  5
D6
100
AcDbEntity
  8
0
  6
CONTINUOUS
 62
    7
370
   25
100
AcDbLine
 10
112.5625
 20
107.3
 11
125.5625
 21
107.3
  0
LINE
  5
D7
100
AcDbEntity
  8
0
  6
CONTINUOUS
 62
    7
370
   25
100
AcDbLine
 10
126.0625
 20
107.8
 11
126.0625
 21
120.8
  0
LINE
  5
D8
100
AcDbEntity
  8
0
  6
CONTINUOUS
 62
    7
370
   25
100
AcDbLine
 10
163.6625
 20
121.3
 11
150.6625
 21
121.3
  0
LINE
  5
D9
100
AcDbEntity
  8
0
  6
CONTINUOUS
 62
    7
370
   25
100
AcDbLine
 10
150.1625
 20
120.8
 11
150.1625
 21
107.8
  0
LINE
  5
DA
100
AcDbEntity
  8
0
  6
CONTINUOUS
 62
    7
370
   25
100
AcDbLine
 10
150.6625
 20
107.3
 11
163.6625
 21
107.3
  0
LINE
  5
DB
100
AcDbEntity
  8
0
  6
CONTINUOUS
 62
    7
370
   25
100
AcDbLine
 10
164.1625
 20
107.8
 11
164.1625
 21
120.8
  0
LINE
  5
DC
100
AcDbEntity
  8
0
  6
CONTINUOUS
 62
    7
370
   25
100
AcDbLine
 10
206.525
 20
121.3
 11
193.525
 21
121.3
  0
LINE
  5
DD
100
AcDbEntity
  8
0
  6
CONTINUOUS
 62
    7
370
   25
100
AcDbLine
 10
193.025
 20
120.8
 11
193.025
 21
107.8
  0
LINE
  5
DE
100
AcDbEntity
  8
0
  6
CONTINUOUS
 62
    7
370
   25
100
AcDbLine
 10
193.525
 20
107.3
 11
206.525
 21
107.3
  0
LINE
  5
DF
100
AcDbEntity
  8
0
  6
CONTINUOUS
 62
    7
370
   25
100
AcDbLine
 10
207.025
 20
107.8
 11
207.025
 21
120.8
  0
LINE
  5
E0
100
AcDbEntity
  8
0
  6
CONTINUOUS
 62
    7
370
   25
100
AcDbLine
 10
16.025
 20
92.72499999999999
 11
3.025
 21
92.72499999999999
  0
LINE
  5
E1
100
AcDbEntity
  8
0
  6
CONTINUOUS
 62
    7
370
   25
100
AcDbLine
 10
2.525
 20
92.22499999999999
 11
2.525
 21
79.22499999999999
  0
LINE
  5
E2
100
AcDbEntity
  8
0
  6
CONTINUOUS
 62
    7
370
   25
100
AcDbLine
 10
3.025
 20
78.72499999999999
 11
16.025
 21
78.72499999999999
  0
LINE
  5
E3
100
AcDbEntity
  8
0
  6
CONTINUOUS
 62
    7
370
   25
100
AcDbLine
 10
16.525
 20
79.22499999999999
 11
16.525
 21
92.22499999999999
  0
LINE
  5
E4
100
AcDbEntity
  8
0
  6
CONTINUOUS
 62
    7
370
   25
100
AcDbLine
 10
54.125
 20
92.72499999999999
 11
41.125
 21
92.72499999999999
  0
LINE
  5
E5
100
AcDbEntity
  8
0
  6
CONTINUOUS
 62
    7
370
   25
100
AcDbLine
 10
40.625
 20
92.22499999999999
 11
40.625
 21
79.22499999999999
  0
LINE
  5
E6
100
AcDbEntity
  8
0
  6
CONTINUOUS
 62
    7
370
   25
100
AcDbLine
 10
41.125
 20
78.72499999999999
 11
54.125
 21
78.72499999999999
  0
LINE
  5
E7
100
AcDbEntity
  8
0
  6
CONTINUOUS
 62
    7
370
   25
100
AcDbLine
 10
54.625
 20
79.22499999999999
 11
54.625
 21
92.22499999999999
  0
LINE
  5
E8
100
AcDbEntity
  8
0
  6
CONTINUOUS
 62
    7
370
   25
100
AcDbLine
 10
16.025
 20
73.675
 11
3.025
 21
73.675
  0
LINE
  5
E9
100
AcDbEntity
  8
0
  6
CONTINUOUS
 62
    7
370
   25
100
AcDbLine
 10
2.525
 20
73.175
 11
2.525
 21
60.175
  0
LINE
  5
EA
100
AcDbEntity
  8
0
  6
CONTINUOUS
 62
    7
370
   25
100
AcDbLine
 10
3.025
 20
59.675
 11
16.025
 21
59.675
  0
LINE
  5
EB
100
AcDbEntity
  8
0
  6
CONTINUOUS
 62
    7
370
   25
100
AcDbLine
 10
16.525
 20
60.175
 11
16.525
 21
73.175
  0
LINE
  5
EC
100
AcDbEntity
  8
0
  6
CONTINUOUS
 62
    7
370
   25
100
AcDbLine
 10
54.125
 20
73.675
 11
41.125
 21
73.675
  0
LINE
  5
ED
100
AcDbEntity
  8
0
  6
CONTINUOUS
 62
    7
370
   25
100
AcDbLine
 10
40.625
 20
73.175
 11
40.625
 21
60.175
  0
LINE
  5
EE
100
AcDbEntity
  8
0
  6
CONTINUOUS
 62
    7
370
   25
100
AcDbLine
 10
41.125
 20
59.675
 11
54.125
 21
59.675
  0
LINE
  5
EF
100
AcDbEntity
  8
0
  6
CONTINUOUS
 62
    7
370
   25
100
AcDbLine
 10
54.625
 20
60.175
 11
54.625
 21
73.175
  0
LINE
  5
F0
100
AcDbEntity
  8
0
  6
CONTINUOUS
 62
    7
370
   25
100
AcDbLine
 10
16.025
 20
54.625
 11
3.025
 21
54.625
  0
LINE
  5
F1
100
AcDbEntity
  8
0
  6
CONTINUOUS
 62
    7
370
   25
100
AcDbLine
 10
2.525
 20
54.125
 11
2.525
 21
41.125
  0
LINE
  5
F2
100
AcDbEntity
  8
0
  6
CONTINUOUS
 62
    7
370
   25
100
AcDbLine
 10
3.025
 20
40.625
 11
16.025
 21
40.625
  0
LINE
  5
F3
100
AcDbEntity
  8
0
  6
CONTINUOUS
 62
    7
370
   25
100
AcDbLine
 10
16.525
 20
41.125
 11
16.525
 21
54.125
  0
LINE
  5
F4
100
AcDbEntity
  8
0
  6
CONTINUOUS
 62
    7
370
   25
100
AcDbLine
 10
54.125
 20
54.625
 11
41.125
 21
54.625
  0
LINE
  5
F5
100
AcDbEntity
  8
0
  6
CONTINUOUS
 62
    7
370
   25
100
AcDbLine
 10
40.625
 20
54.125
 11
40.625
 21
41.125
  0
LINE
  5
F6
100
AcDbEntity
  8
0
  6
CONTINUOUS
 62
    7
370
   25
100
AcDbLine
 10
41.125
 20
40.625
 11
54.125
 21
40.625
  0
LINE
  5
F7
100
AcDbEntity
  8
0
  6
CONTINUOUS
 62
    7
370
   25
100
AcDbLine
 10
54.625
 20
41.125
 11
54.625
 21
54.125
  0
LINE
  5
F8
100
AcDbEntity
  8
0
  6
CONTINUOUS
 62
    7
370
   25
100
AcDbLine
 10
16.025
 20
35.575
 11
3.025
 21
35.575
  0
LINE
  5
F9
100
AcDbEntity
  8
0
  6
CONTINUOUS
 62
    7
370
   25
100
AcDbLine
 10
2.525
 20
35.075
 11
2.525
 21
22.075
  0
LINE
  5
FA
100
AcDbEntity
  8
0
  6
CONTINUOUS
 62
    7
370
   25
100
AcDbLine
 10
3.025
 20
21.575
 11
16.025
 21
21.575
  0
LINE
  5
FB
100
AcDbEntity
  8
0
  6
CONTINUOUS
 62
    7
370
   25
100
AcDbLine
 10
16.525
 20
22.075
 11
16.525
 21
35.075
  0
LINE
  5
FC
100
AcDbEntity
  8
0
  6
CONTINUOUS
 62
    7
370
   25
100
AcDbLine
 10
54.125
 20
35.575
 11
41.125
 21
35.575
  0
LINE
  5
FD
100
AcDbEntity
  8
0
  6
CONTINUOUS
 62
    7
370
   25
100
AcDbLine
 10
40.625
 20
35.075
 11
40.625
 21
22.075
  0
LINE
  5
FE
100
AcDbEntity
  8
0
  6
CONTINUOUS
 62
    7
370
   25
100
AcDbLine
 10
41.125
 20
21.575
 11
54.125
 21
21.575
  0
LINE
  5
FF
100
AcDbEntity
  8
0
  6
CONTINUOUS
 62
    7
370
   25
100
AcDbLine
 10
54.625
 20
22.075
 11
54.625
 21
35.075
  0
LINE
  5
100
100
AcDbEntity
  8
0
  6
CONTINUOUS
 62
    7
370
   25
100
AcDbLine
 10
101.75
 20
92.72499999999999
 11
88.75
 21
92.72499999999999
  0
LINE
  5
101
100
AcDbEntity
  8
0
  6
CONTINUOUS
 62
    7
370
   25
100
AcDbLine
 10
88.25
 20
92.22499999999999
 11
88.25
 21
79.22499999999999
  0
LINE
  5
102
100
AcDbEntity
  8
0
  6
CONTINUOUS
 62
    7
370
   25
100
AcDbLine
 10
88.75
 20
78.72499999999999
 11
101.75
 21
78.72499999999999
  0
LINE
  5
103
100
AcDbEntity
  8
0
  6
CONTINUOUS
 62
    7
370
   25
100
AcDbLine
 10
102.25
 20
79.22499999999999
 11
102.25
 21
92.22499999999999
  0
LINE
  5
104
100
AcDbEntity
  8
0
  6
CONTINUOUS
 62
    7
370
   25
100
AcDbLine
 10
139.85
 20
92.72499999999999
 11
126.85
 21
92.72499999999999
  0
LINE
  5
105
100
AcDbEntity
  8
0
  6
CONTINUOUS
 62
    7
370
   25
100
AcDbLine
 10
126.35
 20
92.22499999999999
 11
126.35
 21
79.22499999999999
  0
LINE
  5
106
100
AcDbEntity
  8
0
  6
CONTINUOUS
 62
    7
370
   25
100
AcDbLine
 10
126.85
 20
78.72499999999999
 11
139.85
 21
78.72499999999999
  0
LINE
  5
107
100
AcDbEntity
  8
0
  6
CONTINUOUS
 62
    7
370
   25
100
AcDbLine
 10
140.35
 20
79.22499999999999
 11
140.35
 21
92.22499999999999
  0
LINE
  5
108
100
AcDbEntity
  8
0
  6
CONTINUOUS
 62
    7
370
   25
100
AcDbLine
 10
177.95
 20
92.72499999999999
 11
164.95
 21
92.72499999999999
  0
LINE
  5
109
100
AcDbEntity
  8
0
  6
CONTINUOUS
 62
    7
370
   25
100
AcDbLine
 10
164.45
 20
92.22499999999999
 11
164.45
 21
79.22499999999999
  0
LINE
  5
10A
100
AcDbEntity
  8
0
  6
CONTINUOUS
 62
    7
370
   25
100
AcDbLine
 10
164.95
 20
78.72499999999999
 11
177.95
 21
78.72499999999999
  0
LINE
  5
10B
100
AcDbEntity
  8
0
  6
CONTINUOUS
 62
    7
370
   25
100
AcDbLine
 10
178.45
 20
79.22499999999999
 11
178.45
 21
92.22499999999999
  0
LINE
  5
10C
100
AcDbEntity
  8
0
  6
CONTINUOUS
 62
    7
370
   25
100
AcDbLine
 10
216.05
 20
92.72499999999999
 11
203.05
 21
92.72499999999999
  0
LINE
  5
10D
100
AcDbEntity
  8
0
  6
CONTINUOUS
 62
    7
370
   25
100
AcDbLine
 10
202.55
 20
92.22499999999999
 11
202.55
 21
79.22499999999999
  0
LINE
  5
10E
100
AcDbEntity
  8
0
  6
CONTINUOUS
 62
    7
370
   25
100
AcDbLine
 10
203.05
 20
78.72499999999999
 11
216.05
 21
78.72499999999999
  0
LINE
  5
10F
100
AcDbEntity
  8
0
  6
CONTINUOUS
 62
    7
370
   25
100
AcDbLine
 10
216.55
 20
79.22499999999999
 11
216.55
 21
92.22499999999999
  0
LINE
  5
110
100
AcDbEntity
  8
0
  6
CONTINUOUS
 62
    7
370
   25
100
AcDbLine
 10
130.325
 20
73.675
 11
117.325
 21
73.675
  0
LINE
  5
111
100
AcDbEntity
  8
0
  6
CONTINUOUS
 62
    7
370
   25
100
AcDbLine
 10
116.825
 20
73.175
 11
116.825
 21
60.175
  0
LINE
  5
112
100
AcDbEntity
  8
0
  6
CONTINUOUS
 62
    7
370
   25
100
AcDbLine
 10
117.325
 20
59.675
 11
130.325
 21
59.675
  0
LINE
  5
113
100
AcDbEntity
  8
0
  6
CONTINUOUS
 62
    7
370
   25
100
AcDbLine
 10
130.825
 20
60.175
 11
130.825
 21
73.175
  0
LINE
  5
114
100
AcDbEntity
  8
0
  6
CONTINUOUS
 62
    7
370
   25
100
AcDbLine
 10
168.425
 20
73.675
 11
155.425
 21
73.675
  0
LINE
  5
115
100
AcDbEntity
  8
0
  6
CONTINUOUS
 62
    7
370
   25
100
AcDbLine
 10
154.925
 20
73.175
 11
154.925
 21
60.175
  0
LINE
  5
116
100
AcDbEntity
  8
0
  6
CONTINUOUS
 62
    7
370
   25
100
AcDbLine
 10
155.425
 20
59.675
 11
168.425
 21
59.675
  0
LINE
  5
117
100
AcDbEntity
  8
0
  6
CONTINUOUS
 62
    7
370
   25
100
AcDbLine
 10
168.925
 20
60.175
 11
168.925
 21
73.175
  0
LINE
  5
118
100
AcDbEntity
  8
0
  6
CONTINUOUS
 62
    7
370
   25
100
AcDbLine
 10
206.525
 20
73.675
 11
193.525
 21
73.675
  0
LINE
  5
119
100
AcDbEntity
  8
0
  6
CONTINUOUS
 62
    7
370
   25
100
AcDbLine
 10
193.025
 20
73.175
 11
193.025
 21
60.175
  0
LINE
  5
11A
100
AcDbEntity
  8
0
  6
CONTINUOUS
 62
    7
370
   25
100
AcDbLine
 10
193.525
 20
59.675
 11
206.525
 21
59.675
  0
LINE
  5
11B
100
AcDbEntity
  8
0
  6
CONTINUOUS
 62
    7
370
   25
100
AcDbLine
 10
207.025
 20
60.175
 11
207.025
 21
73.175
  0
LINE
  5
11C
100
AcDbEntity
  8
0
  6
CONTINUOUS
 62
    7
370
   25
100
AcDbLine
 10
113.65625
 20
35.575
 11
100.65625
 21
35.575
  0
LINE
  5
11D
100
AcDbEntity
  8
0
  6
CONTINUOUS
 62
    7
370
   25
100
AcDbLine
 10
100.15625
 20
35.075
 11
100.15625
 21
22.075
  0
LINE
  5
11E
100
AcDbEntity
  8
0
  6
CONTINUOUS
 62
    7
370
   25
100
AcDbLine
 10
100.65625
 20
21.575
 11
113.65625
 21
21.575
  0
LINE
  5
11F
100
AcDbEntity
  8
0
  6
CONTINUOUS
 62
    7
370
   25
100
AcDbLine
 10
114.15625
 20
22.075
 11
114.15625
 21
35.075
  0
LINE
  5
120
100
AcDbEntity
  8
0
  6
CONTINUOUS
 62
    7
370
   25
100
AcDbLine
 10
108.89375
 20
54.625
 11
91.13124999999999
 21
54.625
  0
LINE
  5
121
100
AcDbEntity
  8
0
  6
CONTINUOUS
 62
    7
370
   25
100
AcDbLine
 10
90.63124999999999
 20
54.125
 11
90.63124999999999
 21
41.125
  0
LINE
  5
122
100
AcDbEntity
  8
0
  6
CONTINUOUS
 62
    7
370
   25
100
AcDbLine
 10
91.13124999999999
 20
40.625
 11
108.89375
 21
40.625
  0
LINE
  5
123
100
AcDbEntity
  8
0
  6
CONTINUOUS
 62
    7
370
   25
100
AcDbLine
 10
109.39375
 20
41.125
 11
109.39375
 21
54.125
  0
LINE
  5
124
100
AcDbEntity
  8
0
  6
CONTINUOUS
 62
    7
370
   25
100
AcDbLine
 10
173.1875
 20
54.625
 11
160.1875
 21
54.625
  0
LINE
  5
125
100
AcDbEntity
  8
0
  6
CONTINUOUS
 62
    7
370
   25
100
AcDbLine
 10
159.6875
 20
54.125
 11
159.6875
 21
41.125
  0
LINE
  5
126
100
AcDbEntity
  8
0
  6
CONTINUOUS
 62
    7
370
   25
100
AcDbLine
 10
160.1875
 20
40.625
 11
173.1875
 21
40.625
  0
LINE
  5
127
100
AcDbEntity
  8
0
  6
CONTINUOUS
 62
    7
370
   25
100
AcDbLine
 10
173.6875
 20
41.125
 11
173.6875
 21
54.125
  0
LINE
  5
128
100
AcDbEntity
  8
0
  6
CONTINUOUS
 62
    7
370
   25
100
AcDbLine
 10
211.2875
 20
54.625
 11
198.2875
 21
54.625
  0
LINE
  5
129
100
AcDbEntity
  8
0
  6
CONTINUOUS
 62
    7
370
   25
100
AcDbLine
 10
197.7875
 20
54.125
 11
197.7875
 21
41.125
  0
LINE
  5
12A
100
AcDbEntity
  8
0
  6
CONTINUOUS
 62
    7
370
   25
100
AcDbLine
 10
198.2875
 20
40.625
 11
211.2875
 21
40.625
  0
LINE
  5
12B
100
AcDbEntity
  8
0
  6
CONTINUOUS
 62
    7
370
   25
100
AcDbLine
 10
211.7875
 20
41.125
 11
211.7875
 21
54.125
  0
LINE
  5
12C
100
AcDbEntity
  8
0
  6
CONTINUOUS
 62
    7
370
   25
100
AcDbLine
 10
163.6625
 20
35.575
 11
150.6625
 21
35.575
  0
LINE
  5
12D
100
AcDbEntity
  8
0
  6
CONTINUOUS
 62
    7
370
   25
100
AcDbLine
 10
150.1625
 20
35.075
 11
150.1625
 21
22.075
  0
LINE
  5
12E
100
AcDbEntity
  8
0
  6
CONTINUOUS
 62
    7
370
   25
100
AcDbLine
 10
150.6625
 20
21.575
 11
163.6625
 21
21.575
  0
LINE
  5
12F
100
AcDbEntity
  8
0
  6
CONTINUOUS
 62
    7
370
   25
100
AcDbLine
 10
164.1625
 20
22.075
 11
164.1625
 21
35.075
  0
LINE
  5
130
100
AcDbEntity
  8
0
  6
CONTINUOUS
 62
    7
370
   25
100
AcDbLine
 10
107.0125
 20
3.025
 11
107.0125
 21
16.025
  0
LINE
  5
131
100
AcDbEntity
  8
0
  6
CONTINUOUS
 62
    7
370
   25
100
AcDbLine
 10
106.5125
 20
16.525
 11
91.13124999999999
 21
16.525
  0
LINE
  5
132
100
AcDbEntity
  8
0
  6
CONTINUOUS
 62
    7
370
   25
100
AcDbLine
 10
90.63124999999999
 20
16.025
 11
90.63124999999999
 21
3.025
  0
LINE
  5
133
100
AcDbEntity
  8
0
  6
CONTINUOUS
 62
    7
370
   25
100
AcDbLine
 10
91.13124999999999
 20
2.525
 11
106.5125
 21
2.525
  0
LINE
  5
134
100
AcDbEntity
  8
0
  6
CONTINUOUS
 62
    7
370
   25
100
AcDbLine
 10
213.08175
 20
3.825
 11
213.08175
 21
16.825
  0
LINE
  5
135
100
AcDbEntity
  8
0
  6
CONTINUOUS
 62
    7
370
   25
100
AcDbLine
 10
201.81925
 20
17.325
 11
212.58175
 21
17.325
  0
LINE
  5
136
100
AcDbEntity
  8
0
  6
CONTINUOUS
 62
    7
370
   25
100
AcDbLine
 10
200.8394541029
 20
16.525
 11
189.6855458971
 21
16.525
  0
LINE
  5
137
100
AcDbEntity
  8
0
  6
CONTINUOUS
 62
    7
370
   25
100
AcDbLine
 10
177.94325
 20
17.325
 11
188.70575
 21
17.325
  0
LINE
  5
138
100
AcDbEntity
  8
0
  6
CONTINUOUS
 62
    7
370
   25
100
AcDbLine
 10
177.44325
 20
3.825
 11
177.44325
 21
16.825
  0
LINE
  5
139
100
AcDbEntity
  8
0
  6
CONTINUOUS
 62
    7
370
   25
100
AcDbLine
 10
177.94325
 20
3.325
 11
183.0202041029
 21
3.325
  0
LINE
  5
13A
100
AcDbEntity
  8
0
  6
CONTINUOUS
 62
    7
370
   25
100
AcDbLine
 10
184
 20
2.525
 11
204.14375
 21
2.525
  0
LINE
  5
13B
100
AcDbEntity
  8
0
  6
CONTINUOUS
 62
    7
370
   25
100
AcDbLine
 10
205.1235458971
 20
3.325
 11
212.58175
 21
3.325
  0
LINE
  5
13C
100
AcDbEntity
  8
0
  6
CONTINUOUS
 62
    7
370
   25
100
AcDbLine
 10
-11.8
 20
131.825
 11
-11.8
 21
-8
  0
LINE
  5
13D
100
AcDbEntity
  8
0
  6
CONTINUOUS
 62
    7
370
   25
100
AcDbLine
 10
227.85
 20
135.625
 11
-8
 21
135.625
  0
LINE
  5
13E
100
AcDbEntity
  8
0
  6
CONTINUOUS
 62
    7
370
   25
100
AcDbLine
 10
228.4
 20
97.22499999999999
 11
228.4
 21
135.075
  0
LINE
  5
13F
100
AcDbEntity
  8
0
  6
CONTINUOUS
 62
    7
370
   25
100
AcDbLine
 10
220.575
 20
95.925
 11
227.1
 21
95.925
  0
LINE
  5
140
100
AcDbEntity
  8
0
  6
CONTINUOUS
 62
    7
370
   25
100
AcDbLine
 10
218.875
 20
77.8
 11
218.875
 21
94.22499999999999
  0
LINE
  5
141
100
AcDbEntity
  8
0
  6
CONTINUOUS
 62
    7
370
   25
100
AcDbLine
 10
211.05
 20
76.5
 11
217.575
 21
76.5
  0
LINE
  5
142
100
AcDbEntity
  8
0
  6
CONTINUOUS
 62
    7
370
   25
100
AcDbLine
 10
209.35
 20
58.55
 11
209.35
 21
74.8
  0
LINE
  5
143
100
AcDbEntity
  8
0
  6
CONTINUOUS
 62
    7
370
   25
100
AcDbLine
 10
212.8125
 20
56.85
 11
211.05
 21
56.85
  0
LINE
  5
144
100
AcDbEntity
  8
0
  6
CONTINUOUS
 62
    7
370
   25
100
AcDbLine
 10
214.1125
 20
39.5
 11
214.1125
 21
55.55
  0
LINE
  5
145
100
AcDbEntity
  8
0
  6
CONTINUOUS
 62
    7
370
   25
100
AcDbLine
 10
222.3375
 20
37.8
 11
215.8125
 21
37.8
  0
LINE
  5
146
100
AcDbEntity
  8
0
  6
CONTINUOUS
 62
    7
370
   25
100
AcDbLine
 10
223.6375
 20
20.65
 11
223.6375
 21
36.5
  0
LINE
  5
147
100
AcDbEntity
  8
0
  6
CONTINUOUS
 62
    7
370
   25
100
AcDbLine
 10
220.575
 20
19.35
 11
222.3375
 21
19.35
  0
LINE
  5
148
100
AcDbEntity
  8
0
  6
CONTINUOUS
 62
    7
370
   25
100
AcDbLine
 10
218.875
 20
-11.25
 11
218.875
 21
17.65
  0
LINE
  5
149
100
AcDbEntity
  8
0
  6
CONTINUOUS
 62
    7
370
   25
100
AcDbLine
 10
-8
 20
-11.8
 11
218.325
 21
-11.8
  0
LINE
  5
14A
100
AcDbEntity
  8
0
  6
CONTINUOUS
 62
    7
370
   25
100
AcDbLine
 10
91.71825
 20
21.275
 11
91.71825
 21
34.275
  0
LINE
  5
14B
100
AcDbEntity
  8
0
  6
CONTINUOUS
 62
    7
370
   25
100
AcDbLine
 10
92.21825
 20
20.775
 11
98.21825
 21
20.775
  0
LINE
  5
14C
100
AcDbEntity
  8
0
  6
CONTINUOUS
 62
    7
370
   25
100
AcDbLine
 10
98.71825
 20
21.275
 11
98.71825
 21
34.275
  0
LINE
  5
14D
100
AcDbEntity
  8
0
  6
CONTINUOUS
 62
    7
370
   25
100
AcDbLine
 10
92.21825
 20
34.775
 11
98.21825
 21
34.775
  0
LINE
  5
14E
100
AcDbEntity
  8
0
  6
CONTINUOUS
 62
    7
370
   25
100
AcDbLine
 10
174.95
 20
3.825
 11
174.95
 21
16.825
  0
LINE
  5
14F
100
AcDbEntity
  8
0
  6
CONTINUOUS
 62
    7
370
   25
100
AcDbLine
 10
174.45
 20
17.325
 11
168.45
 21
17.325
  0
LINE
  5
150
100
AcDbEntity
  8
0
  6
CONTINUOUS
 62
    7
370
   25
100
AcDbLine
 10
167.4702041029
 20
16.525
 11
138.75625
 21
16.525
  0
LINE
  5
151
100
AcDbEntity
  8
0
  6
CONTINUOUS
 62
    7
370
   25
100
AcDbLine
 10
138.25625
 20
16.025
 11
138.25625
 21
3.025
  0
LINE
  5
152
100
AcDbEntity
  8
0
  6
CONTINUOUS
 62
    7
370
   25
100
AcDbLine
 10
138.75625
 20
2.525
 11
173.1875
 21
2.525
  0
LINE
  5
153
100
AcDbEntity
  8
0
  6
CONTINUOUS
 62
    7
370
   25
100
AcDbLine
 10
174.1672958971
 20
3.325
 11
174.45
 21
3.325
  0
LINE
  5
154
100
AcDbEntity
  8
0
  6
CONTINUOUS
 62
    7
370
   25
100
AcDbLine
 10
47.75
 20
132.175
 11
39.75
 21
132.175
  0
LINE
  5
155
100
AcDbEntity
  8
0
  6
CONTINUOUS
 62
    7
370
   25
100
AcDbLine
 10
39.75
 20
127.975
 11
47.75
 21
127.975
  0
LINE
  5
156
100
AcDbEntity
  8
0
  6
CONTINUOUS
 62
    7
370
   25
100
AcDbLine
 10
157.35
 20
-4.15
 11
149.35
 21
-4.15
  0
LINE
  5
157
100
AcDbEntity
  8
0
  6
CONTINUOUS
 62
    7
370
   25
100
AcDbLine
 10
149.35
 20
-8.35
 11
157.35
 21
-8.35
  0
LINE
  5
158
100
AcDbEntity
  8
0
  6
CONTINUOUS
 62
    7
370
   25
100
AcDbLine
 10
57.75
 20
-4.15
 11
49.75
 21
-4.15
  0
LINE
  5
159
100
AcDbEntity
  8
0
  6
CONTINUOUS
 62
    7
370
   25
100
AcDbLine
 10
49.75
 20
-8.35
 11
57.75
 21
-8.35
  0
LINE
  5
15A
100
AcDbEntity
  8
0
  6
CONTINUOUS
 62
    7
370
   25
100
AcDbLine
 10
176.875
 20
132.175
 11
168.875
 21
132.175
  0
LINE
  5
15B
100
AcDbEntity
  8
0
  6
CONTINUOUS
 62
    7
370
   25
100
AcDbLine
 10
58.875
 20
10.112
 11
58.875
 21
4.112
  0
LINE
  5
15C
100
AcDbEntity
  8
0
  6
CONTINUOUS
 62
    7
370
   25
100
AcDbLine
 10
59.675
 20
3.1322041029
 11
59.675
 21
3.025
  0
LINE
  5
15D
100
AcDbEntity
  8
0
  6
CONTINUOUS
 62
    7
370
   25
100
AcDbLine
 10
60.175
 20
2.525
 11
73.175
 21
2.525
  0
LINE
  5
15E
100
AcDbEntity
  8
0
  6
CONTINUOUS
 62
    7
370
   25
100
AcDbLine
 10
73.675
 20
3.025
 11
73.675
 21
35.075
  0
LINE
  5
15F
100
AcDbEntity
  8
0
  6
CONTINUOUS
 62
    7
370
   25
100
AcDbLine
 10
73.175
 20
35.575
 11
60.175
 21
35.575
  0
LINE
  5
160
100
AcDbEntity
  8
0
  6
CONTINUOUS
 62
    7
370
   25
100
AcDbLine
 10
59.675
 20
35.075
 11
59.675
 21
34.9677958971
  0
LINE
  5
161
100
AcDbEntity
  8
0
  6
CONTINUOUS
 62
    7
370
   25
100
AcDbLine
 10
58.875
 20
33.988
 11
58.875
 21
27.988
  0
LINE
  5
162
100
AcDbEntity
  8
0
  6
CONTINUOUS
 62
    7
370
   25
100
AcDbLine
 10
59.675
 20
27.0082041029
 11
59.675
 21
11.0917958971
  0
LINE
  5
163
100
AcDbEntity
  8
0
  6
CONTINUOUS
 62
    7
370
   25
100
AcDbLine
 10
58.875
 20
48.212
 11
58.875
 21
42.212
  0
LINE
  5
164
100
AcDbEntity
  8
0
  6
CONTINUOUS
 62
    7
370
   25
100
AcDbLine
 10
59.675
 20
41.2322041029
 11
59.675
 21
41.125
  0
LINE
  5
165
100
AcDbEntity
  8
0
  6
CONTINUOUS
 62
    7
370
   25
100
AcDbLine
 10
60.175
 20
40.625
 11
73.175
 21
40.625
  0
LINE
  5
166
100
AcDbEntity
  8
0
  6
CONTINUOUS
 62
    7
370
   25
100
AcDbLine
 10
73.675
 20
41.125
 11
73.675
 21
73.175
  0
LINE
  5
167
100
AcDbEntity
  8
0
  6
CONTINUOUS
 62
    7
370
   25
100
AcDbLine
 10
73.175
 20
73.675
 11
60.175
 21
73.675
  0
LINE
  5
168
100
AcDbEntity
  8
0
  6
CONTINUOUS
 62
    7
370
   25
100
AcDbLine
 10
59.675
 20
73.175
 11
59.675
 21
73.0677958971
  0
LINE
  5
169
100
AcDbEntity
  8
0
  6
CONTINUOUS
 62
    7
370
   25
100
AcDbLine
 10
58.875
 20
72.08799999999999
 11
58.875
 21
66.08799999999999
  0
LINE
  5
16A
100
AcDbEntity
  8
0
  6
CONTINUOUS
 62
    7
370
   25
100
AcDbLine
 10
59.675
 20
65.1082041029
 11
59.675
 21
49.1917958971
  0
LINE
  5
16B
100
AcDbEntity
  8
0
  6
CONTINUOUS
 62
    7
370
   25
100
AcDbLine
 10
168.875
 20
127.975
 11
176.875
 21
127.975
  0
ARC
  5
16C
100
AcDbEntity
  8
0
  6
CONTINUOUS
 62
    7
370
   25
100
AcDbCircle
 10
122.09425
 20
21.275
 40
0.5
100
AcDbArc
 50
270
 51
0
  0
ARC
  5
16D
100
AcDbEntity
  8
0
  6
CONTINUOUS
 62
    7
370
   25
100
AcDbCircle
 10
122.09425
 20
34.275
 40
0.4999999999999929
100
AcDbArc
 50
0
 51
90
  0
ARC
  5
16E
100
AcDbEntity
  8
0
  6
CONTINUOUS
 62
    7
370
   25
100
AcDbCircle
 10
116.09425
 20
34.275
 40
0.5
100
AcDbArc
 50
90
 51
180
  0
ARC
  5
16F
100
AcDbEntity
  8
0
  6
CONTINUOUS
 62
    7
370
   25
100
AcDbCircle
 10
116.09425
 20
21.275
 40
0.5000000000000036
100
AcDbArc
 50
180
 51
270
  0
ARC
  5
170
100
AcDbEntity
  8
0
  6
CONTINUOUS
 62
    7
370
   25
100
AcDbCircle
 10
27.988
 20
16.825
 40
0.4999999999999964
100
AcDbArc
 50
90
 51
168.4630409672
  0
ARC
  5
171
100
AcDbEntity
  8
0
  6
CONTINUOUS
 62
    7
370
   25
100
AcDbCircle
 10
27.0082041029
 20
17.025
 40
0.4999999999999858
100
AcDbArc
 50
270
 51
348.4630409672
  0
ARC
  5
172
100
AcDbEntity
  8
0
  6
CONTINUOUS
 62
    7
370
   25
100
AcDbCircle
 10
11.0917958971
 20
17.025
 40
0.4999999999999791
100
AcDbArc
 50
191.5369590328
 51
270
  0
ARC
  5
173
100
AcDbEntity
  8
0
  6
CONTINUOUS
 62
    7
370
   25
100
AcDbCircle
 10
10.112
 20
16.825
 40
0.499999999999993
100
AcDbArc
 50
11.5369590328
 51
90
  0
ARC
  5
174
100
AcDbEntity
  8
0
  6
CONTINUOUS
 62
    7
370
   25
100
AcDbCircle
 10
4.112
 20
16.825
 40
0.5000000000000294
100
AcDbArc
 50
90
 51
168.4630409672
  0
ARC
  5
175
100
AcDbEntity
  8
0
  6
CONTINUOUS
 62
    7
370
   25
100
AcDbCircle
 10
3.1322041029
 20
17.025
 40
0.4999999999999789
100
AcDbArc
 50
270
 51
348.4630409672
  0
ARC
  5
176
100
AcDbEntity
  8
0
  6
CONTINUOUS
 62
    7
370
   25
100
AcDbCircle
 10
3.025
 20
16.025
 40
0.5000000000000213
100
AcDbArc
 50
90
 51
180
  0
ARC
  5
177
100
AcDbEntity
  8
0
  6
CONTINUOUS
 62
    7
370
   25
100
AcDbCircle
 10
3.025
 20
3.025
 40
0.500000000000012
100
AcDbArc
 50
180
 51
270
  0
ARC
  5
178
100
AcDbEntity
  8
0
  6
CONTINUOUS
 62
    7
370
   25
100
AcDbCircle
 10
35.075
 20
3.025
 40
0.5000000000000071
100
AcDbArc
 50
270
 51
0
  0
ARC
  5
179
100
AcDbEntity
  8
0
  6
CONTINUOUS
 62
    7
370
   25
100
AcDbCircle
 10
35.075
 20
16.025
 40
0.5000000000000142
100
AcDbArc
 50
0
 51
90
  0
ARC
  5
17A
100
AcDbEntity
  8
0
  6
CONTINUOUS
 62
    7
370
   25
100
AcDbCircle
 10
34.9677958971
 20
17.025
 40
0.4999999999999751
100
AcDbArc
 50
191.5369590328
 51
270
  0
ARC
  5
17B
100
AcDbEntity
  8
0
  6
CONTINUOUS
 62
    7
370
   25
100
AcDbCircle
 10
33.988
 20
16.825
 40
0.4999999999999787
100
AcDbArc
 50
11.5369590328
 51
90
  0
ARC
  5
17C
100
AcDbEntity
  8
0
  6
CONTINUOUS
 62
    7
370
   25
100
AcDbCircle
 10
220.8125
 20
35.075
 40
0.5000000000000284
100
AcDbArc
 50
0
 51
90
  0
ARC
  5
17D
100
AcDbEntity
  8
0
  6
CONTINUOUS
 62
    7
370
   25
100
AcDbCircle
 10
207.8125
 20
35.075
 40
0.4999999999999716
100
AcDbArc
 50
90
 51
180
  0
ARC
  5
17E
100
AcDbEntity
  8
0
  6
CONTINUOUS
 62
    7
370
   25
100
AcDbCircle
 10
207.8125
 20
22.075
 40
0.4999999999999751
100
AcDbArc
 50
180
 51
270
  0
ARC
  5
17F
100
AcDbEntity
  8
0
  6
CONTINUOUS
 62
    7
370
   25
100
AcDbCircle
 10
220.8125
 20
22.075
 40
0.500000000000032
100
AcDbArc
 50
270
 51
360
  0
ARC
  5
180
100
AcDbEntity
  8
0
  6
CONTINUOUS
 62
    7
370
   25
100
AcDbCircle
 10
132.70625
 20
3.025
 40
0.5000000000000289
100
AcDbArc
 50
270
 51
360
  0
ARC
  5
181
100
AcDbEntity
  8
0
  6
CONTINUOUS
 62
    7
370
   25
100
AcDbCircle
 10
132.70625
 20
16.025
 40
0.5000000000000284
100
AcDbArc
 50
0
 51
90
  0
ARC
  5
182
100
AcDbEntity
  8
0
  6
CONTINUOUS
 62
    7
370
   25
100
AcDbCircle
 10
114.94375
 20
16.025
 40
0.5000000000000142
100
AcDbArc
 50
90
 51
180
  0
ARC
  5
183
100
AcDbEntity
  8
0
  6
CONTINUOUS
 62
    7
370
   25
100
AcDbCircle
 10
114.94375
 20
3.025
 40
0.5000000000000142
100
AcDbArc
 50
180
 51
270
  0
ARC
  5
184
100
AcDbEntity
  8
0
  6
CONTINUOUS
 62
    7
370
   25
100
AcDbCircle
 10
201.7625
 20
35.075
 40
0.5000000000000284
100
AcDbArc
 50
0
 51
90
  0
ARC
  5
185
100
AcDbEntity
  8
0
  6
CONTINUOUS
 62
    7
370
   25
100
AcDbCircle
 10
188.7625
 20
35.075
 40
0.4999999999999716
100
AcDbArc
 50
90
 51
180
  0
ARC
  5
186
100
AcDbEntity
  8
0
  6
CONTINUOUS
 62
    7
370
   25
100
AcDbCircle
 10
188.7625
 20
22.075
 40
0.5
100
AcDbArc
 50
180
 51
270
  0
ARC
  5
187
100
AcDbEntity
  8
0
  6
CONTINUOUS
 62
    7
370
   25
100
AcDbCircle
 10
201.7625
 20
22.075
 40
0.500000000000032
100
AcDbArc
 50
270
 51
360
  0
ARC
  5
188
100
AcDbEntity
  8
0
  6
CONTINUOUS
 62
    7
370
   25
100
AcDbCircle
 10
144.6125
 20
35.075
 40
0.5000000000000284
100
AcDbArc
 50
0
 51
90
  0
ARC
  5
189
100
AcDbEntity
  8
0
  6
CONTINUOUS
 62
    7
370
   25
100
AcDbCircle
 10
131.6125
 20
35.075
 40
0.4999999999999716
100
AcDbArc
 50
90
 51
180
  0
ARC
  5
18A
100
AcDbEntity
  8
0
  6
CONTINUOUS
 62
    7
370
   25
100
AcDbCircle
 10
131.6125
 20
22.075
 40
0.4999999999999751
100
AcDbArc
 50
180
 51
270
  0
ARC
  5
18B
100
AcDbEntity
  8
0
  6
CONTINUOUS
 62
    7
370
   25
100
AcDbCircle
 10
144.6125
 20
22.075
 40
0.500000000000032
100
AcDbArc
 50
270
 51
360
  0
ARC
  5
18C
100
AcDbEntity
  8
0
  6
CONTINUOUS
 62
    7
370
   25
100
AcDbCircle
 10
192.2375
 20
54.125
 40
0.4999999999999787
100
AcDbArc
 50
360
 51
90
  0
ARC
  5
18D
100
AcDbEntity
  8
0
  6
CONTINUOUS
 62
    7
370
   25
100
AcDbCircle
 10
179.2375
 20
54.125
 40
0.5
100
AcDbArc
 50
90
 51
180
  0
ARC
  5
18E
100
AcDbEntity
  8
0
  6
CONTINUOUS
 62
    7
370
   25
100
AcDbCircle
 10
179.2375
 20
41.125
 40
0.5
100
AcDbArc
 50
180
 51
270
  0
ARC
  5
18F
100
AcDbEntity
  8
0
  6
CONTINUOUS
 62
    7
370
   25
100
AcDbCircle
 10
192.2375
 20
41.125
 40
0.5
100
AcDbArc
 50
270
 51
0
  0
ARC
  5
190
100
AcDbEntity
  8
0
  6
CONTINUOUS
 62
    7
370
   25
100
AcDbCircle
 10
154.1375
 20
54.125
 40
0.4999999999999787
100
AcDbArc
 50
360
 51
90
  0
ARC
  5
191
100
AcDbEntity
  8
0
  6
CONTINUOUS
 62
    7
370
   25
100
AcDbCircle
 10
141.1375
 20
54.125
 40
0.4999999999999858
100
AcDbArc
 50
90
 51
180
  0
ARC
  5
192
100
AcDbEntity
  8
0
  6
CONTINUOUS
 62
    7
370
   25
100
AcDbCircle
 10
141.1375
 20
41.125
 40
0.4999999999999787
100
AcDbArc
 50
180
 51
270
  0
ARC
  5
193
100
AcDbEntity
  8
0
  6
CONTINUOUS
 62
    7
370
   25
100
AcDbCircle
 10
154.1375
 20
41.125
 40
0.4999999999999787
100
AcDbArc
 50
270
 51
0
  0
ARC
  5
194
100
AcDbEntity
  8
0
  6
CONTINUOUS
 62
    7
370
   25
100
AcDbCircle
 10
135.0875
 20
54.125
 40
0.4999999999999787
100
AcDbArc
 50
360
 51
90
  0
ARC
  5
195
100
AcDbEntity
  8
0
  6
CONTINUOUS
 62
    7
370
   25
100
AcDbCircle
 10
122.0875
 20
54.125
 40
0.5000000000000355
100
AcDbArc
 50
90
 51
180
  0
ARC
  5
196
100
AcDbEntity
  8
0
  6
CONTINUOUS
 62
    7
370
   25
100
AcDbCircle
 10
122.0875
 20
41.125
 40
0.5000000000000355
100
AcDbArc
 50
180
 51
270
  0
ARC
  5
197
100
AcDbEntity
  8
0
  6
CONTINUOUS
 62
    7
370
   25
100
AcDbCircle
 10
135.0875
 20
41.125
 40
0.4999999999999787
100
AcDbArc
 50
270
 51
0
  0
ARC
  5
198
100
AcDbEntity
  8
0
  6
CONTINUOUS
 62
    7
370
   25
100
AcDbCircle
 10
182.7125
 20
35.075
 40
0.5000000000000284
100
AcDbArc
 50
0
 51
90
  0
ARC
  5
199
100
AcDbEntity
  8
0
  6
CONTINUOUS
 62
    7
370
   25
100
AcDbCircle
 10
169.7125
 20
35.075
 40
0.4999999999999716
100
AcDbArc
 50
90
 51
180
  0
ARC
  5
19A
100
AcDbEntity
  8
0
  6
CONTINUOUS
 62
    7
370
   25
100
AcDbCircle
 10
169.7125
 20
22.075
 40
0.4999999999999751
100
AcDbArc
 50
180
 51
270
  0
ARC
  5
19B
100
AcDbEntity
  8
0
  6
CONTINUOUS
 62
    7
370
   25
100
AcDbCircle
 10
182.7125
 20
22.075
 40
0.500000000000032
100
AcDbArc
 50
270
 51
360
  0
ARC
  5
19C
100
AcDbEntity
  8
0
  6
CONTINUOUS
 62
    7
370
   25
100
AcDbCircle
 10
187.475
 20
73.175
 40
0.5000000000000568
100
AcDbArc
 50
0
 51
90
  0
ARC
  5
19D
100
AcDbEntity
  8
0
  6
CONTINUOUS
 62
    7
370
   25
100
AcDbCircle
 10
174.475
 20
73.175
 40
0.5000000000000568
100
AcDbArc
 50
90
 51
180
  0
ARC
  5
19E
100
AcDbEntity
  8
0
  6
CONTINUOUS
 62
    7
370
   25
100
AcDbCircle
 10
174.475
 20
60.175
 40
0.5000000000000284
100
AcDbArc
 50
180
 51
270
  0
ARC
  5
19F
100
AcDbEntity
  8
0
  6
CONTINUOUS
 62
    7
370
   25
100
AcDbCircle
 10
187.475
 20
60.175
 40
0.5000000000000284
100
AcDbArc
 50
270
 51
360
  0
ARC
  5
1A0
100
AcDbEntity
  8
0
  6
CONTINUOUS
 62
    7
370
   25
100
AcDbCircle
 10
149.375
 20
73.175
 40
0.5000000000000568
100
AcDbArc
 50
0
 51
90
  0
ARC
  5
1A1
100
AcDbEntity
  8
0
  6
CONTINUOUS
 62
    7
370
   25
100
AcDbCircle
 10
136.375
 20
73.175
 40
0.5000000000000568
100
AcDbArc
 50
90
 51
180
  0
ARC
  5
1A2
100
AcDbEntity
  8
0
  6
CONTINUOUS
 62
    7
370
   25
100
AcDbCircle
 10
136.375
 20
60.175
 40
0.5000000000000568
100
AcDbArc
 50
180
 51
270
  0
ARC
  5
1A3
100
AcDbEntity
  8
0
  6
CONTINUOUS
 62
    7
370
   25
100
AcDbCircle
 10
149.375
 20
60.175
 40
0.5000000000000284
100
AcDbArc
 50
270
 51
360
  0
ARC
  5
1A4
100
AcDbEntity
  8
0
  6
CONTINUOUS
 62
    7
370
   25
100
AcDbCircle
 10
106.5125
 20
73.175
 40
0.5000000000000568
100
AcDbArc
 50
0
 51
90
  0
ARC
  5
1A5
100
AcDbEntity
  8
0
  6
CONTINUOUS
 62
    7
370
   25
100
AcDbCircle
 10
93.5125
 20
73.175
 40
0.5000000000000284
100
AcDbArc
 50
90
 51
180
  0
ARC
  5
1A6
100
AcDbEntity
  8
0
  6
CONTINUOUS
 62
    7
370
   25
100
AcDbCircle
 10
93.5125
 20
60.175
 40
0.5
100
AcDbArc
 50
180
 51
270
  0
ARC
  5
1A7
100
AcDbEntity
  8
0
  6
CONTINUOUS
 62
    7
370
   25
100
AcDbCircle
 10
106.5125
 20
60.175
 40
0.5000000000000284
100
AcDbArc
 50
270
 51
360
  0
ARC
  5
1A8
100
AcDbEntity
  8
0
  6
CONTINUOUS
 62
    7
370
   25
100
AcDbCircle
 10
197
 20
92.22499999999999
 40
0.5000000000000426
100
AcDbArc
 50
0
 51
90
  0
ARC
  5
1A9
100
AcDbEntity
  8
0
  6
CONTINUOUS
 62
    7
370
   25
100
AcDbCircle
 10
184
 20
92.22499999999999
 40
0.5
100
AcDbArc
 50
90
 51
180
  0
ARC
  5
1AA
100
AcDbEntity
  8
0
  6
CONTINUOUS
 62
    7
370
   25
100
AcDbCircle
 10
184
 20
79.22499999999999
 40
0.4999999999999716
100
AcDbArc
 50
180
 51
270
  0
ARC
  5
1AB
100
AcDbEntity
  8
0
  6
CONTINUOUS
 62
    7
370
   25
100
AcDbCircle
 10
197
 20
79.22499999999999
 40
0.5000000000000284
100
AcDbArc
 50
270
 51
360
  0
ARC
  5
1AC
100
AcDbEntity
  8
0
  6
CONTINUOUS
 62
    7
370
   25
100
AcDbCircle
 10
158.9
 20
92.22499999999999
 40
0.5000000000000426
100
AcDbArc
 50
0
 51
90
  0
ARC
  5
1AD
100
AcDbEntity
  8
0
  6
CONTINUOUS
 62
    7
370
   25
100
AcDbCircle
 10
145.9
 20
92.22499999999999
 40
0.5
100
AcDbArc
 50
90
 51
180
  0
ARC
  5
1AE
100
AcDbEntity
  8
0
  6
CONTINUOUS
 62
    7
370
   25
100
AcDbCircle
 10
145.9
 20
79.22499999999999
 40
0.4999999999999716
100
AcDbArc
 50
180
 51
270
  0
ARC
  5
1AF
100
AcDbEntity
  8
0
  6
CONTINUOUS
 62
    7
370
   25
100
AcDbCircle
 10
158.9
 20
79.22499999999999
 40
0.5000000000000284
100
AcDbArc
 50
270
 51
360
  0
ARC
  5
1B0
100
AcDbEntity
  8
0
  6
CONTINUOUS
 62
    7
370
   25
100
AcDbCircle
 10
120.8
 20
92.22499999999999
 40
0.5000000000000284
100
AcDbArc
 50
0
 51
90
  0
ARC
  5
1B1
100
AcDbEntity
  8
0
  6
CONTINUOUS
 62
    7
370
   25
100
AcDbCircle
 10
107.8
 20
92.22499999999999
 40
0.5000000000000426
100
AcDbArc
 50
90
 51
180
  0
ARC
  5
1B2
100
AcDbEntity
  8
0
  6
CONTINUOUS
 62
    7
370
   25
100
AcDbCircle
 10
107.8
 20
79.22499999999999
 40
0.5000000000000142
100
AcDbArc
 50
180
 51
270
  0
ARC
  5
1B3
100
AcDbEntity
  8
0
  6
CONTINUOUS
 62
    7
370
   25
100
AcDbCircle
 10
120.8
 20
79.22499999999999
 40
0.5
100
AcDbArc
 50
270
 51
0
  0
ARC
  5
1B4
100
AcDbEntity
  8
0
  6
CONTINUOUS
 62
    7
370
   25
100
AcDbCircle
 10
54.125
 20
16.025
 40
0.4999999999999822
100
AcDbArc
 50
360
 51
90
  0
ARC
  5
1B5
100
AcDbEntity
  8
0
  6
CONTINUOUS
 62
    7
370
   25
100
AcDbCircle
 10
41.125
 20
16.025
 40
0.5000000000000213
100
AcDbArc
 50
90
 51
180
  0
ARC
  5
1B6
100
AcDbEntity
  8
0
  6
CONTINUOUS
 62
    7
370
   25
100
AcDbCircle
 10
41.125
 20
3.025
 40
0.5000000000000284
100
AcDbArc
 50
180
 51
270
  0
ARC
  5
1B7
100
AcDbEntity
  8
0
  6
CONTINUOUS
 62
    7
370
   25
100
AcDbCircle
 10
54.125
 20
3.025
 40
0.4999999999999933
100
AcDbArc
 50
270
 51
0
  0
ARC
  5
1B8
100
AcDbEntity
  8
0
  6
CONTINUOUS
 62
    7
370
   25
100
AcDbCircle
 10
35.075
 20
35.075
 40
0.5000000000000213
100
AcDbArc
 50
0
 51
90
  0
ARC
  5
1B9
100
AcDbEntity
  8
0
  6
CONTINUOUS
 62
    7
370
   25
100
AcDbCircle
 10
22.075
 20
35.075
 40
0.5000000000000142
100
AcDbArc
 50
90
 51
180
  0
ARC
  5
1BA
100
AcDbEntity
  8
0
  6
CONTINUOUS
 62
    7
370
   25
100
AcDbCircle
 10
22.075
 20
22.075
 40
0.5000000000000107
100
AcDbArc
 50
180
 51
270
  0
ARC
  5
1BB
100
AcDbEntity
  8
0
  6
CONTINUOUS
 62
    7
370
   25
100
AcDbCircle
 10
35.075
 20
22.075
 40
0.5000000000000213
100
AcDbArc
 50
270
 51
360
  0
ARC
  5
1BC
100
AcDbEntity
  8
0
  6
CONTINUOUS
 62
    7
370
   25
100
AcDbCircle
 10
35.075
 20
54.125
 40
0.5000000000000071
100
AcDbArc
 50
0
 51
90
  0
ARC
  5
1BD
100
AcDbEntity
  8
0
  6
CONTINUOUS
 62
    7
370
   25
100
AcDbCircle
 10
22.075
 20
54.125
 40
0.4999999999999858
100
AcDbArc
 50
90
 51
180
  0
ARC
  5
1BE
100
AcDbEntity
  8
0
  6
CONTINUOUS
 62
    7
370
   25
100
AcDbCircle
 10
22.075
 20
41.125
 40
0.5
100
AcDbArc
 50
180
 51
270
  0
ARC
  5
1BF
100
AcDbEntity
  8
0
  6
CONTINUOUS
 62
    7
370
   25
100
AcDbCircle
 10
35.075
 20
41.125
 40
0.5000000000000071
100
AcDbArc
 50
270
 51
0
  0
ARC
  5
1C0
100
AcDbEntity
  8
0
  6
CONTINUOUS
 62
    7
370
   25
100
AcDbCircle
 10
35.075
 20
73.175
 40
0.5000000000000284
100
AcDbArc
 50
0
 51
90
  0
ARC
  5
1C1
100
AcDbEntity
  8
0
  6
CONTINUOUS
 62
    7
370
   25
100
AcDbCircle
 10
22.075
 20
73.175
 40
0.5000000000000284
100
AcDbArc
 50
90
 51
180
  0
ARC
  5
1C2
100
AcDbEntity
  8
0
  6
CONTINUOUS
 62
    7
370
   25
100
AcDbCircle
 10
22.075
 20
60.175
 40
0.4999999999999858
100
AcDbArc
 50
180
 51
270
  0
ARC
  5
1C3
100
AcDbEntity
  8
0
  6
CONTINUOUS
 62
    7
370
   25
100
AcDbCircle
 10
35.075
 20
60.175
 40
0.4999999999999858
100
AcDbArc
 50
270
 51
0
  0
ARC
  5
1C4
100
AcDbEntity
  8
0
  6
CONTINUOUS
 62
    7
370
   25
100
AcDbCircle
 10
73.175
 20
92.22499999999999
 40
0.5000000000000284
100
AcDbArc
 50
0
 51
90
  0
ARC
  5
1C5
100
AcDbEntity
  8
0
  6
CONTINUOUS
 62
    7
370
   25
100
AcDbCircle
 10
60.175
 20
92.22499999999999
 40
0.5000000000000355
100
AcDbArc
 50
90
 51
180
  0
ARC
  5
1C6
100
AcDbEntity
  8
0
  6
CONTINUOUS
 62
    7
370
   25
100
AcDbCircle
 10
60.175
 20
79.22499999999999
 40
0.5000000000000142
100
AcDbArc
 50
180
 51
270
  0
ARC
  5
1C7
100
AcDbEntity
  8
0
  6
CONTINUOUS
 62
    7
370
   25
100
AcDbCircle
 10
73.175
 20
79.22499999999999
 40
0.5
100
AcDbArc
 50
270
 51
0
  0
ARC
  5
1C8
100
AcDbEntity
  8
0
  6
CONTINUOUS
 62
    7
370
   25
100
AcDbCircle
 10
35.075
 20
92.22499999999999
 40
0.5000000000000284
100
AcDbArc
 50
0
 51
90
  0
ARC
  5
1C9
100
AcDbEntity
  8
0
  6
CONTINUOUS
 62
    7
370
   25
100
AcDbCircle
 10
22.075
 20
92.22499999999999
 40
0.5000000000000284
100
AcDbArc
 50
90
 51
180
  0
ARC
  5
1CA
100
AcDbEntity
  8
0
  6
CONTINUOUS
 62
    7
370
   25
100
AcDbCircle
 10
22.075
 20
79.22499999999999
 40
0.5000000000000142
100
AcDbArc
 50
180
 51
270
  0
ARC
  5
1CB
100
AcDbEntity
  8
0
  6
CONTINUOUS
 62
    7
370
   25
100
AcDbCircle
 10
35.075
 20
79.22499999999999
 40
0.5000000000000142
100
AcDbArc
 50
270
 51
0
  0
ARC
  5
1CC
100
AcDbEntity
  8
0
  6
CONTINUOUS
 62
    7
370
   25
100
AcDbCircle
 10
225.575
 20
120.8
 40
0.5000000000000284
100
AcDbArc
 50
0
 51
90
  0
ARC
  5
1CD
100
AcDbEntity
  8
0
  6
CONTINUOUS
 62
    7
370
   25
100
AcDbCircle
 10
212.575
 20
120.8
 40
0.5
100
AcDbArc
 50
90
 51
180
  0
ARC
  5
1CE
100
AcDbEntity
  8
0
  6
CONTINUOUS
 62
    7
370
   25
100
AcDbCircle
 10
212.575
 20
107.8
 40
0.4999999999999716
100
AcDbArc
 50
180
 51
270
  0
ARC
  5
1CF
100
AcDbEntity
  8
0
  6
CONTINUOUS
 62
    7
370
   25
100
AcDbCircle
 10
225.575
 20
107.8
 40
0.5
100
AcDbArc
 50
270
 51
0
  0
ARC
  5
1D0
100
AcDbEntity
  8
0
  6
CONTINUOUS
 62
    7
370
   25
100
AcDbCircle
 10
182.7125
 20
120.8
 40
0.5000000000000568
100
AcDbArc
 50
0
 51
90
  0
ARC
  5
1D1
100
AcDbEntity
  8
0
  6
CONTINUOUS
 62
    7
370
   25
100
AcDbCircle
 10
169.7125
 20
120.8
 40
0.5000000000000568
100
AcDbArc
 50
90
 51
180
  0
ARC
  5
1D2
100
AcDbEntity
  8
0
  6
CONTINUOUS
 62
    7
370
   25
100
AcDbCircle
 10
169.7125
 20
107.8
 40
0.5000000000000284
100
AcDbArc
 50
180
 51
270
  0
ARC
  5
1D3
100
AcDbEntity
  8
0
  6
CONTINUOUS
 62
    7
370
   25
100
AcDbCircle
 10
182.7125
 20
107.8
 40
0.5000000000000426
100
AcDbArc
 50
270
 51
360
  0
ARC
  5
1D4
100
AcDbEntity
  8
0
  6
CONTINUOUS
 62
    7
370
   25
100
AcDbCircle
 10
144.6125
 20
120.8
 40
0.5000000000000568
100
AcDbArc
 50
0
 51
90
  0
ARC
  5
1D5
100
AcDbEntity
  8
0
  6
CONTINUOUS
 62
    7
370
   25
100
AcDbCircle
 10
131.6125
 20
120.8
 40
0.5000000000000568
100
AcDbArc
 50
90
 51
180
  0
ARC
  5
1D6
100
AcDbEntity
  8
0
  6
CONTINUOUS
 62
    7
370
   25
100
AcDbCircle
 10
131.6125
 20
107.8
 40
0.5000000000000284
100
AcDbArc
 50
180
 51
270
  0
ARC
  5
1D7
100
AcDbEntity
  8
0
  6
CONTINUOUS
 62
    7
370
   25
100
AcDbCircle
 10
144.6125
 20
107.8
 40
0.5000000000000426
100
AcDbArc
 50
270
 51
360
  0
ARC
  5
1D8
100
AcDbEntity
  8
0
  6
CONTINUOUS
 62
    7
370
   25
100
AcDbCircle
 10
101.75
 20
120.8
 40
0.5000000000000711
100
AcDbArc
 50
0
 51
90
  0
ARC
  5
1D9
100
AcDbEntity
  8
0
  6
CONTINUOUS
 62
    7
370
   25
100
AcDbCircle
 10
88.75
 20
120.8
 40
0.5000000000000426
100
AcDbArc
 50
90
 51
180
  0
ARC
  5
1DA
100
AcDbEntity
  8
0
  6
CONTINUOUS
 62
    7
370
   25
100
AcDbCircle
 10
88.75
 20
107.8
 40
0.4999999999999858
100
AcDbArc
 50
180
 51
270
  0
ARC
  5
1DB
100
AcDbEntity
  8
0
  6
CONTINUOUS
 62
    7
370
   25
100
AcDbCircle
 10
101.75
 20
107.8
 40
0.5000000000000142
100
AcDbArc
 50
270
 51
360
  0
ARC
  5
1DC
100
AcDbEntity
  8
0
  6
CONTINUOUS
 62
    7
370
   25
100
AcDbCircle
 10
54.125
 20
120.8
 40
0.5000000000000284
100
AcDbArc
 50
0
 51
90
  0
ARC
  5
1DD
100
AcDbEntity
  8
0
  6
CONTINUOUS
 62
    7
370
   25
100
AcDbCircle
 10
41.125
 20
120.8
 40
0.5000000000000568
100
AcDbArc
 50
90
 51
180
  0
ARC
  5
1DE
100
AcDbEntity
  8
0
  6
CONTINUOUS
 62
    7
370
   25
100
AcDbCircle
 10
41.125
 20
107.8
 40
0.5
100
AcDbArc
 50
180
 51
270
  0
ARC
  5
1DF
100
AcDbEntity
  8
0
  6
CONTINUOUS
 62
    7
370
   25
100
AcDbCircle
 10
54.125
 20
107.8
 40
0.4999999999999858
100
AcDbArc
 50
270
 51
0
  0
ARC
  5
1E0
100
AcDbEntity
  8
0
  6
CONTINUOUS
 62
    7
370
   25
100
AcDbCircle
 10
16.025
 20
120.8
 40
0.5000000000000284
100
AcDbArc
 50
0
 51
90
  0
ARC
  5
1E1
100
AcDbEntity
  8
0
  6
CONTINUOUS
 62
    7
370
   25
100
AcDbCircle
 10
3.025
 20
120.8
 40
0.5000000000000426
100
AcDbArc
 50
90
 51
180
  0
ARC
  5
1E2
100
AcDbEntity
  8
0
  6
CONTINUOUS
 62
    7
370
   25
100
AcDbCircle
 10
3.025
 20
107.8
 40
0.4999999999999858
100
AcDbArc
 50
180
 51
270
  0
ARC
  5
1E3
100
AcDbEntity
  8
0
  6
CONTINUOUS
 62
    7
370
   25
100
AcDbCircle
 10
16.025
 20
107.8
 40
0.4999999999999822
100
AcDbArc
 50
270
 51
0
  0
ARC
  5
1E4
100
AcDbEntity
  8
0
  6
CONTINUOUS
 62
    7
370
   25
100
AcDbCircle
 10
35.075
 20
120.8
 40
0.5000000000000426
100
AcDbArc
 50
0
 51
90
  0
ARC
  5
1E5
100
AcDbEntity
  8
0
  6
CONTINUOUS
 62
    7
370
   25
100
AcDbCircle
 10
22.075
 20
120.8
 40
0.5000000000000426
100
AcDbArc
 50
90
 51
180
  0
ARC
  5
1E6
100
AcDbEntity
  8
0
  6
CONTINUOUS
 62
    7
370
   25
100
AcDbCircle
 10
22.075
 20
107.8
 40
0.5000000000000036
100
AcDbArc
 50
180
 51
270
  0
ARC
  5
1E7
100
AcDbEntity
  8
0
  6
CONTINUOUS
 62
    7
370
   25
100
AcDbCircle
 10
35.075
 20
107.8
 40
0.5000000000000142
100
AcDbArc
 50
270
 51
360
  0
ARC
  5
1E8
100
AcDbEntity
  8
0
  6
CONTINUOUS
 62
    7
370
   25
100
AcDbCircle
 10
73.175
 20
120.8
 40
0.5000000000000568
100
AcDbArc
 50
0
 51
90
  0
ARC
  5
1E9
100
AcDbEntity
  8
0
  6
CONTINUOUS
 62
    7
370
   25
100
AcDbCircle
 10
60.175
 20
120.8
 40
0.5000000000000426
100
AcDbArc
 50
90
 51
180
  0
ARC
  5
1EA
100
AcDbEntity
  8
0
  6
CONTINUOUS
 62
    7
370
   25
100
AcDbCircle
 10
60.175
 20
107.8
 40
0.5
100
AcDbArc
 50
180
 51
270
  0
ARC
  5
1EB
100
AcDbEntity
  8
0
  6
CONTINUOUS
 62
    7
370
   25
100
AcDbCircle
 10
73.175
 20
107.8
 40
0.5000000000000142
100
AcDbArc
 50
270
 51
360
  0
ARC
  5
1EC
100
AcDbEntity
  8
0
  6
CONTINUOUS
 62
    7
370
   25
100
AcDbCircle
 10
125.5625
 20
120.8
 40
0.5000000000000426
100
AcDbArc
 50
0
 51
90
  0
ARC
  5
1ED
100
AcDbEntity
  8
0
  6
CONTINUOUS
 62
    7
370
   25
100
AcDbCircle
 10
112.5625
 20
120.8
 40
0.5000000000000284
100
AcDbArc
 50
90
 51
180
  0
ARC
  5
1EE
100
AcDbEntity
  8
0
  6
CONTINUOUS
 62
    7
370
   25
100
AcDbCircle
 10
112.5625
 20
107.8
 40
0.4999999999999858
100
AcDbArc
 50
180
 51
270
  0
ARC
  5
1EF
100
AcDbEntity
  8
0
  6
CONTINUOUS
 62
    7
370
   25
100
AcDbCircle
 10
125.5625
 20
107.8
 40
0.5000000000000426
100
AcDbArc
 50
270
 51
360
  0
ARC
  5
1F0
100
AcDbEntity
  8
0
  6
CONTINUOUS
 62
    7
370
   25
100
AcDbCircle
 10
163.6625
 20
120.8
 40
0.5000000000000568
100
AcDbArc
 50
0
 51
90
  0
ARC
  5
1F1
100
AcDbEntity
  8
0
  6
CONTINUOUS
 62
    7
370
   25
100
AcDbCircle
 10
150.6625
 20
120.8
 40
0.5000000000000568
100
AcDbArc
 50
90
 51
180
  0
ARC
  5
1F2
100
AcDbEntity
  8
0
  6
CONTINUOUS
 62
    7
370
   25
100
AcDbCircle
 10
150.6625
 20
107.8
 40
0.5000000000000284
100
AcDbArc
 50
180
 51
270
  0
ARC
  5
1F3
100
AcDbEntity
  8
0
  6
CONTINUOUS
 62
    7
370
   25
100
AcDbCircle
 10
163.6625
 20
107.8
 40
0.5000000000000426
100
AcDbArc
 50
270
 51
360
  0
ARC
  5
1F4
100
AcDbEntity
  8
0
  6
CONTINUOUS
 62
    7
370
   25
100
AcDbCircle
 10
206.525
 20
120.8
 40
0.5
100
AcDbArc
 50
0
 51
90
  0
ARC
  5
1F5
100
AcDbEntity
  8
0
  6
CONTINUOUS
 62
    7
370
   25
100
AcDbCircle
 10
193.525
 20
120.8
 40
0.5
100
AcDbArc
 50
90
 51
180
  0
ARC
  5
1F6
100
AcDbEntity
  8
0
  6
CONTINUOUS
 62
    7
370
   25
100
AcDbCircle
 10
193.525
 20
107.8
 40
0.4999999999999716
100
AcDbArc
 50
180
 51
270
  0
ARC
  5
1F7
100
AcDbEntity
  8
0
  6
CONTINUOUS
 62
    7
370
   25
100
AcDbCircle
 10
206.525
 20
107.8
 40
0.5
100
AcDbArc
 50
270
 51
0
  0
ARC
  5
1F8
100
AcDbEntity
  8
0
  6
CONTINUOUS
 62
    7
370
   25
100
AcDbCircle
 10
16.025
 20
92.22499999999999
 40
0.5000000000000142
100
AcDbArc
 50
0
 51
90
  0
ARC
  5
1F9
100
AcDbEntity
  8
0
  6
CONTINUOUS
 62
    7
370
   25
100
AcDbCircle
 10
3.025
 20
92.22499999999999
 40
0.5000000000000142
100
AcDbArc
 50
90
 51
180
  0
ARC
  5
1FA
100
AcDbEntity
  8
0
  6
CONTINUOUS
 62
    7
370
   25
100
AcDbCircle
 10
3.025
 20
79.22499999999999
 40
0.4999999999999858
100
AcDbArc
 50
180
 51
270
  0
ARC
  5
1FB
100
AcDbEntity
  8
0
  6
CONTINUOUS
 62
    7
370
   25
100
AcDbCircle
 10
16.025
 20
79.22499999999999
 40
0.4999999999999716
100
AcDbArc
 50
270
 51
0
  0
ARC
  5
1FC
100
AcDbEntity
  8
0
  6
CONTINUOUS
 62
    7
370
   25
100
AcDbCircle
 10
54.125
 20
92.22499999999999
 40
0.5000000000000284
100
AcDbArc
 50
0
 51
90
  0
ARC
  5
1FD
100
AcDbEntity
  8
0
  6
CONTINUOUS
 62
    7
370
   25
100
AcDbCircle
 10
41.125
 20
92.22499999999999
 40
0.5000000000000639
100
AcDbArc
 50
90
 51
180
  0
ARC
  5
1FE
100
AcDbEntity
  8
0
  6
CONTINUOUS
 62
    7
370
   25
100
AcDbCircle
 10
41.125
 20
79.22499999999999
 40
0.5000000000000284
100
AcDbArc
 50
180
 51
270
  0
ARC
  5
1FF
100
AcDbEntity
  8
0
  6
CONTINUOUS
 62
    7
370
   25
100
AcDbCircle
 10
54.125
 20
79.22499999999999
 40
0.4999999999999858
100
AcDbArc
 50
270
 51
0
  0
ARC
  5
200
100
AcDbEntity
  8
0
  6
CONTINUOUS
 62
    7
370
   25
100
AcDbCircle
 10
16.025
 20
73.175
 40
0.5000000000000284
100
AcDbArc
 50
0
 51
90
  0
ARC
  5
201
100
AcDbEntity
  8
0
  6
CONTINUOUS
 62
    7
370
   25
100
AcDbCircle
 10
3.025
 20
73.175
 40
0.5000000000000289
100
AcDbArc
 50
90
 51
180
  0
ARC
  5
202
100
AcDbEntity
  8
0
  6
CONTINUOUS
 62
    7
370
   25
100
AcDbCircle
 10
3.025
 20
60.175
 40
0.5000000000000071
100
AcDbArc
 50
180
 51
270
  0
ARC
  5
203
100
AcDbEntity
  8
0
  6
CONTINUOUS
 62
    7
370
   25
100
AcDbCircle
 10
16.025
 20
60.175
 40
0.5
100
AcDbArc
 50
270
 51
0
  0
ARC
  5
204
100
AcDbEntity
  8
0
  6
CONTINUOUS
 62
    7
370
   25
100
AcDbCircle
 10
54.125
 20
73.175
 40
0.5000000000000284
100
AcDbArc
 50
0
 51
90
  0
ARC
  5
205
100
AcDbEntity
  8
0
  6
CONTINUOUS
 62
    7
370
   25
100
AcDbCircle
 10
41.125
 20
73.175
 40
0.5000000000000284
100
AcDbArc
 50
90
 51
180
  0
ARC
  5
206
100
AcDbEntity
  8
0
  6
CONTINUOUS
 62
    7
370
   25
100
AcDbCircle
 10
41.125
 20
60.175
 40
0.5000000000000071
100
AcDbArc
 50
180
 51
270
  0
ARC
  5
207
100
AcDbEntity
  8
0
  6
CONTINUOUS
 62
    7
370
   25
100
AcDbCircle
 10
54.125
 20
60.175
 40
0.5
100
AcDbArc
 50
270
 51
0
  0
ARC
  5
208
100
AcDbEntity
  8
0
  6
CONTINUOUS
 62
    7
370
   25
100
AcDbCircle
 10
16.025
 20
54.125
 40
0.4999999999999929
100
AcDbArc
 50
360
 51
90
  0
ARC
  5
209
100
AcDbEntity
  8
0
  6
CONTINUOUS
 62
    7
370
   25
100
AcDbCircle
 10
3.025
 20
54.125
 40
0.5000000000000142
100
AcDbArc
 50
90
 51
180
  0
ARC
  5
20A
100
AcDbEntity
  8
0
  6
CONTINUOUS
 62
    7
370
   25
100
AcDbCircle
 10
3.025
 20
41.125
 40
0.5000000000000218
100
AcDbArc
 50
180
 51
270
  0
ARC
  5
20B
100
AcDbEntity
  8
0
  6
CONTINUOUS
 62
    7
370
   25
100
AcDbCircle
 10
16.025
 20
41.125
 40
0.5
100
AcDbArc
 50
270
 51
0
  0
ARC
  5
20C
100
AcDbEntity
  8
0
  6
CONTINUOUS
 62
    7
370
   25
100
AcDbCircle
 10
54.125
 20
54.125
 40
0.5
100
AcDbArc
 50
0
 51
90
  0
ARC
  5
20D
100
AcDbEntity
  8
0
  6
CONTINUOUS
 62
    7
370
   25
100
AcDbCircle
 10
41.125
 20
54.125
 40
0.4999999999999787
100
AcDbArc
 50
90
 51
180
  0
ARC
  5
20E
100
AcDbEntity
  8
0
  6
CONTINUOUS
 62
    7
370
   25
100
AcDbCircle
 10
41.125
 20
41.125
 40
0.4999999999999858
100
AcDbArc
 50
180
 51
270
  0
ARC
  5
20F
100
AcDbEntity
  8
0
  6
CONTINUOUS
 62
    7
370
   25
100
AcDbCircle
 10
54.125
 20
41.125
 40
0.5000000000000071
100
AcDbArc
 50
270
 51
0
  0
ARC
  5
210
100
AcDbEntity
  8
0
  6
CONTINUOUS
 62
    7
370
   25
100
AcDbCircle
 10
16.025
 20
35.075
 40
0.5000000000000142
100
AcDbArc
 50
0
 51
90
  0
ARC
  5
211
100
AcDbEntity
  8
0
  6
CONTINUOUS
 62
    7
370
   25
100
AcDbCircle
 10
3.025
 20
35.075
 40
0.4999999999999929
100
AcDbArc
 50
90
 51
180
  0
ARC
  5
212
100
AcDbEntity
  8
0
  6
CONTINUOUS
 62
    7
370
   25
100
AcDbCircle
 10
3.025
 20
22.075
 40
0.4999999999999929
100
AcDbArc
 50
180
 51
270
  0
ARC
  5
213
100
AcDbEntity
  8
0
  6
CONTINUOUS
 62
    7
370
   25
100
AcDbCircle
 10
16.025
 20
22.075
 40
0.5000000000000036
100
AcDbArc
 50
270
 51
0
  0
ARC
  5
214
100
AcDbEntity
  8
0
  6
CONTINUOUS
 62
    7
370
   25
100
AcDbCircle
 10
54.125
 20
35.075
 40
0.5000000000000071
100
AcDbArc
 50
0
 51
90
  0
ARC
  5
215
100
AcDbEntity
  8
0
  6
CONTINUOUS
 62
    7
370
   25
100
AcDbCircle
 10
41.125
 20
35.075
 40
0.5000000000000142
100
AcDbArc
 50
90
 51
180
  0
ARC
  5
216
100
AcDbEntity
  8
0
  6
CONTINUOUS
 62
    7
370
   25
100
AcDbCircle
 10
41.125
 20
22.075
 40
0.5000000000000107
100
AcDbArc
 50
180
 51
270
  0
ARC
  5
217
100
AcDbEntity
  8
0
  6
CONTINUOUS
 62
    7
370
   25
100
AcDbCircle
 10
54.125
 20
22.075
 40
0.5
100
AcDbArc
 50
270
 51
0
  0
ARC
  5
218
100
AcDbEntity
  8
0
  6
CONTINUOUS
 62
    7
370
   25
100
AcDbCircle
 10
101.75
 20
92.22499999999999
 40
0.5000000000000284
100
AcDbArc
 50
0
 51
90
  0
ARC
  5
219
100
AcDbEntity
  8
0
  6
CONTINUOUS
 62
    7
370
   25
100
AcDbCircle
 10
88.75
 20
92.22499999999999
 40
0.5000000000000284
100
AcDbArc
 50
90
 51
180
  0
ARC
  5
21A
100
AcDbEntity
  8
0
  6
CONTINUOUS
 62
    7
370
   25
100
AcDbCircle
 10
88.75
 20
79.22499999999999
 40
0.5000000000000142
100
AcDbArc
 50
180
 51
270
  0
ARC
  5
21B
100
AcDbEntity
  8
0
  6
CONTINUOUS
 62
    7
370
   25
100
AcDbCircle
 10
101.75
 20
79.22499999999999
 40
0.5000000000000142
100
AcDbArc
 50
270
 51
0
  0
ARC
  5
21C
100
AcDbEntity
  8
0
  6
CONTINUOUS
 62
    7
370
   25
100
AcDbCircle
 10
139.85
 20
92.22499999999999
 40
0.5000000000000568
100
AcDbArc
 50
0
 51
90
  0
ARC
  5
21D
100
AcDbEntity
  8
0
  6
CONTINUOUS
 62
    7
370
   25
100
AcDbCircle
 10
126.85
 20
92.22499999999999
 40
0.5000000000000284
100
AcDbArc
 50
90
 51
180
  0
ARC
  5
21E
100
AcDbEntity
  8
0
  6
CONTINUOUS
 62
    7
370
   25
100
AcDbCircle
 10
126.85
 20
79.22499999999999
 40
0.5000000000000142
100
AcDbArc
 50
180
 51
270
  0
ARC
  5
21F
100
AcDbEntity
  8
0
  6
CONTINUOUS
 62
    7
370
   25
100
AcDbCircle
 10
139.85
 20
79.22499999999999
 40
0.5000000000000284
100
AcDbArc
 50
270
 51
360
  0
ARC
  5
220
100
AcDbEntity
  8
0
  6
CONTINUOUS
 62
    7
370
   25
100
AcDbCircle
 10
177.95
 20
92.22499999999999
 40
0.5000000000000568
100
AcDbArc
 50
0
 51
90
  0
ARC
  5
221
100
AcDbEntity
  8
0
  6
CONTINUOUS
 62
    7
370
   25
100
AcDbCircle
 10
164.95
 20
92.22499999999999
 40
0.5
100
AcDbArc
 50
90
 51
180
  0
ARC
  5
222
100
AcDbEntity
  8
0
  6
CONTINUOUS
 62
    7
370
   25
100
AcDbCircle
 10
164.95
 20
79.22499999999999
 40
0.4999999999999716
100
AcDbArc
 50
180
 51
270
  0
ARC
  5
223
100
AcDbEntity
  8
0
  6
CONTINUOUS
 62
    7
370
   25
100
AcDbCircle
 10
177.95
 20
79.22499999999999
 40
0.5000000000000284
100
AcDbArc
 50
270
 51
360
  0
ARC
  5
224
100
AcDbEntity
  8
0
  6
CONTINUOUS
 62
    7
370
   25
100
AcDbCircle
 10
216.05
 20
92.22499999999999
 40
0.5000000000000426
100
AcDbArc
 50
0
 51
90
  0
ARC
  5
225
100
AcDbEntity
  8
0
  6
CONTINUOUS
 62
    7
370
   25
100
AcDbCircle
 10
203.05
 20
92.22499999999999
 40
0.5
100
AcDbArc
 50
90
 51
180
  0
ARC
  5
226
100
AcDbEntity
  8
0
  6
CONTINUOUS
 62
    7
370
   25
100
AcDbCircle
 10
203.05
 20
79.22499999999999
 40
0.4999999999999716
100
AcDbArc
 50
180
 51
270
  0
ARC
  5
227
100
AcDbEntity
  8
0
  6
CONTINUOUS
 62
    7
370
   25
100
AcDbCircle
 10
216.05
 20
79.22499999999999
 40
0.5000000000000284
100
AcDbArc
 50
270
 51
360
  0
ARC
  5
228
100
AcDbEntity
  8
0
  6
CONTINUOUS
 62
    7
370
   25
100
AcDbCircle
 10
130.325
 20
73.175
 40
0.5000000000000568
100
AcDbArc
 50
0
 51
90
  0
ARC
  5
229
100
AcDbEntity
  8
0
  6
CONTINUOUS
 62
    7
370
   25
100
AcDbCircle
 10
117.325
 20
73.175
 40
0.5000000000000284
100
AcDbArc
 50
90
 51
180
  0
ARC
  5
22A
100
AcDbEntity
  8
0
  6
CONTINUOUS
 62
    7
370
   25
100
AcDbCircle
 10
117.325
 20
60.175
 40
0.5
100
AcDbArc
 50
180
 51
270
  0
ARC
  5
22B
100
AcDbEntity
  8
0
  6
CONTINUOUS
 62
    7
370
   25
100
AcDbCircle
 10
130.325
 20
60.175
 40
0.5000000000000284
100
AcDbArc
 50
270
 51
360
  0
ARC
  5
22C
100
AcDbEntity
  8
0
  6
CONTINUOUS
 62
    7
370
   25
100
AcDbCircle
 10
168.425
 20
73.175
 40
0.5000000000000568
100
AcDbArc
 50
0
 51
90
  0
ARC
  5
22D
100
AcDbEntity
  8
0
  6
CONTINUOUS
 62
    7
370
   25
100
AcDbCircle
 10
155.425
 20
73.175
 40
0.5000000000000568
100
AcDbArc
 50
90
 51
180
  0
ARC
  5
22E
100
AcDbEntity
  8
0
  6
CONTINUOUS
 62
    7
370
   25
100
AcDbCircle
 10
155.425
 20
60.175
 40
0.5000000000000284
100
AcDbArc
 50
180
 51
270
  0
ARC
  5
22F
100
AcDbEntity
  8
0
  6
CONTINUOUS
 62
    7
370
   25
100
AcDbCircle
 10
168.425
 20
60.175
 40
0.5000000000000284
100
AcDbArc
 50
270
 51
360
  0
ARC
  5
230
100
AcDbEntity
  8
0
  6
CONTINUOUS
 62
    7
370
   25
100
AcDbCircle
 10
206.525
 20
73.175
 40
0.5000000000000568
100
AcDbArc
 50
0
 51
90
  0
ARC
  5
231
100
AcDbEntity
  8
0
  6
CONTINUOUS
 62
    7
370
   25
100
AcDbCircle
 10
193.525
 20
73.175
 40
0.5000000000000568
100
AcDbArc
 50
90
 51
180
  0
ARC
  5
232
100
AcDbEntity
  8
0
  6
CONTINUOUS
 62
    7
370
   25
100
AcDbCircle
 10
193.525
 20
60.175
 40
0.5000000000000284
100
AcDbArc
 50
180
 51
270
  0
ARC
  5
233
100
AcDbEntity
  8
0
  6
CONTINUOUS
 62
    7
370
   25
100
AcDbCircle
 10
206.525
 20
60.175
 40
0.5000000000000568
100
AcDbArc
 50
270
 51
360
  0
ARC
  5
234
100
AcDbEntity
  8
0
  6
CONTINUOUS
 62
    7
370
   25
100
AcDbCircle
 10
113.65625
 20
35.075
 40
0.5000000000000284
100
AcDbArc
 50
0
 51
90
  0
ARC
  5
235
100
AcDbEntity
  8
0
  6
CONTINUOUS
 62
    7
370
   25
100
AcDbCircle
 10
100.65625
 20
35.075
 40
0.5
100
AcDbArc
 50
90
 51
180
  0
ARC
  5
236
100
AcDbEntity
  8
0
  6
CONTINUOUS
 62
    7
370
   25
100
AcDbCircle
 10
100.65625
 20
22.075
 40
0.5000000000000284
100
AcDbArc
 50
180
 51
270
  0
ARC
  5
237
100
AcDbEntity
  8
0
  6
CONTINUOUS
 62
    7
370
   25
100
AcDbCircle
 10
113.65625
 20
22.075
 40
0.5000000000000426
100
AcDbArc
 50
270
 51
360
  0
ARC
  5
238
100
AcDbEntity
  8
0
  6
CONTINUOUS
 62
    7
370
   25
100
AcDbCircle
 10
108.89375
 20
54.125
 40
0.5000000000000142
100
AcDbArc
 50
0
 51
90
  0
ARC
  5
239
100
AcDbEntity
  8
0
  6
CONTINUOUS
 62
    7
370
   25
100
AcDbCircle
 10
91.13124999999999
 20
54.125
 40
0.5000000000000142
100
AcDbArc
 50
90
 51
180
  0
ARC
  5
23A
100
AcDbEntity
  8
0
  6
CONTINUOUS
 62
    7
370
   25
100
AcDbCircle
 10
91.13124999999999
 20
41.125
 40
0.5000000000000142
100
AcDbArc
 50
180
 51
270
  0
ARC
  5
23B
100
AcDbEntity
  8
0
  6
CONTINUOUS
 62
    7
370
   25
100
AcDbCircle
 10
108.89375
 20
41.125
 40
0.5000000000000142
100
AcDbArc
 50
270
 51
0
  0
ARC
  5
23C
100
AcDbEntity
  8
0
  6
CONTINUOUS
 62
    7
370
   25
100
AcDbCircle
 10
173.1875
 20
54.125
 40
0.4999999999999787
100
AcDbArc
 50
360
 51
90
  0
ARC
  5
23D
100
AcDbEntity
  8
0
  6
CONTINUOUS
 62
    7
370
   25
100
AcDbCircle
 10
160.1875
 20
54.125
 40
0.5
100
AcDbArc
 50
90
 51
180
  0
ARC
  5
23E
100
AcDbEntity
  8
0
  6
CONTINUOUS
 62
    7
370
   25
100
AcDbCircle
 10
160.1875
 20
41.125
 40
0.5
100
AcDbArc
 50
180
 51
270
  0
ARC
  5
23F
100
AcDbEntity
  8
0
  6
CONTINUOUS
 62
    7
370
   25
100
AcDbCircle
 10
173.1875
 20
41.125
 40
0.5
100
AcDbArc
 50
270
 51
0
  0
ARC
  5
240
100
AcDbEntity
  8
0
  6
CONTINUOUS
 62
    7
370
   25
100
AcDbCircle
 10
211.2875
 20
54.125
 40
0.5
100
AcDbArc
 50
360
 51
90
  0
ARC
  5
241
100
AcDbEntity
  8
0
  6
CONTINUOUS
 62
    7
370
   25
100
AcDbCircle
 10
198.2875
 20
54.125
 40
0.5
100
AcDbArc
 50
90
 51
180
  0
ARC
  5
242
100
AcDbEntity
  8
0
  6
CONTINUOUS
 62
    7
370
   25
100
AcDbCircle
 10
198.2875
 20
41.125
 40
0.5
100
AcDbArc
 50
180
 51
270
  0
ARC
  5
243
100
AcDbEntity
  8
0
  6
CONTINUOUS
 62
    7
370
   25
100
AcDbCircle
 10
211.2875
 20
41.125
 40
0.5
100
AcDbArc
 50
270
 51
0
  0
ARC
  5
244
100
AcDbEntity
  8
0
  6
CONTINUOUS
 62
    7
370
   25
100
AcDbCircle
 10
163.6625
 20
35.075
 40
0.5000000000000284
100
AcDbArc
 50
0
 51
90
  0
ARC
  5
245
100
AcDbEntity
  8
0
  6
CONTINUOUS
 62
    7
370
   25
100
AcDbCircle
 10
150.6625
 20
35.075
 40
0.4999999999999716
100
AcDbArc
 50
90
 51
180
  0
ARC
  5
246
100
AcDbEntity
  8
0
  6
CONTINUOUS
 62
    7
370
   25
100
AcDbCircle
 10
150.6625
 20
22.075
 40
0.4999999999999751
100
AcDbArc
 50
180
 51
270
  0
ARC
  5
247
100
AcDbEntity
  8
0
  6
CONTINUOUS
 62
    7
370
   25
100
AcDbCircle
 10
163.6625
 20
22.075
 40
0.500000000000032
100
AcDbArc
 50
270
 51
360
  0
ARC
  5
248
100
AcDbEntity
  8
0
  6
CONTINUOUS
 62
    7
370
   25
100
AcDbCircle
 10
106.5125
 20
3.025
 40
0.5000000000000284
100
AcDbArc
 50
270
 51
360
  0
ARC
  5
249
100
AcDbEntity
  8
0
  6
CONTINUOUS
 62
    7
370
   25
100
AcDbCircle
 10
106.5125
 20
16.025
 40
0.5000000000000178
100
AcDbArc
 50
0
 51
90
  0
ARC
  5
24A
100
AcDbEntity
  8
0
  6
CONTINUOUS
 62
    7
370
   25
100
AcDbCircle
 10
91.13124999999999
 20
16.025
 40
0.5
100
AcDbArc
 50
90
 51
180
  0
ARC
  5
24B
100
AcDbEntity
  8
0
  6
CONTINUOUS
 62
    7
370
   25
100
AcDbCircle
 10
91.13124999999999
 20
3.025
 40
0.5000000000000062
100
AcDbArc
 50
180
 51
270
  0
ARC
  5
24C
100
AcDbEntity
  8
0
  6
CONTINUOUS
 62
    7
370
   25
100
AcDbCircle
 10
212.58175
 20
3.825
 40
0.5000000000000284
100
AcDbArc
 50
270
 51
360
  0
ARC
  5
24D
100
AcDbEntity
  8
0
  6
CONTINUOUS
 62
    7
370
   25
100
AcDbCircle
 10
212.58175
 20
16.825
 40
0.5000000000000036
100
AcDbArc
 50
0
 51
90
  0
ARC
  5
24E
100
AcDbEntity
  8
0
  6
CONTINUOUS
 62
    7
370
   25
100
AcDbCircle
 10
201.81925
 20
16.825
 40
0.4999999999999609
100
AcDbArc
 50
90
 51
168.4630409672
  0
ARC
  5
24F
100
AcDbEntity
  8
0
  6
CONTINUOUS
 62
    7
370
   25
100
AcDbCircle
 10
200.8394541029
 20
17.025
 40
0.500000000000047
100
AcDbArc
 50
270
 51
348.4630409672
  0
ARC
  5
250
100
AcDbEntity
  8
0
  6
CONTINUOUS
 62
    7
370
   25
100
AcDbCircle
 10
189.6855458971
 20
17.025
 40
0.5000000000000391
100
AcDbArc
 50
191.5369590328
 51
270
  0
ARC
  5
251
100
AcDbEntity
  8
0
  6
CONTINUOUS
 62
    7
370
   25
100
AcDbCircle
 10
188.70575
 20
16.825
 40
0.4999999999999934
100
AcDbArc
 50
11.5369590328
 51
90
  0
ARC
  5
252
100
AcDbEntity
  8
0
  6
CONTINUOUS
 62
    7
370
   25
100
AcDbCircle
 10
177.94325
 20
16.825
 40
0.4999999999999716
100
AcDbArc
 50
90
 51
180
  0
ARC
  5
253
100
AcDbEntity
  8
0
  6
CONTINUOUS
 62
    7
370
   25
100
AcDbCircle
 10
177.94325
 20
3.825
 40
0.4999999999999765
100
AcDbArc
 50
180
 51
270
  0
ARC
  5
254
100
AcDbEntity
  8
0
  6
CONTINUOUS
 62
    7
370
   25
100
AcDbCircle
 10
183.0202041029
 20
2.825
 40
0.5000000000000222
100
AcDbArc
 50
11.5369590328
 51
90
  0
ARC
  5
255
100
AcDbEntity
  8
0
  6
CONTINUOUS
 62
    7
370
   25
100
AcDbCircle
 10
184
 20
3.025
 40
0.5000000000000233
100
AcDbArc
 50
191.5369590328
 51
270
  0
ARC
  5
256
100
AcDbEntity
  8
0
  6
CONTINUOUS
 62
    7
370
   25
100
AcDbCircle
 10
204.14375
 20
3.025
 40
0.4999999999999911
100
AcDbArc
 50
270
 51
348.4630409672
  0
ARC
  5
257
100
AcDbEntity
  8
0
  6
CONTINUOUS
 62
    7
370
   25
100
AcDbCircle
 10
205.1235458971
 20
2.825
 40
0.5000000000000253
100
AcDbArc
 50
90
 51
168.4630409672
  0
ARC
  5
258
100
AcDbEntity
  8
0
  6
CONTINUOUS
 62
    7
370
   25
100
AcDbCircle
 10
-8
 20
-8
 40
3.799999999999997
100
AcDbArc
 50
180
 51
270
  0
ARC
  5
259
100
AcDbEntity
  8
0
  6
CONTINUOUS
 62
    7
370
   25
100
AcDbCircle
 10
-8
 20
131.825
 40
3.799999999999969
100
AcDbArc
 50
90
 51
180
  0
ARC
  5
25A
100
AcDbEntity
  8
0
  6
CONTINUOUS
 62
    7
370
   25
100
AcDbCircle
 10
227.85
 20
135.075
 40
0.5500000000000114
100
AcDbArc
 50
0
 51
90
  0
ARC
  5
25B
100
AcDbEntity
  8
0
  6
CONTINUOUS
 62
    7
370
   25
100
AcDbCircle
 10
227.1
 20
97.22499999999999
 40
1.299999999999983
100
AcDbArc
 50
270
 51
0
  0
ARC
  5
25C
100
AcDbEntity
  8
0
  6
CONTINUOUS
 62
    7
370
   25
100
AcDbCircle
 10
220.575
 20
94.22499999999999
 40
1.700000000000045
100
AcDbArc
 50
90
 51
180
  0
ARC
  5
25D
100
AcDbEntity
  8
0
  6
CONTINUOUS
 62
    7
370
   25
100
AcDbCircle
 10
217.575
 20
77.8
 40
1.30000000000004
100
AcDbArc
 50
270
 51
0
  0
ARC
  5
25E
100
AcDbEntity
  8
0
  6
CONTINUOUS
 62
    7
370
   25
100
AcDbCircle
 10
211.05
 20
74.8
 40
1.699999999999974
100
AcDbArc
 50
90
 51
180
  0
ARC
  5
25F
100
AcDbEntity
  8
0
  6
CONTINUOUS
 62
    7
370
   25
100
AcDbCircle
 10
211.05
 20
58.55
 40
1.699999999999989
100
AcDbArc
 50
180
 51
270
  0
ARC
  5
260
100
AcDbEntity
  8
0
  6
CONTINUOUS
 62
    7
370
   25
100
AcDbCircle
 10
212.8125
 20
55.55
 40
1.29999999999999
100
AcDbArc
 50
0
 51
90
  0
ARC
  5
261
100
AcDbEntity
  8
0
  6
CONTINUOUS
 62
    7
370
   25
100
AcDbCircle
 10
215.8125
 20
39.5
 40
1.700000000000045
100
AcDbArc
 50
180
 51
270
  0
ARC
  5
262
100
AcDbEntity
  8
0
  6
CONTINUOUS
 62
    7
370
   25
100
AcDbCircle
 10
222.3375
 20
36.5
 40
1.300000000000004
100
AcDbArc
 50
0
 51
90
  0
ARC
  5
263
100
AcDbEntity
  8
0
  6
CONTINUOUS
 62
    7
370
   25
100
AcDbCircle
 10
222.3375
 20
20.65
 40
1.299999999999983
100
AcDbArc
 50
270
 51
0
  0
ARC
  5
264
100
AcDbEntity
  8
0
  6
CONTINUOUS
 62
    7
370
   25
100
AcDbCircle
 10
220.575
 20
17.65
 40
1.700000000000045
100
AcDbArc
 50
90
 51
180
  0
ARC
  5
265
100
AcDbEntity
  8
0
  6
CONTINUOUS
 62
    7
370
   25
100
AcDbCircle
 10
218.325
 20
-11.25
 40
0.5499999999999972
100
AcDbArc
 50
270
 51
0
  0
ARC
  5
266
100
AcDbEntity
  8
0
  6
CONTINUOUS
 62
    7
370
   25
100
AcDbCircle
 10
92.21825
 20
21.275
 40
0.5000000000000284
100
AcDbArc
 50
180
 51
270
  0
ARC
  5
267
100
AcDbEntity
  8
0
  6
CONTINUOUS
 62
    7
370
   25
100
AcDbCircle
 10
98.21825
 20
21.275
 40
0.5000000000000284
100
AcDbArc
 50
270
 51
360
  0
ARC
  5
268
100
AcDbEntity
  8
0
  6
CONTINUOUS
 62
    7
370
   25
100
AcDbCircle
 10
98.21825
 20
34.275
 40
0.5000000000000142
100
AcDbArc
 50
0
 51
90
  0
ARC
  5
269
100
AcDbEntity
  8
0
  6
CONTINUOUS
 62
    7
370
   25
100
AcDbCircle
 10
92.21825
 20
34.275
 40
0.4999999999999574
100
AcDbArc
 50
90
 51
180
  0
ARC
  5
26A
100
AcDbEntity
  8
0
  6
CONTINUOUS
 62
    7
370
   25
100
AcDbCircle
 10
174.45
 20
3.825
 40
0.5
100
AcDbArc
 50
270
 51
0
  0
ARC
  5
26B
100
AcDbEntity
  8
0
  6
CONTINUOUS
 62
    7
370
   25
100
AcDbCircle
 10
174.45
 20
16.825
 40
0.4999999999999751
100
AcDbArc
 50
360
 51
90
  0
ARC
  5
26C
100
AcDbEntity
  8
0
  6
CONTINUOUS
 62
    7
370
   25
100
AcDbCircle
 10
168.45
 20
16.825
 40
0.5000000000000255
100
AcDbArc
 50
90
 51
168.4630409672
  0
ARC
  5
26D
100
AcDbEntity
  8
0
  6
CONTINUOUS
 62
    7
370
   25
100
AcDbCircle
 10
167.4702041029
 20
17.025
 40
0.5000000000000249
100
AcDbArc
 50
270
 51
348.4630409672
  0
ARC
  5
26E
100
AcDbEntity
  8
0
  6
CONTINUOUS
 62
    7
370
   25
100
AcDbCircle
 10
138.75625
 20
16.025
 40
0.5000000000000284
100
AcDbArc
 50
90
 51
180
  0
ARC
  5
26F
100
AcDbEntity
  8
0
  6
CONTINUOUS
 62
    7
370
   25
100
AcDbCircle
 10
138.75625
 20
3.025
 40
0.5000000000000284
100
AcDbArc
 50
180
 51
270
  0
ARC
  5
270
100
AcDbEntity
  8
0
  6
CONTINUOUS
 62
    7
370
   25
100
AcDbCircle
 10
173.1875
 20
3.025
 40
0.4999999999999614
100
AcDbArc
 50
270
 51
348.4630409672
  0
ARC
  5
271
100
AcDbEntity
  8
0
  6
CONTINUOUS
 62
    7
370
   25
100
AcDbCircle
 10
174.1672958971
 20
2.825
 40
0.5000000000000355
100
AcDbArc
 50
90
 51
168.4630409672
  0
ARC
  5
272
100
AcDbEntity
  8
0
  6
CONTINUOUS
 62
    7
370
   25
100
AcDbCircle
 10
47.75
 20
130.075
 40
2.100000000000009
100
AcDbArc
 50
270
 51
90
  0
ARC
  5
273
100
AcDbEntity
  8
0
  6
CONTINUOUS
 62
    7
370
   25
100
AcDbCircle
 10
39.75
 20
130.075
 40
2.099999999999994
100
AcDbArc
 50
90
 51
270
  0
ARC
  5
274
100
AcDbEntity
  8
0
  6
CONTINUOUS
 62
    7
370
   25
100
AcDbCircle
 10
157.35
 20
-6.25
 40
2.099999999999998
100
AcDbArc
 50
270
 51
90
  0
ARC
  5
275
100
AcDbEntity
  8
0
  6
CONTINUOUS
 62
    7
370
   25
100
AcDbCircle
 10
149.35
 20
-6.25
 40
2.099999999999998
100
AcDbArc
 50
90
 51
270
  0
ARC
  5
276
100
AcDbEntity
  8
0
  6
CONTINUOUS
 62
    7
370
   25
100
AcDbCircle
 10
57.75
 20
-6.25
 40
2.099999999999998
100
AcDbArc
 50
270
 51
90
  0
ARC
  5
277
100
AcDbEntity
  8
0
  6
CONTINUOUS
 62
    7
370
   25
100
AcDbCircle
 10
49.75
 20
-6.25
 40
2.099999999999998
100
AcDbArc
 50
90
 51
270
  0
ARC
  5
278
100
AcDbEntity
  8
0
  6
CONTINUOUS
 62
    7
370
   25
100
AcDbCircle
 10
168.875
 20
130.075
 40
2.099999999999994
100
AcDbArc
 50
90
 51
270
  0
ARC
  5
279
100
AcDbEntity
  8
0
  6
CONTINUOUS
 62
    7
370
   25
100
AcDbCircle
 10
59.375
 20
4.112
 40
0.4999999999999858
100
AcDbArc
 50
180
 51
258.4630409672
  0
ARC
  5
27A
100
AcDbEntity
  8
0
  6
CONTINUOUS
 62
    7
370
   25
100
AcDbCircle
 10
59.175
 20
3.1322041029
 40
0.5000000000000158
100
AcDbArc
 50
0
 51
78.4630409672
  0
ARC
  5
27B
100
AcDbEntity
  8
0
  6
CONTINUOUS
 62
    7
370
   25
100
AcDbCircle
 10
60.175
 20
3.025
 40
0.5000000000000071
100
AcDbArc
 50
180
 51
270
  0
ARC
  5
27C
100
AcDbEntity
  8
0
  6
CONTINUOUS
 62
    7
370
   25
100
AcDbCircle
 10
73.175
 20
3.025
 40
0.5
100
AcDbArc
 50
270
 51
0
  0
ARC
  5
27D
100
AcDbEntity
  8
0
  6
CONTINUOUS
 62
    7
370
   25
100
AcDbCircle
 10
73.175
 20
35.075
 40
0.5
100
AcDbArc
 50
0
 51
90
  0
ARC
  5
27E
100
AcDbEntity
  8
0
  6
CONTINUOUS
 62
    7
370
   25
100
AcDbCircle
 10
60.175
 20
35.075
 40
0.5
100
AcDbArc
 50
90
 51
180
  0
ARC
  5
27F
100
AcDbEntity
  8
0
  6
CONTINUOUS
 62
    7
370
   25
100
AcDbCircle
 10
59.175
 20
34.9677958971
 40
0.4999999999999929
100
AcDbArc
 50
281.5369590328
 51
0
  0
ARC
  5
280
100
AcDbEntity
  8
0
  6
CONTINUOUS
 62
    7
370
   25
100
AcDbCircle
 10
59.375
 20
33.988
 40
0.4999999999999929
100
AcDbArc
 50
101.5369590328
 51
180
  0
ARC
  5
281
100
AcDbEntity
  8
0
  6
CONTINUOUS
 62
    7
370
   25
100
AcDbCircle
 10
59.375
 20
27.988
 40
0.4999999999999787
100
AcDbArc
 50
180
 51
258.4630409672
  0
ARC
  5
282
100
AcDbEntity
  8
0
  6
CONTINUOUS
 62
    7
370
   25
100
AcDbCircle
 10
59.175
 20
27.0082041029
 40
0.4999999999999986
100
AcDbArc
 50
0
 51
78.4630409672
  0
ARC
  5
283
100
AcDbEntity
  8
0
  6
CONTINUOUS
 62
    7
370
   25
100
AcDbCircle
 10
59.175
 20
11.0917958971
 40
0.5000000000000071
100
AcDbArc
 50
281.5369590328
 51
0
  0
ARC
  5
284
100
AcDbEntity
  8
0
  6
CONTINUOUS
 62
    7
370
   25
100
AcDbCircle
 10
59.375
 20
10.112
 40
0.5000000000000213
100
AcDbArc
 50
101.5369590328
 51
180
  0
ARC
  5
285
100
AcDbEntity
  8
0
  6
CONTINUOUS
 62
    7
370
   25
100
AcDbCircle
 10
59.375
 20
42.212
 40
0.5000000000000008
100
AcDbArc
 50
180
 51
258.4630409672
  0
ARC
  5
286
100
AcDbEntity
  8
0
  6
CONTINUOUS
 62
    7
370
   25
100
AcDbCircle
 10
59.175
 20
41.2322041029
 40
0.5
100
AcDbArc
 50
0
 51
78.4630409672
  0
ARC
  5
287
100
AcDbEntity
  8
0
  6
CONTINUOUS
 62
    7
370
   25
100
AcDbCircle
 10
60.175
 20
41.125
 40
0.5
100
AcDbArc
 50
180
 51
270
  0
ARC
  5
288
100
AcDbEntity
  8
0
  6
CONTINUOUS
 62
    7
370
   25
100
AcDbCircle
 10
73.175
 20
41.125
 40
0.5000000000000426
100
AcDbArc
 50
270
 51
360
  0
ARC
  5
289
100
AcDbEntity
  8
0
  6
CONTINUOUS
 62
    7
370
   25
100
AcDbCircle
 10
73.175
 20
73.175
 40
0.5000000000000568
100
AcDbArc
 50
0
 51
90
  0
ARC
  5
28A
100
AcDbEntity
  8
0
  6
CONTINUOUS
 62
    7
370
   25
100
AcDbCircle
 10
60.175
 20
73.175
 40
0.5000000000000284
100
AcDbArc
 50
90
 51
180
  0
ARC
  5
28B
100
AcDbEntity
  8
0
  6
CONTINUOUS
 62
    7
370
   25
100
AcDbCircle
 10
59.175
 20
73.0677958971
 40
0.5000000000000142
100
AcDbArc
 50
281.5369590328
 51
0
  0
ARC
  5
28C
100
AcDbEntity
  8
0
  6
CONTINUOUS
 62
    7
370
   25
100
AcDbCircle
 10
59.375
 20
72.08799999999999
 40
0.5000000000000142
100
AcDbArc
 50
101.5369590328
 51
180
  0
ARC
  5
28D
100
AcDbEntity
  8
0
  6
CONTINUOUS
 62
    7
370
   25
100
AcDbCircle
 10
59.375
 20
66.08799999999999
 40
0.50000000000003
100
AcDbArc
 50
180
 51
258.4630409672
  0
ARC
  5
28E
100
AcDbEntity
  8
0
  6
CONTINUOUS
 62
    7
370
   25
100
AcDbCircle
 10
59.175
 20
65.1082041029
 40
0.4999999999999769
100
AcDbArc
 50
360
 51
78.4630409672
  0
ARC
  5
28F
100
AcDbEntity
  8
0
  6
CONTINUOUS
 62
    7
370
   25
100
AcDbCircle
 10
59.175
 20
49.1917958971
 40
0.5000000000000022
100
AcDbArc
 50
281.5369590328
 51
0
  0
ARC
  5
290
100
AcDbEntity
  8
0
  6
CONTINUOUS
 62
    7
370
   25
100
AcDbCircle
 10
59.375
 20
48.212
 40
0.5
100
AcDbArc
 50
101.5369590328
 51
180
  0
ARC
  5
291
100
AcDbEntity
  8
0
  6
CONTINUOUS
 62
    7
370
   25
100
AcDbCircle
 10
176.875
 20
130.075
 40
2.099999999999994
100
AcDbArc
 50
270
 51
90
  0
ENDSEC
  0
SECTION
  2
OBJECTS
  0
DICTIONARY
  5
C
330
0
100
AcDbDictionary
281
    1
  3
ACAD_GROUP
350
D
  0
DICTIONARY
  5
D
330
C
100
AcDbDictionary
281
    1
  0
PLOTSETTINGS
  5
292
100
AcDbPlotSettings
  6
1x1
 40
0
 41
0
 42
0
 43
0
  0
ENDSEC
  0
EOF
