999
dxfrw 0.6.3
  0
SECTION
  2
HEADER
  9
$ACADVER
  1
AC1021
  9
$DWGCODEPAGE
  3
ANSI_1252
  9
$INSBASE
 10
0
 20
0
 30
0
  9
$EXTMIN
 10
4.962499999999983
 20
-26.51482305836667
 30
0
  9
$EXTMAX
 10
221.35
 20
135.625
 30
0
  9
$LIMMIN
 10
0
 20
0
  9
$LIMMAX
 10
420
 20
297
  9
$ORTHOMODE
 70
    0
  9
$REGENMODE
 70
    1
  9
$FILLMODE
 70
    1
  9
$QTEXTMODE
 70
    0
  9
$MIRRTEXT
 70
    1
  9
$LTSCALE
 40
1
  9
$ATTMODE
 70
    1
  9
$TEXTSIZE
 40
3.5
  9
$TRACEWID
 40
1
  9
$TEXTSTYLE
  7
Standard
  9
$CLAYER
  8
0
  9
$CELTYPE
  6
ByLayer
  9
$CECOLOR
 62
  256
  9
$CELTSCALE
 40
1
  9
$DISPSILH
 70
    0
  9
$DIMSCALE
 40
1
  9
$DIMASZ
 40
3.556
  9
$DIMEXO
 40
1
  9
$DIMDLI
 40
3.75
  9
$DIMRND
 40
0
  9
$DIMDLE
 40
0
  9
$DIMEXE
 40
1
  9
$DIMTP
 40
0
  9
$DIMTM
 40
0
  9
$DIMTXT
 40
3.5
  9
$DIMCEN
 40
2.5
  9
$DIMTSZ
 40
0
  9
$DIMTOL
 70
    0
  9
$DIMLIM
 70
    0
  9
$DIMTIH
 70
    1
  9
$DIMTOH
 70
    1
  9
$DIMSE1
 70
    0
  9
$DIMSE2
 70
    0
  9
$DIMTAD
 70
    1
  9
$DIMZIN
 70
    0
  9
$DIMBLK
  1

  9
$DIMASO
 70
    1
  9
$DIMSHO
 70
    1
  9
$DIMPOST
  1

  9
$DIMAPOST
  1

  9
$DIMALT
 70
    0
  9
$DIMALTD
 70
    3
  9
$DIMALTF
 40
0.0393700787
  9
$DIMLFAC
 40
1
  9
$DIMTOFL
 70
    1
  9
$DIMTVP
 40
0
  9
$DIMTIX
 70
    0
  9
$DIMSOXD
 70
    0
  9
$DIMSAH
 70
    0
  9
$DIMBLK1
  1

  9
$DIMBLK2
  1

  9
$DIMSTYLE
  2
ISO-25
  9
$DIMCLRD
 70
    0
  9
$DIMCLRE
 70
    0
  9
$DIMCLRT
 70
    0
  9
$DIMTFAC
 40
1
  9
$DIMGAP
 40
1.524
  9
$DIMJUST
 70
    0
  9
$DIMSD1
 70
    0
  9
$DIMSD2
 70
    0
  9
$DIMTOLJ
 70
    0
  9
$DIMTZIN
 70
    0
  9
$DIMALTZ
 70
    0
  9
$DIMALTTZ
 70
    0
  9
$DIMUPT
 70
    0
  9
$DIMDEC
 70
    2
  9
$DIMTDEC
 70
    2
  9
$DIMALTU
 70
    2
  9
$DIMALTTD
 70
    3
  9
$DIMTXSTY
  7
Standard
  9
$DIMAUNIT
 70
    0
  9
$DIMADEC
 70
    0
  9
$DIMALTRND
 40
0
  9
$DIMAZIN
 70
    0
  9
$DIMDSEP
 70
   44
  9
$DIMATFIT
 70
    3
  9
$DIMFRAC
 70
    0
  9
$DIMLDRBLK
  1

  9
$DIMLUNIT
 70
    2
  9
$DIMLWD
 70
   -2
  9
$DIMLWE
 70
   -2
  9
$DIMTMOVE
 70
    0
  9
$DIMFXL
 40
1
  9
$DIMFXLON
 70
    0
  9
$DIMJOGANG
 40
0.7854
  9
$DIMTFILL
 70
    0
  9
$DIMTFILLCLR
 70
    0
  9
$DIMARCSYM
 70
    0
  9
$DIMLTYPE
  6

  9
$DIMLTEX1
  6

  9
$DIMLTEX2
  6

  9
$LUNITS
 70
    2
  9
$LUPREC
 70
    2
  9
$SKETCHINC
 40
1
  9
$FILLETRAD
 40
10
  9
$AUNITS
 70
    0
  9
$AUPREC
 70
    2
  9
$MENU
  1
.
  9
$ELEVATION
 40
0
  9
$PELEVATION
 40
0
  9
$THICKNESS
 40
0
  9
$LIMCHECK
 70
    0
  9
$CHAMFERA
 40
0
  9
$CHAMFERB
 40
0
  9
$CHAMFERC
 40
0
  9
$CHAMFERD
 40
0
  9
$SKPOLY
 70
    0
  9
$USRTIMER
 70
    1
  9
$ANGBASE
 50
0
  9
$ANGDIR
 70
    0
  9
$PDMODE
 70
    0
  9
$PDSIZE
 40
-1
  9
$PLINEWID
 40
0
  9
$SPLFRAME
 70
    0
  9
$SPLINETYPE
 70
    6
  9
$SPLINESEGS
 70
    8
  9
$HANDSEED
  5
20000
  9
$SURFTAB1
 70
    6
  9
$SURFTAB2
 70
    6
  9
$SURFTYPE
 70
    6
  9
$SURFU
 70
    6
  9
$SURFV
 70
    6
  9
$UCSBASE
  2

  9
$UCSNAME
  2

  9
$UCSORG
 10
0
 20
0
 30
0
  9
$UCSXDIR
 10
1
 20
0
 30
0
  9
$UCSYDIR
 10
0
 20
1
 30
0
  9
$UCSORTHOREF
  2

  9
$UCSORTHOVIEW
 70
    0
  9
$UCSORGTOP
 10
0
 20
0
 30
0
  9
$UCSORGBOTTOM
 10
0
 20
0
 30
0
  9
$UCSORGLEFT
 10
0
 20
0
 30
0
  9
$UCSORGRIGHT
 10
0
 20
0
 30
0
  9
$UCSORGFRONT
 10
0
 20
0
 30
0
  9
$UCSORGBACK
 10
0
 20
0
 30
0
  9
$PUCSBASE
  2

  9
$PUCSNAME
  2

  9
$PUCSORG
 10
0
 20
0
 30
0
  9
$PUCSXDIR
 10
1
 20
0
 30
0
  9
$PUCSYDIR
 10
0
 20
1
 30
0
  9
$PUCSORTHOREF
  2

  9
$PUCSORTHOVIEW
 70
    0
  9
$PUCSORGTOP
 10
0
 20
0
 30
0
  9
$PUCSORGBOTTOM
 10
0
 20
0
 30
0
  9
$PUCSORGLEFT
 10
0
 20
0
 30
0
  9
$PUCSORGRIGHT
 10
0
 20
0
 30
0
  9
$PUCSORGFRONT
 10
0
 20
0
 30
0
  9
$PUCSORGBACK
 10
0
 20
0
 30
0
  9
$USERI1
 70
    0
  9
$USERI2
 70
    0
  9
$USERI3
 70
    0
  9
$USERI4
 70
    0
  9
$USERI5
 70
    0
  9
$USERR1
 40
0
  9
$USERR2
 40
0
  9
$USERR3
 40
0
  9
$USERR4
 40
0
  9
$USERR5
 40
0
  9
$WORLDVIEW
 70
    1
  9
$SHADEDGE
 70
    3
  9
$SHADEDIF
 70
   70
  9
$TILEMODE
 70
    1
  9
$MAXACTVP
 70
   64
  9
$PINSBASE
 10
0
 20
0
 30
0
  9
$PLIMCHECK
 70
    0
  9
$PEXTMIN
 10
1e+020
 20
1e+020
 30
1e+020
  9
$PEXTMAX
 10
-1e+020
 20
-1e+020
 30
-1e+020
  9
$GRIDMODE
 70
    0
  9
$SNAPSTYLE
 70
    0
  9
$PLIMMIN
 10
0
 20
0
  9
$PLIMMAX
 10
420
 20
297
  9
$UNITMODE
 70
    0
  9
$VISRETAIN
 70
    1
  9
$PLINEGEN
 70
    0
  9
$PSLTSCALE
 70
    1
  9
$TREEDEPTH
 70
 3020
  9
$CMLSTYLE
  2
Standard
  9
$CMLJUST
 70
    0
  9
$CMLSCALE
 40
20
  9
$PROXYGRAPHICS
 70
    1
  9
$MEASUREMENT
 70
    1
  9
$CELWEIGHT
370
   -1
  9
$ENDCAPS
280
    0
  9
$JOINSTYLE
280
    0
  9
$LWDISPLAY
290
    1
  9
$INSUNITS
 70
    4
  9
$HYPERLINKBASE
  1

  9
$STYLESHEET
  1

  9
$XEDIT
290
    1
  9
$CEPSNTYPE
380
    0
  9
$PSTYLEMODE
290
    1
  9
$EXTNAMES
290
    1
  9
$PSVPSCALE
 40
0
  9
$OLESTARTUP
290
    0
  9
$SORTENTS
280
  127
  9
$INDEXCTL
280
    0
  9
$HIDETEXT
280
    1
  9
$XCLIPFRAME
290
    0
  9
$HALOGAP
280
    0
  9
$OBSCOLOR
 70
  257
  9
$OBSLTYPE
280
    0
  9
$INTERSECTIONDISPLAY
280
    0
  9
$INTERSECTIONCOLOR
 70
  257
  9
$DIMASSOC
280
    1
  9
$PROJECTNAME
  1

  9
$CAMERADISPLAY
290
    0
  9
$LENSLENGTH
 40
50
  9
$CAMERAHEIGHT
 40
0
  9
$STEPSPERSEC
 40
2
  9
$STEPSIZE
 40
50
  9
$3DDWFPREC
 40
2
  9
$PSOLWIDTH
 40
5
  9
$PSOLHEIGHT
 40
80
  9
$LOFTANG1
 40
1.570796326794897
  9
$LOFTANG2
 40
1.570796326794897
  9
$LOFTMAG1
 40
0
  9
$LOFTMAG2
 40
0
  9
$LOFTPARAM
 70
    7
  9
$LOFTNORMALS
280
    1
  9
$LATITUDE
 40
1
  9
$LONGITUDE
 40
1
  9
$NORTHDIRECTION
 40
0
  9
$TIMEZONE
 70
-8000
  9
$LIGHTGLYPHDISPLAY
280
    1
  9
$TILEMODELIGHTSYNCH
280
    1
  9
$SOLIDHIST
280
    1
  9
$SHOWHIST
280
    1
  9
$DWFFRAME
280
    2
  9
$DGNFRAME
280
    0
  9
$REALWORLDSCALE
290
    1
  9
$INTERFERECOLOR
 62
    1
  9
$CSHADOW
280
    0
  9
$SHADOWPLANELOCATION
 40
0
  0
ENDSEC
  0
SECTION
  2
CLASSES
  0
ENDSEC
  0
SECTION
  2
TABLES
  0
TABLE
  2
VPORT
  5
8
330
0
100
AcDbSymbolTable
 70
    1
  0
VPORT
  5
31
330
2
100
AcDbSymbolTableRecord
100
AcDbViewportTableRecord
  2
*ACTIVE
 70
    0
 10
0
 20
0
 11
1
 21
1
 12
152.6395284344032
 22
82.25103851798332
 13
0
 23
0
 14
10
 24
10
 15
10
 25
10
 16
0
 26
0
 36
1
 17
0
 27
0
 37
0
 40
221.0307525148455
 41
2.061883899233297
 42
50
 43
0
 44
0
 50
0
 51
0
 71
    0
 72
  100
 73
    1
 74
    3
 75
    0
 76
    0
 77
    0
 78
    0
281
    0
 65
    1
110
0
120
0
130
0
111
1
121
0
131
0
112
0
122
1
132
0
 79
    0
146
0
348
10020
 60
    7
 61
    5
292
1
282
    1
141
0
142
0
 63
  250
421
3358443
  0
ENDTAB
  0
TABLE
  2
LTYPE
  5
5
330
0
100
AcDbSymbolTable
 70
    4
  0
LTYPE
  5
14
330
5
100
AcDbSymbolTableRecord
100
AcDbLinetypeTableRecord
  2
ByBlock
 70
    0
  3

 72
   65
 73
    0
 40
0
  0
LTYPE
  5
15
330
5
100
AcDbSymbolTableRecord
100
AcDbLinetypeTableRecord
  2
ByLayer
 70
    0
  3

 72
   65
 73
    0
 40
0
  0
LTYPE
  5
16
330
5
100
AcDbSymbolTableRecord
100
AcDbLinetypeTableRecord
  2
Continuous
 70
    0
  3
Solid line
 72
   65
 73
    0
 40
0
  0
LTYPE
  5
32
330
5
100
AcDbSymbolTableRecord
100
AcDbLinetypeTableRecord
  2
DOT
 70
    0
  3
Dot . . . . . . . . . . . . . . . . . . . . . .
 72
   65
 73
    2
 40
6.35
 49
0
 74
    0
 49
-6.35
 74
    0
  0
LTYPE
  5
33
330
5
100
AcDbSymbolTableRecord
100
AcDbLinetypeTableRecord
  2
DOTTINY
 70
    0
  3
Dot (.15x) .....................................
 72
   65
 73
    2
 40
0.9525
 49
0
 74
    0
 49
-0.9525
 74
    0
  0
LTYPE
  5
34
330
5
100
AcDbSymbolTableRecord
100
AcDbLinetypeTableRecord
  2
DOT2
 70
    0
  3
Dot (.5x) .....................................
 72
   65
 73
    2
 40
3.175
 49
0
 74
    0
 49
-3.175
 74
    0
  0
LTYPE
  5
35
330
5
100
AcDbSymbolTableRecord
100
AcDbLinetypeTableRecord
  2
DOTX2
 70
    0
  3
Dot (2x) .  .  .  .  .  .  .  .  .  .  .  .  .
 72
   65
 73
    2
 40
12.7
 49
0
 74
    0
 49
-12.7
 74
    0
  0
LTYPE
  5
36
330
5
100
AcDbSymbolTableRecord
100
AcDbLinetypeTableRecord
  2
DASHED
 70
    0
  3
Dashed _ _ _ _ _ _ _ _ _ _ _ _ _ _ _ _ _
 72
   65
 73
    2
 40
19.05
 49
12.7
 74
    0
 49
-6.35
 74
    0
  0
LTYPE
  5
37
330
5
100
AcDbSymbolTableRecord
100
AcDbLinetypeTableRecord
  2
DASHEDTINY
 70
    0
  3
Dashed (.15x) _ _ _ _ _ _ _ _ _ _ _ _ _ _ _ _ _
 72
   65
 73
    2
 40
2.8575
 49
1.905
 74
    0
 49
-0.9525
 74
    0
  0
LTYPE
  5
38
330
5
100
AcDbSymbolTableRecord
100
AcDbLinetypeTableRecord
  2
DASHED2
 70
    0
  3
Dashed (.5x) _ _ _ _ _ _ _ _ _ _ _ _ _ _ _ _ _
 72
   65
 73
    2
 40
9.524999999999999
 49
6.35
 74
    0
 49
-3.175
 74
    0
  0
LTYPE
  5
39
330
5
100
AcDbSymbolTableRecord
100
AcDbLinetypeTableRecord
  2
DASHEDX2
 70
    0
  3
Dashed (2x) ____  ____  ____  ____  ____  ___
 72
   65
 73
    2
 40
38.09999999999999
 49
25.4
 74
    0
 49
-12.7
 74
    0
  0
LTYPE
  5
3A
330
5
100
AcDbSymbolTableRecord
100
AcDbLinetypeTableRecord
  2
DASHDOT
 70
    0
  3
Dash dot __ . __ . __ . __ . __ . __ . __ . __
 72
   65
 73
    4
 40
25.4
 49
12.7
 74
    0
 49
-6.35
 74
    0
 49
0
 74
    0
 49
-6.35
 74
    0
  0
LTYPE
  5
3B
330
5
100
AcDbSymbolTableRecord
100
AcDbLinetypeTableRecord
  2
DASHDOTTINY
 70
    0
  3
Dash dot (.15x) _._._._._._._._._._._._._._._.
 72
   65
 73
    4
 40
3.81
 49
1.905
 74
    0
 49
-0.9525
 74
    0
 49
0
 74
    0
 49
-0.9525
 74
    0
  0
LTYPE
  5
3C
330
5
100
AcDbSymbolTableRecord
100
AcDbLinetypeTableRecord
  2
DASHDOT2
 70
    0
  3
Dash dot (.5x) _._._._._._._._._._._._._._._.
 72
   65
 73
    4
 40
12.7
 49
6.35
 74
    0
 49
-3.175
 74
    0
 49
0
 74
    0
 49
-3.175
 74
    0
  0
LTYPE
  5
3D
330
5
100
AcDbSymbolTableRecord
100
AcDbLinetypeTableRecord
  2
DASHDOTX2
 70
    0
  3
Dash dot (2x) ____  .  ____  .  ____  .  ___
 72
   65
 73
    4
 40
50.8
 49
25.4
 74
    0
 49
-12.7
 74
    0
 49
0
 74
    0
 49
-12.7
 74
    0
  0
LTYPE
  5
3E
330
5
100
AcDbSymbolTableRecord
100
AcDbLinetypeTableRecord
  2
DIVIDE
 70
    0
  3
Divide ____ . . ____ . . ____ . . ____ . . ____
 72
   65
 73
    6
 40
31.75
 49
12.7
 74
    0
 49
-6.35
 74
    0
 49
0
 74
    0
 49
-6.35
 74
    0
 49
0
 74
    0
 49
-6.35
 74
    0
  0
LTYPE
  5
3F
330
5
100
AcDbSymbolTableRecord
100
AcDbLinetypeTableRecord
  2
DIVIDETINY
 70
    0
  3
Divide (.15x) __..__..__..__..__..__..__..__.._
 72
   65
 73
    6
 40
4.7625
 49
1.905
 74
    0
 49
-0.9525
 74
    0
 49
0
 74
    0
 49
-0.9525
 74
    0
 49
0
 74
    0
 49
-0.9525
 74
    0
  0
LTYPE
  5
40
330
5
100
AcDbSymbolTableRecord
100
AcDbLinetypeTableRecord
  2
DIVIDE2
 70
    0
  3
Divide (.5x) __..__..__..__..__..__..__..__.._
 72
   65
 73
    6
 40
15.875
 49
6.35
 74
    0
 49
-3.175
 74
    0
 49
0
 74
    0
 49
-3.175
 74
    0
 49
0
 74
    0
 49
-3.175
 74
    0
  0
LTYPE
  5
41
330
5
100
AcDbSymbolTableRecord
100
AcDbLinetypeTableRecord
  2
DIVIDEX2
 70
    0
  3
Divide (2x) ________  .  .  ________  .  .  _
 72
   65
 73
    6
 40
63.5
 49
25.4
 74
    0
 49
-12.7
 74
    0
 49
0
 74
    0
 49
-12.7
 74
    0
 49
0
 74
    0
 49
-12.7
 74
    0
  0
LTYPE
  5
42
330
5
100
AcDbSymbolTableRecord
100
AcDbLinetypeTableRecord
  2
BORDER
 70
    0
  3
Border __ __ . __ __ . __ __ . __ __ . __ __ .
 72
   65
 73
    6
 40
44.45
 49
12.7
 74
    0
 49
-6.35
 74
    0
 49
12.7
 74
    0
 49
-6.35
 74
    0
 49
0
 74
    0
 49
-6.35
 74
    0
  0
LTYPE
  5
43
330
5
100
AcDbSymbolTableRecord
100
AcDbLinetypeTableRecord
  2
BORDERTINY
 70
    0
  3
Border (.15x) __.__.__.__.__.__.__.__.__.__.__.
 72
   65
 73
    6
 40
6.6675
 49
1.905
 74
    0
 49
-0.9525
 74
    0
 49
1.905
 74
    0
 49
-0.9525
 74
    0
 49
0
 74
    0
 49
-0.9525
 74
    0
  0
LTYPE
  5
44
330
5
100
AcDbSymbolTableRecord
100
AcDbLinetypeTableRecord
  2
BORDER2
 70
    0
  3
Border (.5x) __.__.__.__.__.__.__.__.__.__.__.
 72
   65
 73
    6
 40
22.225
 49
6.35
 74
    0
 49
-3.175
 74
    0
 49
6.35
 74
    0
 49
-3.175
 74
    0
 49
0
 74
    0
 49
-3.175
 74
    0
  0
LTYPE
  5
45
330
5
100
AcDbSymbolTableRecord
100
AcDbLinetypeTableRecord
  2
BORDERX2
 70
    0
  3
Border (2x) ____  ____  .  ____  ____  .  ___
 72
   65
 73
    6
 40
88.89999999999999
 49
25.4
 74
    0
 49
-12.7
 74
    0
 49
25.4
 74
    0
 49
-12.7
 74
    0
 49
0
 74
    0
 49
-12.7
 74
    0
  0
LTYPE
  5
46
330
5
100
AcDbSymbolTableRecord
100
AcDbLinetypeTableRecord
  2
CENTER
 70
    0
  3
Center ____ _ ____ _ ____ _ ____ _ ____ _ ____
 72
   65
 73
    4
 40
50.8
 49
31.75
 74
    0
 49
-6.35
 74
    0
 49
6.35
 74
    0
 49
-6.35
 74
    0
  0
LTYPE
  5
47
330
5
100
AcDbSymbolTableRecord
100
AcDbLinetypeTableRecord
  2
CENTERTINY
 70
    0
  3
Center (.15x) ___ _ ___ _ ___ _ ___ _ ___ _ ___
 72
   65
 73
    4
 40
7.62
 49
4.7625
 74
    0
 49
-0.9525
 74
    0
 49
0.9525
 74
    0
 49
-0.9525
 74
    0
  0
LTYPE
  5
48
330
5
100
AcDbSymbolTableRecord
100
AcDbLinetypeTableRecord
  2
CENTER2
 70
    0
  3
Center (.5x) ___ _ ___ _ ___ _ ___ _ ___ _ ___
 72
   65
 73
    4
 40
28.575
 49
19.05
 74
    0
 49
-3.175
 74
    0
 49
3.175
 74
    0
 49
-3.175
 74
    0
  0
LTYPE
  5
49
330
5
100
AcDbSymbolTableRecord
100
AcDbLinetypeTableRecord
  2
CENTERX2
 70
    0
  3
Center (2x) ________  __  ________  __  _____
 72
   65
 73
    4
 40
101.6
 49
63.5
 74
    0
 49
-12.7
 74
    0
 49
12.7
 74
    0
 49
-12.7
 74
    0
  0
ENDTAB
  0
TABLE
  2
LAYER
  5
2
330
0
100
AcDbSymbolTable
 70
    1
  0
LAYER
  5
10
330
2
100
AcDbSymbolTableRecord
100
AcDbLayerTableRecord
  2
0
 70
    0
 62
    7
  6
CONTINUOUS
370
   -3
390
F
  0
ENDTAB
  0
TABLE
  2
STYLE
  5
3
330
0
100
AcDbSymbolTable
 70
    3
  0
STYLE
  5
4A
330
2
100
AcDbSymbolTableRecord
100
AcDbTextStyleTableRecord
  2
Standard
 70
    0
 40
0
 41
1
 50
0
 71
    0
 42
1
  3
txt
  4

  0
ENDTAB
  0
TABLE
  2
VIEW
  5
6
330
0
100
AcDbSymbolTable
 70
    0
  0
ENDTAB
  0
TABLE
  2
UCS
  5
7
330
0
100
AcDbSymbolTable
 70
    0
  0
ENDTAB
  0
TABLE
  2
APPID
  5
9
330
0
100
AcDbSymbolTable
 70
    1
  0
APPID
  5
12
330
9
100
AcDbSymbolTableRecord
100
AcDbRegAppTableRecord
  2
ACAD
 70
    0
  0
APPID
  5
4B
330
9
100
AcDbSymbolTableRecord
100
AcDbRegAppTableRecord
  2
LibreCad
 70
    0
  0
ENDTAB
  0
TABLE
  2
DIMSTYLE
  5
A
330
0
100
AcDbSymbolTable
 70
    1
100
AcDbDimStyleTable
 71
    1
  0
DIMSTYLE
105
4C
330
A
100
AcDbSymbolTableRecord
100
AcDbDimStyleTableRecord
  2
Standard
 70
    0
 40
1
 41
3.556
 42
1
 43
0.38
 44
1
 45
0
 46
0
 47
0
 48
0
 49
1
140
3.5
141
0.09
142
0
143
25.4
144
1
145
0
146
1
147
1.524
148
0
 71
    0
 72
    0
 73
    1
 74
    1
 75
    0
 76
    0
 77
    0
 78
    0
 79
    0
170
    0
171
    2
172
    0
173
    0
174
    0
175
    0
176
    0
177
    0
178
    0
179
    0
271
    2
272
    4
273
    2
274
    2
275
    0
276
    0
277
    2
278
   44
279
    0
280
    0
281
    0
282
    0
283
    1
284
    0
285
    0
286
    0
288
    0
289
    3
340
Standard
341

371
   -2
372
   -2
  0
ENDTAB
  0
TABLE
  2
BLOCK_RECORD
  5
1
330
0
100
AcDbSymbolTable
 70
    2
  0
BLOCK_RECORD
  5
1F
330
1
100
AcDbSymbolTableRecord
100
AcDbBlockTableRecord
  2
*Model_Space
 70
    0
280
    1
281
    0
  0
BLOCK_RECORD
  5
1E
330
1
100
AcDbSymbolTableRecord
100
AcDbBlockTableRecord
  2
*Paper_Space
 70
    0
280
    1
281
    0
  0
ENDTAB
  0
ENDSEC
  0
SECTION
  2
BLOCKS
  0
BLOCK
  5
20
330
1F
100
AcDbEntity
  8
0
100
AcDbBlockBegin
  2
*Model_Space
 70
    0
 10
0
 20
0
 30
0
  3
*Model_Space
  1

  0
ENDBLK
  5
21
330
1F
100
AcDbEntity
  8
0
100
AcDbBlockEnd
  0
BLOCK
  5
1C
330
1B
100
AcDbEntity
  8
0
100
AcDbBlockBegin
  2
*Paper_Space
 70
    0
 10
0
 20
0
 30
0
  3
*Paper_Space
  1

  0
ENDBLK
  5
1D
330
1F
100
AcDbEntity
  8
0
100
AcDbBlockEnd
  0
ENDSEC
  0
SECTION
  2
ENTITIES
  0
CIRCLE
  5
4D
100
AcDbEntity
  8
0
  6
CONTINUOUS
 62
    7
370
   25
100
AcDbCircle
 10
29.5375
 20
130.075
 40
3.150000000000034
  0
CIRCLE
  5
4E
100
AcDbEntity
  8
0
  6
CONTINUOUS
 62
    7
370
   25
100
AcDbCircle
 10
122.66875
 20
130.075
 40
3.150000000000006
  0
CIRCLE
  5
4F
100
AcDbEntity
  8
0
  6
CONTINUOUS
 62
    7
370
   25
100
AcDbCircle
 10
215.8
 20
61.9125
 40
3.149999999999949
  0
CIRCLE
  5
50
100
AcDbEntity
  8
0
  6
CONTINUOUS
 62
    7
370
   25
100
AcDbCircle
 10
117.90625
 20
-6.25
 40
3.150000000000017
  0
CIRCLE
  5
51
100
AcDbEntity
  8
0
  6
CONTINUOUS
 62
    7
370
   25
100
AcDbCircle
 10
20.0125
 20
-6.25
 40
3.150000000000008
  0
CIRCLE
  5
52
100
AcDbEntity
  8
0
  6
CONTINUOUS
 62
    7
370
   25
100
AcDbCircle
 10
215.8
 20
-6.25
 40
3.149999999999944
  0
CIRCLE
  5
53
100
AcDbEntity
  8
0
  6
CONTINUOUS
 62
    7
370
   25
100
AcDbCircle
 10
215.8
 20
130.075
 40
3.149999999999949
  0
CIRCLE
  5
54
100
AcDbEntity
  8
0
  6
CONTINUOUS
 62
    7
370
   25
100
AcDbCircle
 10
29.5375
 20
100.0125
 40
3.149999999999991
  0
LINE
  5
55
100
AcDbEntity
  8
0
  6
CONTINUOUS
 62
    7
370
   25
100
AcDbLine
 10
132.6995
 20
77.925
 11
138.6995
 21
77.925
  0
LINE
  5
56
100
AcDbEntity
  8
0
  6
CONTINUOUS
 62
    7
370
   25
100
AcDbLine
 10
139.6792958971
 20
78.72499999999999
 11
155.5957041029
 21
78.72499999999999
  0
LINE
  5
57
100
AcDbEntity
  8
0
  6
CONTINUOUS
 62
    7
370
   25
100
AcDbLine
 10
156.5755
 20
77.925
 11
162.5755
 21
77.925
  0
LINE
  5
58
100
AcDbEntity
  8
0
  6
CONTINUOUS
 62
    7
370
   25
100
AcDbLine
 10
163.5552958971
 20
78.72499999999999
 11
163.6625
 21
78.72499999999999
  0
LINE
  5
59
100
AcDbEntity
  8
0
  6
CONTINUOUS
 62
    7
370
   25
100
AcDbLine
 10
164.1625
 20
79.22499999999999
 11
164.1625
 21
92.22499999999999
  0
LINE
  5
5A
100
AcDbEntity
  8
0
  6
CONTINUOUS
 62
    7
370
   25
100
AcDbLine
 10
131.6125
 20
92.72499999999999
 11
163.6625
 21
92.72499999999999
  0
LINE
  5
5B
100
AcDbEntity
  8
0
  6
CONTINUOUS
 62
    7
370
   25
100
AcDbLine
 10
131.1125
 20
79.22499999999999
 11
131.1125
 21
92.22499999999999
  0
LINE
  5
5C
100
AcDbEntity
  8
0
  6
CONTINUOUS
 62
    7
370
   25
100
AcDbLine
 10
131.6125
 20
78.72499999999999
 11
131.7197041029
 21
78.72499999999999
  0
LINE
  5
5D
100
AcDbEntity
  8
0
  6
CONTINUOUS
 62
    7
370
   25
100
AcDbLine
 10
160.69425
 20
40.325
 11
160.69425
 21
53.325
  0
LINE
  5
5E
100
AcDbEntity
  8
0
  6
CONTINUOUS
 62
    7
370
   25
100
AcDbLine
 10
154.19425
 20
53.825
 11
160.19425
 21
53.825
  0
LINE
  5
5F
100
AcDbEntity
  8
0
  6
CONTINUOUS
 62
    7
370
   25
100
AcDbLine
 10
153.69425
 20
40.325
 11
153.69425
 21
53.325
  0
LINE
  5
60
100
AcDbEntity
  8
0
  6
CONTINUOUS
 62
    7
370
   25
100
AcDbLine
 10
154.19425
 20
39.825
 11
160.19425
 21
39.825
  0
LINE
  5
61
100
AcDbEntity
  8
0
  6
CONTINUOUS
 62
    7
370
   25
100
AcDbLine
 10
130.31825
 20
39.825
 11
136.31825
 21
39.825
  0
LINE
  5
62
100
AcDbEntity
  8
0
  6
CONTINUOUS
 62
    7
370
   25
100
AcDbLine
 10
136.81825
 20
40.325
 11
136.81825
 21
53.325
  0
LINE
  5
63
100
AcDbEntity
  8
0
  6
CONTINUOUS
 62
    7
370
   25
100
AcDbLine
 10
130.31825
 20
53.825
 11
136.31825
 21
53.825
  0
LINE
  5
64
100
AcDbEntity
  8
0
  6
CONTINUOUS
 62
    7
370
   25
100
AcDbLine
 10
129.81825
 20
40.325
 11
129.81825
 21
53.325
  0
LINE
  5
65
100
AcDbEntity
  8
0
  6
CONTINUOUS
 62
    7
370
   25
100
AcDbLine
 10
164.1625
 20
22.075
 11
164.1625
 21
35.075
  0
LINE
  5
66
100
AcDbEntity
  8
0
  6
CONTINUOUS
 62
    7
370
   25
100
AcDbLine
 10
150.6625
 20
35.575
 11
163.6625
 21
35.575
  0
LINE
  5
67
100
AcDbEntity
  8
0
  6
CONTINUOUS
 62
    7
370
   25
100
AcDbLine
 10
149.43175
 20
34.775
 11
149.6827041029
 21
34.775
  0
LINE
  5
68
100
AcDbEntity
  8
0
  6
CONTINUOUS
 62
    7
370
   25
100
AcDbLine
 10
148.93175
 20
21.275
 11
148.93175
 21
34.275
  0
LINE
  5
69
100
AcDbEntity
  8
0
  6
CONTINUOUS
 62
    7
370
   25
100
AcDbLine
 10
149.43175
 20
20.775
 11
155.43175
 21
20.775
  0
LINE
  5
6A
100
AcDbEntity
  8
0
  6
CONTINUOUS
 62
    7
370
   25
100
AcDbLine
 10
156.4115458971
 20
21.575
 11
163.6625
 21
21.575
  0
LINE
  5
6B
100
AcDbEntity
  8
0
  6
CONTINUOUS
 62
    7
370
   25
100
AcDbLine
 10
193.525
 20
121.3
 11
206.525
 21
121.3
  0
LINE
  5
6C
100
AcDbEntity
  8
0
  6
CONTINUOUS
 62
    7
370
   25
100
AcDbLine
 10
193.025
 20
107.8
 11
193.025
 21
120.8
  0
LINE
  5
6D
100
AcDbEntity
  8
0
  6
CONTINUOUS
 62
    7
370
   25
100
AcDbLine
 10
193.525
 20
107.3
 11
206.525
 21
107.3
  0
LINE
  5
6E
100
AcDbEntity
  8
0
  6
CONTINUOUS
 62
    7
370
   25
100
AcDbLine
 10
207.025
 20
107.8
 11
207.025
 21
120.8
  0
LINE
  5
6F
100
AcDbEntity
  8
0
  6
CONTINUOUS
 62
    7
370
   25
100
AcDbLine
 10
174.475
 20
121.3
 11
187.475
 21
121.3
  0
LINE
  5
70
100
AcDbEntity
  8
0
  6
CONTINUOUS
 62
    7
370
   25
100
AcDbLine
 10
173.975
 20
107.8
 11
173.975
 21
120.8
  0
LINE
  5
71
100
AcDbEntity
  8
0
  6
CONTINUOUS
 62
    7
370
   25
100
AcDbLine
 10
174.475
 20
107.3
 11
187.475
 21
107.3
  0
LINE
  5
72
100
AcDbEntity
  8
0
  6
CONTINUOUS
 62
    7
370
   25
100
AcDbLine
 10
187.975
 20
107.8
 11
187.975
 21
120.8
  0
LINE
  5
73
100
AcDbEntity
  8
0
  6
CONTINUOUS
 62
    7
370
   25
100
AcDbLine
 10
150.6625
 20
121.3
 11
163.6625
 21
121.3
  0
LINE
  5
74
100
AcDbEntity
  8
0
  6
CONTINUOUS
 62
    7
370
   25
100
AcDbLine
 10
150.1625
 20
107.8
 11
150.1625
 21
120.8
  0
LINE
  5
75
100
AcDbEntity
  8
0
  6
CONTINUOUS
 62
    7
370
   25
100
AcDbLine
 10
150.6625
 20
107.3
 11
163.6625
 21
107.3
  0
LINE
  5
76
100
AcDbEntity
  8
0
  6
CONTINUOUS
 62
    7
370
   25
100
AcDbLine
 10
164.1625
 20
107.8
 11
164.1625
 21
120.8
  0
LINE
  5
77
100
AcDbEntity
  8
0
  6
CONTINUOUS
 62
    7
370
   25
100
AcDbLine
 10
126.85
 20
121.3
 11
139.85
 21
121.3
  0
LINE
  5
78
100
AcDbEntity
  8
0
  6
CONTINUOUS
 62
    7
370
   25
100
AcDbLine
 10
126.35
 20
107.8
 11
126.35
 21
120.8
  0
LINE
  5
79
100
AcDbEntity
  8
0
  6
CONTINUOUS
 62
    7
370
   25
100
AcDbLine
 10
126.85
 20
107.3
 11
139.85
 21
107.3
  0
LINE
  5
7A
100
AcDbEntity
  8
0
  6
CONTINUOUS
 62
    7
370
   25
100
AcDbLine
 10
140.35
 20
107.8
 11
140.35
 21
120.8
  0
LINE
  5
7B
100
AcDbEntity
  8
0
  6
CONTINUOUS
 62
    7
370
   25
100
AcDbLine
 10
107.8
 20
121.3
 11
120.8
 21
121.3
  0
LINE
  5
7C
100
AcDbEntity
  8
0
  6
CONTINUOUS
 62
    7
370
   25
100
AcDbLine
 10
107.3
 20
107.8
 11
107.3
 21
120.8
  0
LINE
  5
7D
100
AcDbEntity
  8
0
  6
CONTINUOUS
 62
    7
370
   25
100
AcDbLine
 10
107.8
 20
107.3
 11
120.8
 21
107.3
  0
LINE
  5
7E
100
AcDbEntity
  8
0
  6
CONTINUOUS
 62
    7
370
   25
100
AcDbLine
 10
121.3
 20
107.8
 11
121.3
 21
120.8
  0
LINE
  5
7F
100
AcDbEntity
  8
0
  6
CONTINUOUS
 62
    7
370
   25
100
AcDbLine
 10
88.75
 20
121.3
 11
101.75
 21
121.3
  0
LINE
  5
80
100
AcDbEntity
  8
0
  6
CONTINUOUS
 62
    7
370
   25
100
AcDbLine
 10
88.25
 20
107.8
 11
88.25
 21
120.8
  0
LINE
  5
81
100
AcDbEntity
  8
0
  6
CONTINUOUS
 62
    7
370
   25
100
AcDbLine
 10
88.75
 20
107.3
 11
101.75
 21
107.3
  0
LINE
  5
82
100
AcDbEntity
  8
0
  6
CONTINUOUS
 62
    7
370
   25
100
AcDbLine
 10
102.25
 20
107.8
 11
102.25
 21
120.8
  0
LINE
  5
83
100
AcDbEntity
  8
0
  6
CONTINUOUS
 62
    7
370
   25
100
AcDbLine
 10
69.7
 20
121.3
 11
82.7
 21
121.3
  0
LINE
  5
84
100
AcDbEntity
  8
0
  6
CONTINUOUS
 62
    7
370
   25
100
AcDbLine
 10
69.2
 20
107.8
 11
69.2
 21
120.8
  0
LINE
  5
85
100
AcDbEntity
  8
0
  6
CONTINUOUS
 62
    7
370
   25
100
AcDbLine
 10
69.7
 20
107.3
 11
82.7
 21
107.3
  0
LINE
  5
86
100
AcDbEntity
  8
0
  6
CONTINUOUS
 62
    7
370
   25
100
AcDbLine
 10
83.2
 20
107.8
 11
83.2
 21
120.8
  0
LINE
  5
87
100
AcDbEntity
  8
0
  6
CONTINUOUS
 62
    7
370
   25
100
AcDbLine
 10
45.8875
 20
121.3
 11
58.8875
 21
121.3
  0
LINE
  5
88
100
AcDbEntity
  8
0
  6
CONTINUOUS
 62
    7
370
   25
100
AcDbLine
 10
45.3875
 20
107.8
 11
45.3875
 21
120.8
  0
LINE
  5
89
100
AcDbEntity
  8
0
  6
CONTINUOUS
 62
    7
370
   25
100
AcDbLine
 10
45.8875
 20
107.3
 11
58.8875
 21
107.3
  0
LINE
  5
8A
100
AcDbEntity
  8
0
  6
CONTINUOUS
 62
    7
370
   25
100
AcDbLine
 10
59.3875
 20
107.8
 11
59.3875
 21
120.8
  0
LINE
  5
8B
100
AcDbEntity
  8
0
  6
CONTINUOUS
 62
    7
370
   25
100
AcDbLine
 10
26.8375
 20
121.3
 11
39.8375
 21
121.3
  0
LINE
  5
8C
100
AcDbEntity
  8
0
  6
CONTINUOUS
 62
    7
370
   25
100
AcDbLine
 10
26.3375
 20
107.8
 11
26.3375
 21
120.8
  0
LINE
  5
8D
100
AcDbEntity
  8
0
  6
CONTINUOUS
 62
    7
370
   25
100
AcDbLine
 10
26.8375
 20
107.3
 11
39.8375
 21
107.3
  0
LINE
  5
8E
100
AcDbEntity
  8
0
  6
CONTINUOUS
 62
    7
370
   25
100
AcDbLine
 10
40.3375
 20
107.8
 11
40.3375
 21
120.8
  0
LINE
  5
8F
100
AcDbEntity
  8
0
  6
CONTINUOUS
 62
    7
370
   25
100
AcDbLine
 10
174.475
 20
92.72499999999999
 11
187.475
 21
92.72499999999999
  0
LINE
  5
90
100
AcDbEntity
  8
0
  6
CONTINUOUS
 62
    7
370
   25
100
AcDbLine
 10
173.975
 20
79.22499999999999
 11
173.975
 21
92.22499999999999
  0
LINE
  5
91
100
AcDbEntity
  8
0
  6
CONTINUOUS
 62
    7
370
   25
100
AcDbLine
 10
174.475
 20
78.72499999999999
 11
187.475
 21
78.72499999999999
  0
LINE
  5
92
100
AcDbEntity
  8
0
  6
CONTINUOUS
 62
    7
370
   25
100
AcDbLine
 10
187.975
 20
79.22499999999999
 11
187.975
 21
92.22499999999999
  0
LINE
  5
93
100
AcDbEntity
  8
0
  6
CONTINUOUS
 62
    7
370
   25
100
AcDbLine
 10
193.525
 20
92.72499999999999
 11
206.525
 21
92.72499999999999
  0
LINE
  5
94
100
AcDbEntity
  8
0
  6
CONTINUOUS
 62
    7
370
   25
100
AcDbLine
 10
193.025
 20
79.22499999999999
 11
193.025
 21
92.22499999999999
  0
LINE
  5
95
100
AcDbEntity
  8
0
  6
CONTINUOUS
 62
    7
370
   25
100
AcDbLine
 10
193.525
 20
78.72499999999999
 11
206.525
 21
78.72499999999999
  0
LINE
  5
96
100
AcDbEntity
  8
0
  6
CONTINUOUS
 62
    7
370
   25
100
AcDbLine
 10
207.025
 20
79.22499999999999
 11
207.025
 21
92.22499999999999
  0
LINE
  5
97
100
AcDbEntity
  8
0
  6
CONTINUOUS
 62
    7
370
   25
100
AcDbLine
 10
174.475
 20
73.675
 11
187.475
 21
73.675
  0
LINE
  5
98
100
AcDbEntity
  8
0
  6
CONTINUOUS
 62
    7
370
   25
100
AcDbLine
 10
173.975
 20
60.175
 11
173.975
 21
73.175
  0
LINE
  5
99
100
AcDbEntity
  8
0
  6
CONTINUOUS
 62
    7
370
   25
100
AcDbLine
 10
174.475
 20
59.675
 11
187.475
 21
59.675
  0
LINE
  5
9A
100
AcDbEntity
  8
0
  6
CONTINUOUS
 62
    7
370
   25
100
AcDbLine
 10
187.975
 20
60.175
 11
187.975
 21
73.175
  0
LINE
  5
9B
100
AcDbEntity
  8
0
  6
CONTINUOUS
 62
    7
370
   25
100
AcDbLine
 10
193.525
 20
73.675
 11
206.525
 21
73.675
  0
LINE
  5
9C
100
AcDbEntity
  8
0
  6
CONTINUOUS
 62
    7
370
   25
100
AcDbLine
 10
193.025
 20
60.175
 11
193.025
 21
73.175
  0
LINE
  5
9D
100
AcDbEntity
  8
0
  6
CONTINUOUS
 62
    7
370
   25
100
AcDbLine
 10
193.525
 20
59.675
 11
206.525
 21
59.675
  0
LINE
  5
9E
100
AcDbEntity
  8
0
  6
CONTINUOUS
 62
    7
370
   25
100
AcDbLine
 10
207.025
 20
60.175
 11
207.025
 21
73.175
  0
LINE
  5
9F
100
AcDbEntity
  8
0
  6
CONTINUOUS
 62
    7
370
   25
100
AcDbLine
 10
174.475
 20
54.625
 11
187.475
 21
54.625
  0
LINE
  5
A0
100
AcDbEntity
  8
0
  6
CONTINUOUS
 62
    7
370
   25
100
AcDbLine
 10
173.975
 20
41.125
 11
173.975
 21
54.125
  0
LINE
  5
A1
100
AcDbEntity
  8
0
  6
CONTINUOUS
 62
    7
370
   25
100
AcDbLine
 10
174.475
 20
40.625
 11
187.475
 21
40.625
  0
LINE
  5
A2
100
AcDbEntity
  8
0
  6
CONTINUOUS
 62
    7
370
   25
100
AcDbLine
 10
187.975
 20
41.125
 11
187.975
 21
54.125
  0
LINE
  5
A3
100
AcDbEntity
  8
0
  6
CONTINUOUS
 62
    7
370
   25
100
AcDbLine
 10
193.525
 20
54.625
 11
206.525
 21
54.625
  0
LINE
  5
A4
100
AcDbEntity
  8
0
  6
CONTINUOUS
 62
    7
370
   25
100
AcDbLine
 10
193.025
 20
41.125
 11
193.025
 21
54.125
  0
LINE
  5
A5
100
AcDbEntity
  8
0
  6
CONTINUOUS
 62
    7
370
   25
100
AcDbLine
 10
193.525
 20
40.625
 11
206.525
 21
40.625
  0
LINE
  5
A6
100
AcDbEntity
  8
0
  6
CONTINUOUS
 62
    7
370
   25
100
AcDbLine
 10
207.025
 20
41.125
 11
207.025
 21
54.125
  0
LINE
  5
A7
100
AcDbEntity
  8
0
  6
CONTINUOUS
 62
    7
370
   25
100
AcDbLine
 10
174.475
 20
30.8125
 11
187.475
 21
30.8125
  0
LINE
  5
A8
100
AcDbEntity
  8
0
  6
CONTINUOUS
 62
    7
370
   25
100
AcDbLine
 10
173.975
 20
17.3125
 11
173.975
 21
30.3125
  0
LINE
  5
A9
100
AcDbEntity
  8
0
  6
CONTINUOUS
 62
    7
370
   25
100
AcDbLine
 10
174.475
 20
16.8125
 11
187.475
 21
16.8125
  0
LINE
  5
AA
100
AcDbEntity
  8
0
  6
CONTINUOUS
 62
    7
370
   25
100
AcDbLine
 10
187.975
 20
17.3125
 11
187.975
 21
30.3125
  0
LINE
  5
AB
100
AcDbEntity
  8
0
  6
CONTINUOUS
 62
    7
370
   25
100
AcDbLine
 10
112.5625
 20
92.72499999999999
 11
125.5625
 21
92.72499999999999
  0
LINE
  5
AC
100
AcDbEntity
  8
0
  6
CONTINUOUS
 62
    7
370
   25
100
AcDbLine
 10
112.0625
 20
79.22499999999999
 11
112.0625
 21
92.22499999999999
  0
LINE
  5
AD
100
AcDbEntity
  8
0
  6
CONTINUOUS
 62
    7
370
   25
100
AcDbLine
 10
112.5625
 20
78.72499999999999
 11
125.5625
 21
78.72499999999999
  0
LINE
  5
AE
100
AcDbEntity
  8
0
  6
CONTINUOUS
 62
    7
370
   25
100
AcDbLine
 10
126.0625
 20
79.22499999999999
 11
126.0625
 21
92.22499999999999
  0
LINE
  5
AF
100
AcDbEntity
  8
0
  6
CONTINUOUS
 62
    7
370
   25
100
AcDbLine
 10
93.5125
 20
92.72499999999999
 11
106.5125
 21
92.72499999999999
  0
LINE
  5
B0
100
AcDbEntity
  8
0
  6
CONTINUOUS
 62
    7
370
   25
100
AcDbLine
 10
93.0125
 20
79.22499999999999
 11
93.0125
 21
92.22499999999999
  0
LINE
  5
B1
100
AcDbEntity
  8
0
  6
CONTINUOUS
 62
    7
370
   25
100
AcDbLine
 10
93.5125
 20
78.72499999999999
 11
106.5125
 21
78.72499999999999
  0
LINE
  5
B2
100
AcDbEntity
  8
0
  6
CONTINUOUS
 62
    7
370
   25
100
AcDbLine
 10
107.0125
 20
79.22499999999999
 11
107.0125
 21
92.22499999999999
  0
LINE
  5
B3
100
AcDbEntity
  8
0
  6
CONTINUOUS
 62
    7
370
   25
100
AcDbLine
 10
74.46250000000001
 20
92.72499999999999
 11
87.46250000000001
 21
92.72499999999999
  0
LINE
  5
B4
100
AcDbEntity
  8
0
  6
CONTINUOUS
 62
    7
370
   25
100
AcDbLine
 10
73.96250000000001
 20
79.22499999999999
 11
73.96250000000001
 21
92.22499999999999
  0
LINE
  5
B5
100
AcDbEntity
  8
0
  6
CONTINUOUS
 62
    7
370
   25
100
AcDbLine
 10
74.46250000000001
 20
78.72499999999999
 11
87.46250000000001
 21
78.72499999999999
  0
LINE
  5
B6
100
AcDbEntity
  8
0
  6
CONTINUOUS
 62
    7
370
   25
100
AcDbLine
 10
87.96250000000001
 20
79.22499999999999
 11
87.96250000000001
 21
92.22499999999999
  0
LINE
  5
B7
100
AcDbEntity
  8
0
  6
CONTINUOUS
 62
    7
370
   25
100
AcDbLine
 10
55.4125
 20
92.72499999999999
 11
68.41249999999999
 21
92.72499999999999
  0
LINE
  5
B8
100
AcDbEntity
  8
0
  6
CONTINUOUS
 62
    7
370
   25
100
AcDbLine
 10
54.9125
 20
79.22499999999999
 11
54.9125
 21
92.22499999999999
  0
LINE
  5
B9
100
AcDbEntity
  8
0
  6
CONTINUOUS
 62
    7
370
   25
100
AcDbLine
 10
55.4125
 20
78.72499999999999
 11
68.41249999999999
 21
78.72499999999999
  0
LINE
  5
BA
100
AcDbEntity
  8
0
  6
CONTINUOUS
 62
    7
370
   25
100
AcDbLine
 10
68.91249999999999
 20
79.22499999999999
 11
68.91249999999999
 21
92.22499999999999
  0
LINE
  5
BB
100
AcDbEntity
  8
0
  6
CONTINUOUS
 62
    7
370
   25
100
AcDbLine
 10
36.3625
 20
92.72499999999999
 11
49.3625
 21
92.72499999999999
  0
LINE
  5
BC
100
AcDbEntity
  8
0
  6
CONTINUOUS
 62
    7
370
   25
100
AcDbLine
 10
35.8625
 20
79.22499999999999
 11
35.8625
 21
92.22499999999999
  0
LINE
  5
BD
100
AcDbEntity
  8
0
  6
CONTINUOUS
 62
    7
370
   25
100
AcDbLine
 10
36.3625
 20
78.72499999999999
 11
49.3625
 21
78.72499999999999
  0
LINE
  5
BE
100
AcDbEntity
  8
0
  6
CONTINUOUS
 62
    7
370
   25
100
AcDbLine
 10
49.8625
 20
79.22499999999999
 11
49.8625
 21
92.22499999999999
  0
LINE
  5
BF
100
AcDbEntity
  8
0
  6
CONTINUOUS
 62
    7
370
   25
100
AcDbLine
 10
17.3125
 20
92.72499999999999
 11
30.3125
 21
92.72499999999999
  0
LINE
  5
C0
100
AcDbEntity
  8
0
  6
CONTINUOUS
 62
    7
370
   25
100
AcDbLine
 10
16.8125
 20
79.22499999999999
 11
16.8125
 21
92.22499999999999
  0
LINE
  5
C1
100
AcDbEntity
  8
0
  6
CONTINUOUS
 62
    7
370
   25
100
AcDbLine
 10
17.3125
 20
78.72499999999999
 11
30.3125
 21
78.72499999999999
  0
LINE
  5
C2
100
AcDbEntity
  8
0
  6
CONTINUOUS
 62
    7
370
   25
100
AcDbLine
 10
30.8125
 20
79.22499999999999
 11
30.8125
 21
92.22499999999999
  0
LINE
  5
C3
100
AcDbEntity
  8
0
  6
CONTINUOUS
 62
    7
370
   25
100
AcDbLine
 10
145.9
 20
73.675
 11
158.9
 21
73.675
  0
LINE
  5
C4
100
AcDbEntity
  8
0
  6
CONTINUOUS
 62
    7
370
   25
100
AcDbLine
 10
145.4
 20
60.175
 11
145.4
 21
73.175
  0
LINE
  5
C5
100
AcDbEntity
  8
0
  6
CONTINUOUS
 62
    7
370
   25
100
AcDbLine
 10
145.9
 20
59.675
 11
158.9
 21
59.675
  0
LINE
  5
C6
100
AcDbEntity
  8
0
  6
CONTINUOUS
 62
    7
370
   25
100
AcDbLine
 10
159.4
 20
60.175
 11
159.4
 21
73.175
  0
LINE
  5
C7
100
AcDbEntity
  8
0
  6
CONTINUOUS
 62
    7
370
   25
100
AcDbLine
 10
122.0875
 20
73.675
 11
135.0875
 21
73.675
  0
LINE
  5
C8
100
AcDbEntity
  8
0
  6
CONTINUOUS
 62
    7
370
   25
100
AcDbLine
 10
121.5875
 20
60.175
 11
121.5875
 21
73.175
  0
LINE
  5
C9
100
AcDbEntity
  8
0
  6
CONTINUOUS
 62
    7
370
   25
100
AcDbLine
 10
122.0875
 20
59.675
 11
135.0875
 21
59.675
  0
LINE
  5
CA
100
AcDbEntity
  8
0
  6
CONTINUOUS
 62
    7
370
   25
100
AcDbLine
 10
135.5875
 20
60.175
 11
135.5875
 21
73.175
  0
LINE
  5
CB
100
AcDbEntity
  8
0
  6
CONTINUOUS
 62
    7
370
   25
100
AcDbLine
 10
103.0375
 20
73.675
 11
116.0375
 21
73.675
  0
LINE
  5
CC
100
AcDbEntity
  8
0
  6
CONTINUOUS
 62
    7
370
   25
100
AcDbLine
 10
102.5375
 20
60.175
 11
102.5375
 21
73.175
  0
LINE
  5
CD
100
AcDbEntity
  8
0
  6
CONTINUOUS
 62
    7
370
   25
100
AcDbLine
 10
103.0375
 20
59.675
 11
116.0375
 21
59.675
  0
LINE
  5
CE
100
AcDbEntity
  8
0
  6
CONTINUOUS
 62
    7
370
   25
100
AcDbLine
 10
116.5375
 20
60.175
 11
116.5375
 21
73.175
  0
LINE
  5
CF
100
AcDbEntity
  8
0
  6
CONTINUOUS
 62
    7
370
   25
100
AcDbLine
 10
83.9875
 20
73.675
 11
96.9875
 21
73.675
  0
LINE
  5
D0
100
AcDbEntity
  8
0
  6
CONTINUOUS
 62
    7
370
   25
100
AcDbLine
 10
83.4875
 20
60.175
 11
83.4875
 21
73.175
  0
LINE
  5
D1
100
AcDbEntity
  8
0
  6
CONTINUOUS
 62
    7
370
   25
100
AcDbLine
 10
83.9875
 20
59.675
 11
96.9875
 21
59.675
  0
LINE
  5
D2
100
AcDbEntity
  8
0
  6
CONTINUOUS
 62
    7
370
   25
100
AcDbLine
 10
97.4875
 20
60.175
 11
97.4875
 21
73.175
  0
LINE
  5
D3
100
AcDbEntity
  8
0
  6
CONTINUOUS
 62
    7
370
   25
100
AcDbLine
 10
64.9375
 20
73.675
 11
77.9375
 21
73.675
  0
LINE
  5
D4
100
AcDbEntity
  8
0
  6
CONTINUOUS
 62
    7
370
   25
100
AcDbLine
 10
64.4375
 20
60.175
 11
64.4375
 21
73.175
  0
LINE
  5
D5
100
AcDbEntity
  8
0
  6
CONTINUOUS
 62
    7
370
   25
100
AcDbLine
 10
64.9375
 20
59.675
 11
77.9375
 21
59.675
  0
LINE
  5
D6
100
AcDbEntity
  8
0
  6
CONTINUOUS
 62
    7
370
   25
100
AcDbLine
 10
78.4375
 20
60.175
 11
78.4375
 21
73.175
  0
LINE
  5
D7
100
AcDbEntity
  8
0
  6
CONTINUOUS
 62
    7
370
   25
100
AcDbLine
 10
45.8875
 20
73.675
 11
58.8875
 21
73.675
  0
LINE
  5
D8
100
AcDbEntity
  8
0
  6
CONTINUOUS
 62
    7
370
   25
100
AcDbLine
 10
45.3875
 20
60.175
 11
45.3875
 21
73.175
  0
LINE
  5
D9
100
AcDbEntity
  8
0
  6
CONTINUOUS
 62
    7
370
   25
100
AcDbLine
 10
45.8875
 20
59.675
 11
58.8875
 21
59.675
  0
LINE
  5
DA
100
AcDbEntity
  8
0
  6
CONTINUOUS
 62
    7
370
   25
100
AcDbLine
 10
59.3875
 20
60.175
 11
59.3875
 21
73.175
  0
LINE
  5
DB
100
AcDbEntity
  8
0
  6
CONTINUOUS
 62
    7
370
   25
100
AcDbLine
 10
26.8375
 20
73.675
 11
39.8375
 21
73.675
  0
LINE
  5
DC
100
AcDbEntity
  8
0
  6
CONTINUOUS
 62
    7
370
   25
100
AcDbLine
 10
26.3375
 20
60.175
 11
26.3375
 21
73.175
  0
LINE
  5
DD
100
AcDbEntity
  8
0
  6
CONTINUOUS
 62
    7
370
   25
100
AcDbLine
 10
26.8375
 20
59.675
 11
39.8375
 21
59.675
  0
LINE
  5
DE
100
AcDbEntity
  8
0
  6
CONTINUOUS
 62
    7
370
   25
100
AcDbLine
 10
40.3375
 20
60.175
 11
40.3375
 21
73.175
  0
LINE
  5
DF
100
AcDbEntity
  8
0
  6
CONTINUOUS
 62
    7
370
   25
100
AcDbLine
 10
7.7875
 20
73.675
 11
20.7875
 21
73.675
  0
LINE
  5
E0
100
AcDbEntity
  8
0
  6
CONTINUOUS
 62
    7
370
   25
100
AcDbLine
 10
7.2875
 20
60.175
 11
7.2875
 21
73.175
  0
LINE
  5
E1
100
AcDbEntity
  8
0
  6
CONTINUOUS
 62
    7
370
   25
100
AcDbLine
 10
7.7875
 20
59.675
 11
20.7875
 21
59.675
  0
LINE
  5
E2
100
AcDbEntity
  8
0
  6
CONTINUOUS
 62
    7
370
   25
100
AcDbLine
 10
21.2875
 20
60.175
 11
21.2875
 21
73.175
  0
LINE
  5
E3
100
AcDbEntity
  8
0
  6
CONTINUOUS
 62
    7
370
   25
100
AcDbLine
 10
138.75625
 20
54.625
 11
151.75625
 21
54.625
  0
LINE
  5
E4
100
AcDbEntity
  8
0
  6
CONTINUOUS
 62
    7
370
   25
100
AcDbLine
 10
138.25625
 20
41.125
 11
138.25625
 21
54.125
  0
LINE
  5
E5
100
AcDbEntity
  8
0
  6
CONTINUOUS
 62
    7
370
   25
100
AcDbLine
 10
138.75625
 20
40.625
 11
151.75625
 21
40.625
  0
LINE
  5
E6
100
AcDbEntity
  8
0
  6
CONTINUOUS
 62
    7
370
   25
100
AcDbLine
 10
152.25625
 20
41.125
 11
152.25625
 21
54.125
  0
LINE
  5
E7
100
AcDbEntity
  8
0
  6
CONTINUOUS
 62
    7
370
   25
100
AcDbLine
 10
107.8
 20
54.625
 11
120.8
 21
54.625
  0
LINE
  5
E8
100
AcDbEntity
  8
0
  6
CONTINUOUS
 62
    7
370
   25
100
AcDbLine
 10
107.3
 20
41.125
 11
107.3
 21
54.125
  0
LINE
  5
E9
100
AcDbEntity
  8
0
  6
CONTINUOUS
 62
    7
370
   25
100
AcDbLine
 10
107.8
 20
40.625
 11
120.8
 21
40.625
  0
LINE
  5
EA
100
AcDbEntity
  8
0
  6
CONTINUOUS
 62
    7
370
   25
100
AcDbLine
 10
121.3
 20
41.125
 11
121.3
 21
54.125
  0
LINE
  5
EB
100
AcDbEntity
  8
0
  6
CONTINUOUS
 62
    7
370
   25
100
AcDbLine
 10
88.75
 20
54.625
 11
101.75
 21
54.625
  0
LINE
  5
EC
100
AcDbEntity
  8
0
  6
CONTINUOUS
 62
    7
370
   25
100
AcDbLine
 10
88.25
 20
41.125
 11
88.25
 21
54.125
  0
LINE
  5
ED
100
AcDbEntity
  8
0
  6
CONTINUOUS
 62
    7
370
   25
100
AcDbLine
 10
88.75
 20
40.625
 11
101.75
 21
40.625
  0
LINE
  5
EE
100
AcDbEntity
  8
0
  6
CONTINUOUS
 62
    7
370
   25
100
AcDbLine
 10
102.25
 20
41.125
 11
102.25
 21
54.125
  0
LINE
  5
EF
100
AcDbEntity
  8
0
  6
CONTINUOUS
 62
    7
370
   25
100
AcDbLine
 10
69.7
 20
54.625
 11
82.7
 21
54.625
  0
LINE
  5
F0
100
AcDbEntity
  8
0
  6
CONTINUOUS
 62
    7
370
   25
100
AcDbLine
 10
69.2
 20
41.125
 11
69.2
 21
54.125
  0
LINE
  5
F1
100
AcDbEntity
  8
0
  6
CONTINUOUS
 62
    7
370
   25
100
AcDbLine
 10
69.7
 20
40.625
 11
83.2
 21
40.625
  0
LINE
  5
F2
100
AcDbEntity
  8
0
  6
CONTINUOUS
 62
    7
370
   25
100
AcDbLine
 10
83.2
 20
40.625
 11
83.2
 21
54.125
  0
LINE
  5
F3
100
AcDbEntity
  8
0
  6
CONTINUOUS
 62
    7
370
   25
100
AcDbLine
 10
50.65
 20
54.625
 11
63.65
 21
54.625
  0
LINE
  5
F4
100
AcDbEntity
  8
0
  6
CONTINUOUS
 62
    7
370
   25
100
AcDbLine
 10
50.15
 20
41.125
 11
50.15
 21
54.125
  0
LINE
  5
F5
100
AcDbEntity
  8
0
  6
CONTINUOUS
 62
    7
370
   25
100
AcDbLine
 10
50.65
 20
40.625
 11
63.65
 21
40.625
  0
LINE
  5
F6
100
AcDbEntity
  8
0
  6
CONTINUOUS
 62
    7
370
   25
100
AcDbLine
 10
64.15000000000001
 20
41.125
 11
64.15000000000001
 21
54.125
  0
LINE
  5
F7
100
AcDbEntity
  8
0
  6
CONTINUOUS
 62
    7
370
   25
100
AcDbLine
 10
31.6
 20
54.625
 11
44.6
 21
54.625
  0
LINE
  5
F8
100
AcDbEntity
  8
0
  6
CONTINUOUS
 62
    7
370
   25
100
AcDbLine
 10
31.1
 20
41.125
 11
31.1
 21
54.125
  0
LINE
  5
F9
100
AcDbEntity
  8
0
  6
CONTINUOUS
 62
    7
370
   25
100
AcDbLine
 10
31.6
 20
40.625
 11
44.6
 21
40.625
  0
LINE
  5
FA
100
AcDbEntity
  8
0
  6
CONTINUOUS
 62
    7
370
   25
100
AcDbLine
 10
45.1
 20
41.125
 11
45.1
 21
54.125
  0
LINE
  5
FB
100
AcDbEntity
  8
0
  6
CONTINUOUS
 62
    7
370
   25
100
AcDbLine
 10
12.55
 20
54.625
 11
25.55
 21
54.625
  0
LINE
  5
FC
100
AcDbEntity
  8
0
  6
CONTINUOUS
 62
    7
370
   25
100
AcDbLine
 10
12.05
 20
41.125
 11
12.05
 21
54.125
  0
LINE
  5
FD
100
AcDbEntity
  8
0
  6
CONTINUOUS
 62
    7
370
   25
100
AcDbLine
 10
12.55
 20
40.625
 11
25.55
 21
40.625
  0
LINE
  5
FE
100
AcDbEntity
  8
0
  6
CONTINUOUS
 62
    7
370
   25
100
AcDbLine
 10
26.05
 20
41.125
 11
26.05
 21
54.125
  0
LINE
  5
FF
100
AcDbEntity
  8
0
  6
CONTINUOUS
 62
    7
370
   25
100
AcDbLine
 10
98.27500000000001
 20
35.575
 11
111.275
 21
35.575
  0
LINE
  5
100
100
AcDbEntity
  8
0
  6
CONTINUOUS
 62
    7
370
   25
100
AcDbLine
 10
97.77500000000001
 20
22.075
 11
97.77500000000001
 21
35.075
  0
LINE
  5
101
100
AcDbEntity
  8
0
  6
CONTINUOUS
 62
    7
370
   25
100
AcDbLine
 10
98.27500000000001
 20
21.575
 11
111.275
 21
21.575
  0
LINE
  5
102
100
AcDbEntity
  8
0
  6
CONTINUOUS
 62
    7
370
   25
100
AcDbLine
 10
111.775
 20
22.075
 11
111.775
 21
35.075
  0
LINE
  5
103
100
AcDbEntity
  8
0
  6
CONTINUOUS
 62
    7
370
   25
100
AcDbLine
 10
79.22499999999999
 20
35.575
 11
92.22499999999999
 21
35.575
  0
LINE
  5
104
100
AcDbEntity
  8
0
  6
CONTINUOUS
 62
    7
370
   25
100
AcDbLine
 10
78.72499999999999
 20
22.075
 11
78.72499999999999
 21
35.075
  0
LINE
  5
105
100
AcDbEntity
  8
0
  6
CONTINUOUS
 62
    7
370
   25
100
AcDbLine
 10
79.22499999999999
 20
21.575
 11
92.22499999999999
 21
21.575
  0
LINE
  5
106
100
AcDbEntity
  8
0
  6
CONTINUOUS
 62
    7
370
   25
100
AcDbLine
 10
92.72499999999999
 20
22.075
 11
92.72499999999999
 21
35.075
  0
LINE
  5
107
100
AcDbEntity
  8
0
  6
CONTINUOUS
 62
    7
370
   25
100
AcDbLine
 10
60.175
 20
35.575
 11
73.175
 21
35.575
  0
LINE
  5
108
100
AcDbEntity
  8
0
  6
CONTINUOUS
 62
    7
370
   25
100
AcDbLine
 10
59.675
 20
22.075
 11
59.675
 21
35.075
  0
LINE
  5
109
100
AcDbEntity
  8
0
  6
CONTINUOUS
 62
    7
370
   25
100
AcDbLine
 10
60.175
 20
21.575
 11
73.175
 21
21.575
  0
LINE
  5
10A
100
AcDbEntity
  8
0
  6
CONTINUOUS
 62
    7
370
   25
100
AcDbLine
 10
73.675
 20
22.075
 11
73.675
 21
35.075
  0
LINE
  5
10B
100
AcDbEntity
  8
0
  6
CONTINUOUS
 62
    7
370
   25
100
AcDbLine
 10
41.125
 20
35.575
 11
54.125
 21
35.575
  0
LINE
  5
10C
100
AcDbEntity
  8
0
  6
CONTINUOUS
 62
    7
370
   25
100
AcDbLine
 10
40.625
 20
22.075
 11
40.625
 21
35.075
  0
LINE
  5
10D
100
AcDbEntity
  8
0
  6
CONTINUOUS
 62
    7
370
   25
100
AcDbLine
 10
41.125
 20
21.575
 11
54.125
 21
21.575
  0
LINE
  5
10E
100
AcDbEntity
  8
0
  6
CONTINUOUS
 62
    7
370
   25
100
AcDbLine
 10
54.625
 20
22.075
 11
54.625
 21
35.075
  0
LINE
  5
10F
100
AcDbEntity
  8
0
  6
CONTINUOUS
 62
    7
370
   25
100
AcDbLine
 10
22.075
 20
35.575
 11
35.075
 21
35.575
  0
LINE
  5
110
100
AcDbEntity
  8
0
  6
CONTINUOUS
 62
    7
370
   25
100
AcDbLine
 10
21.575
 20
22.075
 11
21.575
 21
35.075
  0
LINE
  5
111
100
AcDbEntity
  8
0
  6
CONTINUOUS
 62
    7
370
   25
100
AcDbLine
 10
22.075
 20
21.575
 11
35.075
 21
21.575
  0
LINE
  5
112
100
AcDbEntity
  8
0
  6
CONTINUOUS
 62
    7
370
   25
100
AcDbLine
 10
35.575
 20
22.075
 11
35.575
 21
35.075
  0
LINE
  5
113
100
AcDbEntity
  8
0
  6
CONTINUOUS
 62
    7
370
   25
100
AcDbLine
 10
207.025
 20
-1.7375
 11
207.025
 21
11.2625
  0
LINE
  5
114
100
AcDbEntity
  8
0
  6
CONTINUOUS
 62
    7
370
   25
100
AcDbLine
 10
193.525
 20
11.7625
 11
206.525
 21
11.7625
  0
LINE
  5
115
100
AcDbEntity
  8
0
  6
CONTINUOUS
 62
    7
370
   25
100
AcDbLine
 10
193.025
 20
-1.7375
 11
193.025
 21
11.2625
  0
LINE
  5
116
100
AcDbEntity
  8
0
  6
CONTINUOUS
 62
    7
370
   25
100
AcDbLine
 10
193.525
 20
-2.2375
 11
206.525
 21
-2.2375
  0
LINE
  5
117
100
AcDbEntity
  8
0
  6
CONTINUOUS
 62
    7
370
   25
100
AcDbLine
 10
187.975
 20
-1.7375
 11
187.975
 21
11.2625
  0
LINE
  5
118
100
AcDbEntity
  8
0
  6
CONTINUOUS
 62
    7
370
   25
100
AcDbLine
 10
174.475
 20
11.7625
 11
187.475
 21
11.7625
  0
LINE
  5
119
100
AcDbEntity
  8
0
  6
CONTINUOUS
 62
    7
370
   25
100
AcDbLine
 10
173.975
 20
-1.7375
 11
173.975
 21
11.2625
  0
LINE
  5
11A
100
AcDbEntity
  8
0
  6
CONTINUOUS
 62
    7
370
   25
100
AcDbLine
 10
174.475
 20
-2.2375
 11
187.475
 21
-2.2375
  0
LINE
  5
11B
100
AcDbEntity
  8
0
  6
CONTINUOUS
 62
    7
370
   25
100
AcDbLine
 10
168.925
 20
-1.7375
 11
168.925
 21
11.2625
  0
LINE
  5
11C
100
AcDbEntity
  8
0
  6
CONTINUOUS
 62
    7
370
   25
100
AcDbLine
 10
155.425
 20
11.7625
 11
168.425
 21
11.7625
  0
LINE
  5
11D
100
AcDbEntity
  8
0
  6
CONTINUOUS
 62
    7
370
   25
100
AcDbLine
 10
154.925
 20
-1.7375
 11
154.925
 21
11.2625
  0
LINE
  5
11E
100
AcDbEntity
  8
0
  6
CONTINUOUS
 62
    7
370
   25
100
AcDbLine
 10
155.425
 20
-2.2375
 11
168.425
 21
-2.2375
  0
LINE
  5
11F
100
AcDbEntity
  8
0
  6
CONTINUOUS
 62
    7
370
   25
100
AcDbLine
 10
17.55
 20
18.75
 11
15.7875
 21
18.75
  0
LINE
  5
120
100
AcDbEntity
  8
0
  6
CONTINUOUS
 62
    7
370
   25
100
AcDbLine
 10
19.25
 20
20.45
 11
19.25
 21
36.7
  0
LINE
  5
121
100
AcDbEntity
  8
0
  6
CONTINUOUS
 62
    7
370
   25
100
AcDbLine
 10
17.55
 20
38.4
 11
11.025
 21
38.4
  0
LINE
  5
122
100
AcDbEntity
  8
0
  6
CONTINUOUS
 62
    7
370
   25
100
AcDbLine
 10
9.725
 20
39.7
 11
9.725
 21
55.75
  0
LINE
  5
123
100
AcDbEntity
  8
0
  6
CONTINUOUS
 62
    7
370
   25
100
AcDbLine
 10
6.2625
 20
57.45
 11
8.025
 21
57.45
  0
LINE
  5
124
100
AcDbEntity
  8
0
  6
CONTINUOUS
 62
    7
370
   25
100
AcDbLine
 10
4.9625
 20
58.75
 11
4.9625
 21
74.59999999999999
  0
LINE
  5
125
100
AcDbEntity
  8
0
  6
CONTINUOUS
 62
    7
370
   25
100
AcDbLine
 10
6.2625
 20
75.90000000000001
 11
12.7875
 21
75.90000000000001
  0
LINE
  5
126
100
AcDbEntity
  8
0
  6
CONTINUOUS
 62
    7
370
   25
100
AcDbLine
 10
14.4875
 20
77.59999999999999
 11
14.4875
 21
94.02500000000001
  0
LINE
  5
127
100
AcDbEntity
  8
0
  6
CONTINUOUS
 62
    7
370
   25
100
AcDbLine
 10
15.7875
 20
95.325
 11
22.3125
 21
95.325
  0
LINE
  5
128
100
AcDbEntity
  8
0
  6
CONTINUOUS
 62
    7
370
   25
100
AcDbLine
 10
24.0125
 20
97.02500000000001
 11
24.0125
 21
135.075
  0
LINE
  5
129
100
AcDbEntity
  8
0
  6
CONTINUOUS
 62
    7
370
   25
100
AcDbLine
 10
217.55
 20
135.625
 11
24.5625
 21
135.625
  0
LINE
  5
12A
100
AcDbEntity
  8
0
  6
CONTINUOUS
 62
    7
370
   25
100
AcDbLine
 10
221.35
 20
-8
 11
221.35
 21
131.825
  0
LINE
  5
12B
100
AcDbEntity
  8
0
  6
CONTINUOUS
 62
    7
370
   25
100
AcDbLine
 10
15.0375
 20
-11.8
 11
217.55
 21
-11.8
  0
LINE
  5
12C
100
AcDbEntity
  8
0
  6
CONTINUOUS
 62
    7
370
   25
100
AcDbLine
 10
14.4875
 20
-11.25
 11
14.4875
 21
17.45
  0
LINE
  5
12D
100
AcDbEntity
  8
0
  6
CONTINUOUS
 62
    7
370
   25
100
AcDbLine
 10
126.85
 20
16.525
 11
142.23125
 21
16.525
  0
LINE
  5
12E
100
AcDbEntity
  8
0
  6
CONTINUOUS
 62
    7
370
   25
100
AcDbLine
 10
126.35
 20
3.025
 11
126.35
 21
16.025
  0
LINE
  5
12F
100
AcDbEntity
  8
0
  6
CONTINUOUS
 62
    7
370
   25
100
AcDbLine
 10
126.85
 20
2.525
 11
142.23125
 21
2.525
  0
LINE
  5
130
100
AcDbEntity
  8
0
  6
CONTINUOUS
 62
    7
370
   25
100
AcDbLine
 10
142.73125
 20
3.025
 11
142.73125
 21
16.025
  0
LINE
  5
131
100
AcDbEntity
  8
0
  6
CONTINUOUS
 62
    7
370
   25
100
AcDbLine
 10
100.65625
 20
16.525
 11
118.41875
 21
16.525
  0
LINE
  5
132
100
AcDbEntity
  8
0
  6
CONTINUOUS
 62
    7
370
   25
100
AcDbLine
 10
100.15625
 20
3.025
 11
100.15625
 21
16.025
  0
LINE
  5
133
100
AcDbEntity
  8
0
  6
CONTINUOUS
 62
    7
370
   25
100
AcDbLine
 10
100.65625
 20
2.525
 11
118.41875
 21
2.525
  0
LINE
  5
134
100
AcDbEntity
  8
0
  6
CONTINUOUS
 62
    7
370
   25
100
AcDbLine
 10
118.91875
 20
3.025
 11
118.91875
 21
16.025
  0
LINE
  5
135
100
AcDbEntity
  8
0
  6
CONTINUOUS
 62
    7
370
   25
100
AcDbLine
 10
147.49375
 20
22.075
 11
147.49375
 21
35.075
  0
LINE
  5
136
100
AcDbEntity
  8
0
  6
CONTINUOUS
 62
    7
370
   25
100
AcDbLine
 10
124.46875
 20
35.575
 11
146.99375
 21
35.575
  0
LINE
  5
137
100
AcDbEntity
  8
0
  6
CONTINUOUS
 62
    7
370
   25
100
AcDbLine
 10
123.96875
 20
22.075
 11
123.96875
 21
35.075
  0
LINE
  5
138
100
AcDbEntity
  8
0
  6
CONTINUOUS
 62
    7
370
   25
100
AcDbLine
 10
124.46875
 20
21.575
 11
124.5759541029
 21
21.575
  0
LINE
  5
139
100
AcDbEntity
  8
0
  6
CONTINUOUS
 62
    7
370
   25
100
AcDbLine
 10
125.55575
 20
20.775
 11
131.55575
 21
20.775
  0
LINE
  5
13A
100
AcDbEntity
  8
0
  6
CONTINUOUS
 62
    7
370
   25
100
AcDbLine
 10
132.5355458971
 20
21.575
 11
146.99375
 21
21.575
  0
LINE
  5
13B
100
AcDbEntity
  8
0
  6
CONTINUOUS
 62
    7
370
   25
100
AcDbLine
 10
56.0125
 20
-8.35
 11
64.0125
 21
-8.35
  0
LINE
  5
13C
100
AcDbEntity
  8
0
  6
CONTINUOUS
 62
    7
370
   25
100
AcDbLine
 10
64.0125
 20
-4.15
 11
56.0125
 21
-4.15
  0
LINE
  5
13D
100
AcDbEntity
  8
0
  6
CONTINUOUS
 62
    7
370
   25
100
AcDbLine
 10
65.53749999999999
 20
127.975
 11
73.53749999999999
 21
127.975
  0
LINE
  5
13E
100
AcDbEntity
  8
0
  6
CONTINUOUS
 62
    7
370
   25
100
AcDbLine
 10
171.8
 20
127.975
 11
179.8
 21
127.975
  0
LINE
  5
13F
100
AcDbEntity
  8
0
  6
CONTINUOUS
 62
    7
370
   25
100
AcDbLine
 10
131.8
 20
-8.35
 11
139.8
 21
-8.35
  0
LINE
  5
140
100
AcDbEntity
  8
0
  6
CONTINUOUS
 62
    7
370
   25
100
AcDbLine
 10
139.8
 20
-4.15
 11
131.8
 21
-4.15
  0
LINE
  5
141
100
AcDbEntity
  8
0
  6
CONTINUOUS
 62
    7
370
   25
100
AcDbLine
 10
64.91249999999999
 20
17.325
 11
58.9125
 21
17.325
  0
LINE
  5
142
100
AcDbEntity
  8
0
  6
CONTINUOUS
 62
    7
370
   25
100
AcDbLine
 10
58.4125
 20
16.825
 11
58.4125
 21
3.825
  0
LINE
  5
143
100
AcDbEntity
  8
0
  6
CONTINUOUS
 62
    7
370
   25
100
AcDbLine
 10
58.9125
 20
3.325
 11
59.1952041029
 21
3.325
  0
LINE
  5
144
100
AcDbEntity
  8
0
  6
CONTINUOUS
 62
    7
370
   25
100
AcDbLine
 10
60.175
 20
2.525
 11
94.60625
 21
2.525
  0
LINE
  5
145
100
AcDbEntity
  8
0
  6
CONTINUOUS
 62
    7
370
   25
100
AcDbLine
 10
95.10625
 20
3.025
 11
95.10625
 21
16.025
  0
LINE
  5
146
100
AcDbEntity
  8
0
  6
CONTINUOUS
 62
    7
370
   25
100
AcDbLine
 10
65.8922958971
 20
16.525
 11
94.60625
 21
16.525
  0
LINE
  5
147
100
AcDbEntity
  8
0
  6
CONTINUOUS
 62
    7
370
   25
100
AcDbLine
 10
29.21875
 20
2.525
 11
49.3625
 21
2.525
  0
LINE
  5
148
100
AcDbEntity
  8
0
  6
CONTINUOUS
 62
    7
370
   25
100
AcDbLine
 10
50.3422958971
 20
3.325
 11
55.41925
 21
3.325
  0
LINE
  5
149
100
AcDbEntity
  8
0
  6
CONTINUOUS
 62
    7
370
   25
100
AcDbLine
 10
55.91925
 20
3.825
 11
55.91925
 21
16.825
  0
LINE
  5
14A
100
AcDbEntity
  8
0
  6
CONTINUOUS
 62
    7
370
   25
100
AcDbLine
 10
44.65675
 20
17.325
 11
55.41925
 21
17.325
  0
LINE
  5
14B
100
AcDbEntity
  8
0
  6
CONTINUOUS
 62
    7
370
   25
100
AcDbLine
 10
32.5230458971
 20
16.525
 11
43.6769541029
 21
16.525
  0
LINE
  5
14C
100
AcDbEntity
  8
0
  6
CONTINUOUS
 62
    7
370
   25
100
AcDbLine
 10
20.78075
 20
17.325
 11
31.54325
 21
17.325
  0
LINE
  5
14D
100
AcDbEntity
  8
0
  6
CONTINUOUS
 62
    7
370
   25
100
AcDbLine
 10
20.28075
 20
3.825
 11
20.28075
 21
16.825
  0
LINE
  5
14E
100
AcDbEntity
  8
0
  6
CONTINUOUS
 62
    7
370
   25
100
AcDbLine
 10
20.78075
 20
3.325
 11
28.2389541029
 21
3.325
  0
LINE
  5
14F
100
AcDbEntity
  8
0
  6
CONTINUOUS
 62
    7
370
   25
100
AcDbLine
 10
73.53749999999999
 20
132.175
 11
65.53749999999999
 21
132.175
  0
LINE
  5
150
100
AcDbEntity
  8
0
  6
CONTINUOUS
 62
    7
370
   25
100
AcDbLine
 10
179.8
 20
132.175
 11
171.8
 21
132.175
  0
ARC
  5
151
100
AcDbEntity
  8
0
  6
CONTINUOUS
 62
    7
370
   25
100
AcDbCircle
 10
138.6995
 20
78.425
 40
0.5000000000000056
100
AcDbArc
 50
270
 51
348.4630409672
  0
ARC
  5
152
100
AcDbEntity
  8
0
  6
CONTINUOUS
 62
    7
370
   25
100
AcDbCircle
 10
139.6792958971
 20
78.22499999999999
 40
0.4999999999999692
100
AcDbArc
 50
90
 51
168.4630409672
  0
ARC
  5
153
100
AcDbEntity
  8
0
  6
CONTINUOUS
 62
    7
370
   25
100
AcDbCircle
 10
155.5957041029
 20
78.22499999999999
 40
0.5000000000000977
100
AcDbArc
 50
11.5369590328
 51
90
  0
ARC
  5
154
100
AcDbEntity
  8
0
  6
CONTINUOUS
 62
    7
370
   25
100
AcDbCircle
 10
156.5755
 20
78.425
 40
0.4999999999999858
100
AcDbArc
 50
191.5369590328
 51
270
  0
ARC
  5
155
100
AcDbEntity
  8
0
  6
CONTINUOUS
 62
    7
370
   25
100
AcDbCircle
 10
162.5755
 20
78.425
 40
0.5000000000000142
100
AcDbArc
 50
270
 51
348.4630409672
  0
ARC
  5
156
100
AcDbEntity
  8
0
  6
CONTINUOUS
 62
    7
370
   25
100
AcDbCircle
 10
163.5552958971
 20
78.22499999999999
 40
0.4999999999999971
100
AcDbArc
 50
90
 51
168.4630409672
  0
ARC
  5
157
100
AcDbEntity
  8
0
  6
CONTINUOUS
 62
    7
370
   25
100
AcDbCircle
 10
163.6625
 20
79.22499999999999
 40
0.5000000000000426
100
AcDbArc
 50
270
 51
360
  0
ARC
  5
158
100
AcDbEntity
  8
0
  6
CONTINUOUS
 62
    7
370
   25
100
AcDbCircle
 10
163.6625
 20
92.22499999999999
 40
0.5000000000000284
100
AcDbArc
 50
0
 51
90
  0
ARC
  5
159
100
AcDbEntity
  8
0
  6
CONTINUOUS
 62
    7
370
   25
100
AcDbCircle
 10
131.6125
 20
92.22499999999999
 40
0.5000000000000284
100
AcDbArc
 50
90
 51
180
  0
ARC
  5
15A
100
AcDbEntity
  8
0
  6
CONTINUOUS
 62
    7
370
   25
100
AcDbCircle
 10
131.6125
 20
79.22499999999999
 40
0.5000000000000568
100
AcDbArc
 50
180
 51
270
  0
ARC
  5
15B
100
AcDbEntity
  8
0
  6
CONTINUOUS
 62
    7
370
   25
100
AcDbCircle
 10
131.7197041029
 20
78.22499999999999
 40
0.5000000000000426
100
AcDbArc
 50
11.5369590328
 51
90
  0
ARC
  5
15C
100
AcDbEntity
  8
0
  6
CONTINUOUS
 62
    7
370
   25
100
AcDbCircle
 10
132.6995
 20
78.425
 40
0.5000000000000476
100
AcDbArc
 50
191.5369590328
 51
270
  0
ARC
  5
15D
100
AcDbEntity
  8
0
  6
CONTINUOUS
 62
    7
370
   25
100
AcDbCircle
 10
160.19425
 20
40.325
 40
0.4999999999999574
100
AcDbArc
 50
270
 51
0
  0
ARC
  5
15E
100
AcDbEntity
  8
0
  6
CONTINUOUS
 62
    7
370
   25
100
AcDbCircle
 10
160.19425
 20
53.325
 40
0.5
100
AcDbArc
 50
360
 51
90
  0
ARC
  5
15F
100
AcDbEntity
  8
0
  6
CONTINUOUS
 62
    7
370
   25
100
AcDbCircle
 10
154.19425
 20
53.325
 40
0.5000000000000284
100
AcDbArc
 50
90
 51
180
  0
ARC
  5
160
100
AcDbEntity
  8
0
  6
CONTINUOUS
 62
    7
370
   25
100
AcDbCircle
 10
154.19425
 20
40.325
 40
0.5000000000000284
100
AcDbArc
 50
180
 51
270
  0
ARC
  5
161
100
AcDbEntity
  8
0
  6
CONTINUOUS
 62
    7
370
   25
100
AcDbCircle
 10
130.31825
 20
40.325
 40
0.5000000000000284
100
AcDbArc
 50
180
 51
270
  0
ARC
  5
162
100
AcDbEntity
  8
0
  6
CONTINUOUS
 62
    7
370
   25
100
AcDbCircle
 10
136.31825
 20
40.325
 40
0.4999999999999716
100
AcDbArc
 50
270
 51
0
  0
ARC
  5
163
100
AcDbEntity
  8
0
  6
CONTINUOUS
 62
    7
370
   25
100
AcDbCircle
 10
136.31825
 20
53.325
 40
0.5
100
AcDbArc
 50
0
 51
90
  0
ARC
  5
164
100
AcDbEntity
  8
0
  6
CONTINUOUS
 62
    7
370
   25
100
AcDbCircle
 10
130.31825
 20
53.325
 40
0.5000000000000284
100
AcDbArc
 50
90
 51
180
  0
ARC
  5
165
100
AcDbEntity
  8
0
  6
CONTINUOUS
 62
    7
370
   25
100
AcDbCircle
 10
163.6625
 20
22.075
 40
0.5000000000000284
100
AcDbArc
 50
270
 51
0
  0
ARC
  5
166
100
AcDbEntity
  8
0
  6
CONTINUOUS
 62
    7
370
   25
100
AcDbCircle
 10
163.6625
 20
35.075
 40
0.5000000000000568
100
AcDbArc
 50
0
 51
90
  0
ARC
  5
167
100
AcDbEntity
  8
0
  6
CONTINUOUS
 62
    7
370
   25
100
AcDbCircle
 10
150.6625
 20
35.075
 40
0.4999999999999721
100
AcDbArc
 50
90
 51
168.4630409672
  0
ARC
  5
168
100
AcDbEntity
  8
0
  6
CONTINUOUS
 62
    7
370
   25
100
AcDbCircle
 10
149.6827041029
 20
35.275
 40
0.4999999999999432
100
AcDbArc
 50
270
 51
348.4630409672
  0
ARC
  5
169
100
AcDbEntity
  8
0
  6
CONTINUOUS
 62
    7
370
   25
100
AcDbCircle
 10
149.43175
 20
34.275
 40
0.4999999999999574
100
AcDbArc
 50
90
 51
180
  0
ARC
  5
16A
100
AcDbEntity
  8
0
  6
CONTINUOUS
 62
    7
370
   25
100
AcDbCircle
 10
149.43175
 20
21.275
 40
0.4999999999999751
100
AcDbArc
 50
180
 51
270
  0
ARC
  5
16B
100
AcDbEntity
  8
0
  6
CONTINUOUS
 62
    7
370
   25
100
AcDbCircle
 10
155.43175
 20
21.275
 40
0.5000000000000462
100
AcDbArc
 50
270
 51
348.4630409672
  0
ARC
  5
16C
100
AcDbEntity
  8
0
  6
CONTINUOUS
 62
    7
370
   25
100
AcDbCircle
 10
156.4115458971
 20
21.075
 40
0.4999999999999714
100
AcDbArc
 50
90
 51
168.4630409672
  0
ARC
  5
16D
100
AcDbEntity
  8
0
  6
CONTINUOUS
 62
    7
370
   25
100
AcDbCircle
 10
206.525
 20
120.8
 40
0.5
100
AcDbArc
 50
360
 51
90
  0
ARC
  5
16E
100
AcDbEntity
  8
0
  6
CONTINUOUS
 62
    7
370
   25
100
AcDbCircle
 10
193.525
 20
120.8
 40
0.5000000000000568
100
AcDbArc
 50
90
 51
180
  0
ARC
  5
16F
100
AcDbEntity
  8
0
  6
CONTINUOUS
 62
    7
370
   25
100
AcDbCircle
 10
193.525
 20
107.8
 40
0.5
100
AcDbArc
 50
180
 51
270
  0
ARC
  5
170
100
AcDbEntity
  8
0
  6
CONTINUOUS
 62
    7
370
   25
100
AcDbCircle
 10
206.525
 20
107.8
 40
0.4999999999999716
100
AcDbArc
 50
270
 51
0
  0
ARC
  5
171
100
AcDbEntity
  8
0
  6
CONTINUOUS
 62
    7
370
   25
100
AcDbCircle
 10
187.475
 20
120.8
 40
0.4999999999999716
100
AcDbArc
 50
360
 51
90
  0
ARC
  5
172
100
AcDbEntity
  8
0
  6
CONTINUOUS
 62
    7
370
   25
100
AcDbCircle
 10
174.475
 20
120.8
 40
0.5
100
AcDbArc
 50
90
 51
180
  0
ARC
  5
173
100
AcDbEntity
  8
0
  6
CONTINUOUS
 62
    7
370
   25
100
AcDbCircle
 10
174.475
 20
107.8
 40
0.5
100
AcDbArc
 50
180
 51
270
  0
ARC
  5
174
100
AcDbEntity
  8
0
  6
CONTINUOUS
 62
    7
370
   25
100
AcDbCircle
 10
187.475
 20
107.8
 40
0.4999999999999716
100
AcDbArc
 50
270
 51
0
  0
ARC
  5
175
100
AcDbEntity
  8
0
  6
CONTINUOUS
 62
    7
370
   25
100
AcDbCircle
 10
163.6625
 20
120.8
 40
0.5000000000000284
100
AcDbArc
 50
0
 51
90
  0
ARC
  5
176
100
AcDbEntity
  8
0
  6
CONTINUOUS
 62
    7
370
   25
100
AcDbCircle
 10
150.6625
 20
120.8
 40
0.5000000000000284
100
AcDbArc
 50
90
 51
180
  0
ARC
  5
177
100
AcDbEntity
  8
0
  6
CONTINUOUS
 62
    7
370
   25
100
AcDbCircle
 10
150.6625
 20
107.8
 40
0.5000000000000284
100
AcDbArc
 50
180
 51
270
  0
ARC
  5
178
100
AcDbEntity
  8
0
  6
CONTINUOUS
 62
    7
370
   25
100
AcDbCircle
 10
163.6625
 20
107.8
 40
0.5000000000000568
100
AcDbArc
 50
270
 51
360
  0
ARC
  5
179
100
AcDbEntity
  8
0
  6
CONTINUOUS
 62
    7
370
   25
100
AcDbCircle
 10
139.85
 20
120.8
 40
0.4999999999999574
100
AcDbArc
 50
360
 51
90
  0
ARC
  5
17A
100
AcDbEntity
  8
0
  6
CONTINUOUS
 62
    7
370
   25
100
AcDbCircle
 10
126.85
 20
120.8
 40
0.5
100
AcDbArc
 50
90
 51
180
  0
ARC
  5
17B
100
AcDbEntity
  8
0
  6
CONTINUOUS
 62
    7
370
   25
100
AcDbCircle
 10
126.85
 20
107.8
 40
0.5000000000000284
100
AcDbArc
 50
180
 51
270
  0
ARC
  5
17C
100
AcDbEntity
  8
0
  6
CONTINUOUS
 62
    7
370
   25
100
AcDbCircle
 10
139.85
 20
107.8
 40
0.4999999999999858
100
AcDbArc
 50
270
 51
0
  0
ARC
  5
17D
100
AcDbEntity
  8
0
  6
CONTINUOUS
 62
    7
370
   25
100
AcDbCircle
 10
120.8
 20
120.8
 40
0.5000000000000142
100
AcDbArc
 50
0
 51
90
  0
ARC
  5
17E
100
AcDbEntity
  8
0
  6
CONTINUOUS
 62
    7
370
   25
100
AcDbCircle
 10
107.8
 20
120.8
 40
0.5000000000000142
100
AcDbArc
 50
90
 51
180
  0
ARC
  5
17F
100
AcDbEntity
  8
0
  6
CONTINUOUS
 62
    7
370
   25
100
AcDbCircle
 10
107.8
 20
107.8
 40
0.4999999999999858
100
AcDbArc
 50
180
 51
270
  0
ARC
  5
180
100
AcDbEntity
  8
0
  6
CONTINUOUS
 62
    7
370
   25
100
AcDbCircle
 10
120.8
 20
107.8
 40
0.5000000000000284
100
AcDbArc
 50
270
 51
360
  0
ARC
  5
181
100
AcDbEntity
  8
0
  6
CONTINUOUS
 62
    7
370
   25
100
AcDbCircle
 10
101.75
 20
120.8
 40
0.5000000000000568
100
AcDbArc
 50
0
 51
90
  0
ARC
  5
182
100
AcDbEntity
  8
0
  6
CONTINUOUS
 62
    7
370
   25
100
AcDbCircle
 10
88.75
 20
120.8
 40
0.5000000000000284
100
AcDbArc
 50
90
 51
180
  0
ARC
  5
183
100
AcDbEntity
  8
0
  6
CONTINUOUS
 62
    7
370
   25
100
AcDbCircle
 10
88.75
 20
107.8
 40
0.5000000000000142
100
AcDbArc
 50
180
 51
270
  0
ARC
  5
184
100
AcDbEntity
  8
0
  6
CONTINUOUS
 62
    7
370
   25
100
AcDbCircle
 10
101.75
 20
107.8
 40
0.5000000000000426
100
AcDbArc
 50
270
 51
360
  0
ARC
  5
185
100
AcDbEntity
  8
0
  6
CONTINUOUS
 62
    7
370
   25
100
AcDbCircle
 10
82.7
 20
120.8
 40
0.5000000000000426
100
AcDbArc
 50
0
 51
90
  0
ARC
  5
186
100
AcDbEntity
  8
0
  6
CONTINUOUS
 62
    7
370
   25
100
AcDbCircle
 10
69.7
 20
120.8
 40
0.5
100
AcDbArc
 50
90
 51
180
  0
ARC
  5
187
100
AcDbEntity
  8
0
  6
CONTINUOUS
 62
    7
370
   25
100
AcDbCircle
 10
69.7
 20
107.8
 40
0.5
100
AcDbArc
 50
180
 51
270
  0
ARC
  5
188
100
AcDbEntity
  8
0
  6
CONTINUOUS
 62
    7
370
   25
100
AcDbCircle
 10
82.7
 20
107.8
 40
0.5000000000000426
100
AcDbArc
 50
270
 51
360
  0
ARC
  5
189
100
AcDbEntity
  8
0
  6
CONTINUOUS
 62
    7
370
   25
100
AcDbCircle
 10
58.8875
 20
120.8
 40
0.5
100
AcDbArc
 50
360
 51
90
  0
ARC
  5
18A
100
AcDbEntity
  8
0
  6
CONTINUOUS
 62
    7
370
   25
100
AcDbCircle
 10
45.8875
 20
120.8
 40
0.5
100
AcDbArc
 50
90
 51
180
  0
ARC
  5
18B
100
AcDbEntity
  8
0
  6
CONTINUOUS
 62
    7
370
   25
100
AcDbCircle
 10
45.8875
 20
107.8
 40
0.5000000000000284
100
AcDbArc
 50
180
 51
270
  0
ARC
  5
18C
100
AcDbEntity
  8
0
  6
CONTINUOUS
 62
    7
370
   25
100
AcDbCircle
 10
58.8875
 20
107.8
 40
0.5000000000000284
100
AcDbArc
 50
270
 51
360
  0
ARC
  5
18D
100
AcDbEntity
  8
0
  6
CONTINUOUS
 62
    7
370
   25
100
AcDbCircle
 10
39.8375
 20
120.8
 40
0.5000000000000142
100
AcDbArc
 50
0
 51
90
  0
ARC
  5
18E
100
AcDbEntity
  8
0
  6
CONTINUOUS
 62
    7
370
   25
100
AcDbCircle
 10
26.8375
 20
120.8
 40
0.5000000000000142
100
AcDbArc
 50
90
 51
180
  0
ARC
  5
18F
100
AcDbEntity
  8
0
  6
CONTINUOUS
 62
    7
370
   25
100
AcDbCircle
 10
26.8375
 20
107.8
 40
0.5000000000000142
100
AcDbArc
 50
180
 51
270
  0
ARC
  5
190
100
AcDbEntity
  8
0
  6
CONTINUOUS
 62
    7
370
   25
100
AcDbCircle
 10
39.8375
 20
107.8
 40
0.5000000000000142
100
AcDbArc
 50
270
 51
0
  0
ARC
  5
191
100
AcDbEntity
  8
0
  6
CONTINUOUS
 62
    7
370
   25
100
AcDbCircle
 10
187.475
 20
92.22499999999999
 40
0.5000000000000284
100
AcDbArc
 50
0
 51
90
  0
ARC
  5
192
100
AcDbEntity
  8
0
  6
CONTINUOUS
 62
    7
370
   25
100
AcDbCircle
 10
174.475
 20
92.22499999999999
 40
0.5
100
AcDbArc
 50
90
 51
180
  0
ARC
  5
193
100
AcDbEntity
  8
0
  6
CONTINUOUS
 62
    7
370
   25
100
AcDbCircle
 10
174.475
 20
79.22499999999999
 40
0.4999999999999716
100
AcDbArc
 50
180
 51
270
  0
ARC
  5
194
100
AcDbEntity
  8
0
  6
CONTINUOUS
 62
    7
370
   25
100
AcDbCircle
 10
187.475
 20
79.22499999999999
 40
0.5000000000000284
100
AcDbArc
 50
270
 51
360
  0
ARC
  5
195
100
AcDbEntity
  8
0
  6
CONTINUOUS
 62
    7
370
   25
100
AcDbCircle
 10
206.525
 20
92.22499999999999
 40
0.5000000000000568
100
AcDbArc
 50
0
 51
90
  0
ARC
  5
196
100
AcDbEntity
  8
0
  6
CONTINUOUS
 62
    7
370
   25
100
AcDbCircle
 10
193.525
 20
92.22499999999999
 40
0.5000000000000142
100
AcDbArc
 50
90
 51
180
  0
ARC
  5
197
100
AcDbEntity
  8
0
  6
CONTINUOUS
 62
    7
370
   25
100
AcDbCircle
 10
193.525
 20
79.22499999999999
 40
0.4999999999999432
100
AcDbArc
 50
180
 51
270
  0
ARC
  5
198
100
AcDbEntity
  8
0
  6
CONTINUOUS
 62
    7
370
   25
100
AcDbCircle
 10
206.525
 20
79.22499999999999
 40
0.5000000000000284
100
AcDbArc
 50
270
 51
360
  0
ARC
  5
199
100
AcDbEntity
  8
0
  6
CONTINUOUS
 62
    7
370
   25
100
AcDbCircle
 10
187.475
 20
73.175
 40
0.5000000000000284
100
AcDbArc
 50
0
 51
90
  0
ARC
  5
19A
100
AcDbEntity
  8
0
  6
CONTINUOUS
 62
    7
370
   25
100
AcDbCircle
 10
174.475
 20
73.175
 40
0.5000000000000426
100
AcDbArc
 50
90
 51
180
  0
ARC
  5
19B
100
AcDbEntity
  8
0
  6
CONTINUOUS
 62
    7
370
   25
100
AcDbCircle
 10
174.475
 20
60.175
 40
0.5000000000000355
100
AcDbArc
 50
180
 51
270
  0
ARC
  5
19C
100
AcDbEntity
  8
0
  6
CONTINUOUS
 62
    7
370
   25
100
AcDbCircle
 10
187.475
 20
60.175
 40
0.5000000000000355
100
AcDbArc
 50
270
 51
0
  0
ARC
  5
19D
100
AcDbEntity
  8
0
  6
CONTINUOUS
 62
    7
370
   25
100
AcDbCircle
 10
206.525
 20
73.175
 40
0.5000000000000568
100
AcDbArc
 50
0
 51
90
  0
ARC
  5
19E
100
AcDbEntity
  8
0
  6
CONTINUOUS
 62
    7
370
   25
100
AcDbCircle
 10
193.525
 20
73.175
 40
0.5000000000000568
100
AcDbArc
 50
90
 51
180
  0
ARC
  5
19F
100
AcDbEntity
  8
0
  6
CONTINUOUS
 62
    7
370
   25
100
AcDbCircle
 10
193.525
 20
60.175
 40
0.5000000000000284
100
AcDbArc
 50
180
 51
270
  0
ARC
  5
1A0
100
AcDbEntity
  8
0
  6
CONTINUOUS
 62
    7
370
   25
100
AcDbCircle
 10
206.525
 20
60.175
 40
0.5000000000000568
100
AcDbArc
 50
270
 51
360
  0
ARC
  5
1A1
100
AcDbEntity
  8
0
  6
CONTINUOUS
 62
    7
370
   25
100
AcDbCircle
 10
187.475
 20
54.125
 40
0.5000000000000284
100
AcDbArc
 50
0
 51
90
  0
ARC
  5
1A2
100
AcDbEntity
  8
0
  6
CONTINUOUS
 62
    7
370
   25
100
AcDbCircle
 10
174.475
 20
54.125
 40
0.5000000000000284
100
AcDbArc
 50
90
 51
180
  0
ARC
  5
1A3
100
AcDbEntity
  8
0
  6
CONTINUOUS
 62
    7
370
   25
100
AcDbCircle
 10
174.475
 20
41.125
 40
0.5000000000000284
100
AcDbArc
 50
180
 51
270
  0
ARC
  5
1A4
100
AcDbEntity
  8
0
  6
CONTINUOUS
 62
    7
370
   25
100
AcDbCircle
 10
187.475
 20
41.125
 40
0.5000000000000284
100
AcDbArc
 50
270
 51
0
  0
ARC
  5
1A5
100
AcDbEntity
  8
0
  6
CONTINUOUS
 62
    7
370
   25
100
AcDbCircle
 10
206.525
 20
54.125
 40
0.5000000000000284
100
AcDbArc
 50
0
 51
90
  0
ARC
  5
1A6
100
AcDbEntity
  8
0
  6
CONTINUOUS
 62
    7
370
   25
100
AcDbCircle
 10
193.525
 20
54.125
 40
0.5000000000000284
100
AcDbArc
 50
90
 51
180
  0
ARC
  5
1A7
100
AcDbEntity
  8
0
  6
CONTINUOUS
 62
    7
370
   25
100
AcDbCircle
 10
193.525
 20
41.125
 40
0.5000000000000568
100
AcDbArc
 50
180
 51
270
  0
ARC
  5
1A8
100
AcDbEntity
  8
0
  6
CONTINUOUS
 62
    7
370
   25
100
AcDbCircle
 10
206.525
 20
41.125
 40
0.5000000000000284
100
AcDbArc
 50
270
 51
360
  0
ARC
  5
1A9
100
AcDbEntity
  8
0
  6
CONTINUOUS
 62
    7
370
   25
100
AcDbCircle
 10
187.475
 20
30.3125
 40
0.5000000000000284
100
AcDbArc
 50
0
 51
90
  0
ARC
  5
1AA
100
AcDbEntity
  8
0
  6
CONTINUOUS
 62
    7
370
   25
100
AcDbCircle
 10
174.475
 20
30.3125
 40
0.5000000000000284
100
AcDbArc
 50
90
 51
180
  0
ARC
  5
1AB
100
AcDbEntity
  8
0
  6
CONTINUOUS
 62
    7
370
   25
100
AcDbCircle
 10
174.475
 20
17.3125
 40
0.5000000000000284
100
AcDbArc
 50
180
 51
270
  0
ARC
  5
1AC
100
AcDbEntity
  8
0
  6
CONTINUOUS
 62
    7
370
   25
100
AcDbCircle
 10
187.475
 20
17.3125
 40
0.5000000000000284
100
AcDbArc
 50
270
 51
0
  0
ARC
  5
1AD
100
AcDbEntity
  8
0
  6
CONTINUOUS
 62
    7
370
   25
100
AcDbCircle
 10
125.5625
 20
92.22499999999999
 40
0.5
100
AcDbArc
 50
360
 51
90
  0
ARC
  5
1AE
100
AcDbEntity
  8
0
  6
CONTINUOUS
 62
    7
370
   25
100
AcDbCircle
 10
112.5625
 20
92.22499999999999
 40
0.5
100
AcDbArc
 50
90
 51
180
  0
ARC
  5
1AF
100
AcDbEntity
  8
0
  6
CONTINUOUS
 62
    7
370
   25
100
AcDbCircle
 10
112.5625
 20
79.22499999999999
 40
0.5
100
AcDbArc
 50
180
 51
270
  0
ARC
  5
1B0
100
AcDbEntity
  8
0
  6
CONTINUOUS
 62
    7
370
   25
100
AcDbCircle
 10
125.5625
 20
79.22499999999999
 40
0.5000000000000284
100
AcDbArc
 50
270
 51
360
  0
ARC
  5
1B1
100
AcDbEntity
  8
0
  6
CONTINUOUS
 62
    7
370
   25
100
AcDbCircle
 10
106.5125
 20
92.22499999999999
 40
0.5000000000000284
100
AcDbArc
 50
0
 51
90
  0
ARC
  5
1B2
100
AcDbEntity
  8
0
  6
CONTINUOUS
 62
    7
370
   25
100
AcDbCircle
 10
93.5125
 20
92.22499999999999
 40
0.5000000000000284
100
AcDbArc
 50
90
 51
180
  0
ARC
  5
1B3
100
AcDbEntity
  8
0
  6
CONTINUOUS
 62
    7
370
   25
100
AcDbCircle
 10
93.5125
 20
79.22499999999999
 40
0.5000000000000142
100
AcDbArc
 50
180
 51
270
  0
ARC
  5
1B4
100
AcDbEntity
  8
0
  6
CONTINUOUS
 62
    7
370
   25
100
AcDbCircle
 10
106.5125
 20
79.22499999999999
 40
0.4999999999999858
100
AcDbArc
 50
270
 51
0
  0
ARC
  5
1B5
100
AcDbEntity
  8
0
  6
CONTINUOUS
 62
    7
370
   25
100
AcDbCircle
 10
87.46250000000001
 20
92.22499999999999
 40
0.5000000000000284
100
AcDbArc
 50
0
 51
90
  0
ARC
  5
1B6
100
AcDbEntity
  8
0
  6
CONTINUOUS
 62
    7
370
   25
100
AcDbCircle
 10
74.46250000000001
 20
92.22499999999999
 40
0.5000000000000142
100
AcDbArc
 50
90
 51
180
  0
ARC
  5
1B7
100
AcDbEntity
  8
0
  6
CONTINUOUS
 62
    7
370
   25
100
AcDbCircle
 10
74.46250000000001
 20
79.22499999999999
 40
0.5
100
AcDbArc
 50
180
 51
270
  0
ARC
  5
1B8
100
AcDbEntity
  8
0
  6
CONTINUOUS
 62
    7
370
   25
100
AcDbCircle
 10
87.46250000000001
 20
79.22499999999999
 40
0.5000000000000142
100
AcDbArc
 50
270
 51
360
  0
ARC
  5
1B9
100
AcDbEntity
  8
0
  6
CONTINUOUS
 62
    7
370
   25
100
AcDbCircle
 10
68.41249999999999
 20
92.22499999999999
 40
0.5000000000000142
100
AcDbArc
 50
0
 51
90
  0
ARC
  5
1BA
100
AcDbEntity
  8
0
  6
CONTINUOUS
 62
    7
370
   25
100
AcDbCircle
 10
55.4125
 20
92.22499999999999
 40
0.5000000000000142
100
AcDbArc
 50
90
 51
180
  0
ARC
  5
1BB
100
AcDbEntity
  8
0
  6
CONTINUOUS
 62
    7
370
   25
100
AcDbCircle
 10
55.4125
 20
79.22499999999999
 40
0.5000000000000284
100
AcDbArc
 50
180
 51
270
  0
ARC
  5
1BC
100
AcDbEntity
  8
0
  6
CONTINUOUS
 62
    7
370
   25
100
AcDbCircle
 10
68.41249999999999
 20
79.22499999999999
 40
0.5000000000000284
100
AcDbArc
 50
270
 51
360
  0
ARC
  5
1BD
100
AcDbEntity
  8
0
  6
CONTINUOUS
 62
    7
370
   25
100
AcDbCircle
 10
49.3625
 20
92.22499999999999
 40
0.5
100
AcDbArc
 50
0
 51
90
  0
ARC
  5
1BE
100
AcDbEntity
  8
0
  6
CONTINUOUS
 62
    7
370
   25
100
AcDbCircle
 10
36.3625
 20
92.22499999999999
 40
0.4999999999999929
100
AcDbArc
 50
90
 51
180
  0
ARC
  5
1BF
100
AcDbEntity
  8
0
  6
CONTINUOUS
 62
    7
370
   25
100
AcDbCircle
 10
36.3625
 20
79.22499999999999
 40
0.5000000000000142
100
AcDbArc
 50
180
 51
270
  0
ARC
  5
1C0
100
AcDbEntity
  8
0
  6
CONTINUOUS
 62
    7
370
   25
100
AcDbCircle
 10
49.3625
 20
79.22499999999999
 40
0.5000000000000426
100
AcDbArc
 50
270
 51
360
  0
ARC
  5
1C1
100
AcDbEntity
  8
0
  6
CONTINUOUS
 62
    7
370
   25
100
AcDbCircle
 10
30.3125
 20
92.22499999999999
 40
0.5000000000000142
100
AcDbArc
 50
0
 51
90
  0
ARC
  5
1C2
100
AcDbEntity
  8
0
  6
CONTINUOUS
 62
    7
370
   25
100
AcDbCircle
 10
17.3125
 20
92.22499999999999
 40
0.5000000000000568
100
AcDbArc
 50
90
 51
180
  0
ARC
  5
1C3
100
AcDbEntity
  8
0
  6
CONTINUOUS
 62
    7
370
   25
100
AcDbCircle
 10
17.3125
 20
79.22499999999999
 40
0.5000000000000142
100
AcDbArc
 50
180
 51
270
  0
ARC
  5
1C4
100
AcDbEntity
  8
0
  6
CONTINUOUS
 62
    7
370
   25
100
AcDbCircle
 10
30.3125
 20
79.22499999999999
 40
0.5
100
AcDbArc
 50
270
 51
0
  0
ARC
  5
1C5
100
AcDbEntity
  8
0
  6
CONTINUOUS
 62
    7
370
   25
100
AcDbCircle
 10
158.9
 20
73.175
 40
0.5000000000000284
100
AcDbArc
 50
0
 51
90
  0
ARC
  5
1C6
100
AcDbEntity
  8
0
  6
CONTINUOUS
 62
    7
370
   25
100
AcDbCircle
 10
145.9
 20
73.175
 40
0.5000000000000284
100
AcDbArc
 50
90
 51
180
  0
ARC
  5
1C7
100
AcDbEntity
  8
0
  6
CONTINUOUS
 62
    7
370
   25
100
AcDbCircle
 10
145.9
 20
60.175
 40
0.5000000000000568
100
AcDbArc
 50
180
 51
270
  0
ARC
  5
1C8
100
AcDbEntity
  8
0
  6
CONTINUOUS
 62
    7
370
   25
100
AcDbCircle
 10
158.9
 20
60.175
 40
0.5000000000000284
100
AcDbArc
 50
270
 51
360
  0
ARC
  5
1C9
100
AcDbEntity
  8
0
  6
CONTINUOUS
 62
    7
370
   25
100
AcDbCircle
 10
135.0875
 20
73.175
 40
0.4999999999999716
100
AcDbArc
 50
360
 51
90
  0
ARC
  5
1CA
100
AcDbEntity
  8
0
  6
CONTINUOUS
 62
    7
370
   25
100
AcDbCircle
 10
122.0875
 20
73.175
 40
0.4999999999999858
100
AcDbArc
 50
90
 51
180
  0
ARC
  5
1CB
100
AcDbEntity
  8
0
  6
CONTINUOUS
 62
    7
370
   25
100
AcDbCircle
 10
122.0875
 20
60.175
 40
0.5
100
AcDbArc
 50
180
 51
270
  0
ARC
  5
1CC
100
AcDbEntity
  8
0
  6
CONTINUOUS
 62
    7
370
   25
100
AcDbCircle
 10
135.0875
 20
60.175
 40
0.4999999999999716
100
AcDbArc
 50
270
 51
0
  0
ARC
  5
1CD
100
AcDbEntity
  8
0
  6
CONTINUOUS
 62
    7
370
   25
100
AcDbCircle
 10
116.0375
 20
73.175
 40
0.5000000000000426
100
AcDbArc
 50
0
 51
90
  0
ARC
  5
1CE
100
AcDbEntity
  8
0
  6
CONTINUOUS
 62
    7
370
   25
100
AcDbCircle
 10
103.0375
 20
73.175
 40
0.5000000000000426
100
AcDbArc
 50
90
 51
180
  0
ARC
  5
1CF
100
AcDbEntity
  8
0
  6
CONTINUOUS
 62
    7
370
   25
100
AcDbCircle
 10
103.0375
 20
60.175
 40
0.5000000000000142
100
AcDbArc
 50
180
 51
270
  0
ARC
  5
1D0
100
AcDbEntity
  8
0
  6
CONTINUOUS
 62
    7
370
   25
100
AcDbCircle
 10
116.0375
 20
60.175
 40
0.5000000000000071
100
AcDbArc
 50
270
 51
0
  0
ARC
  5
1D1
100
AcDbEntity
  8
0
  6
CONTINUOUS
 62
    7
370
   25
100
AcDbCircle
 10
96.9875
 20
73.175
 40
0.5000000000000284
100
AcDbArc
 50
0
 51
90
  0
ARC
  5
1D2
100
AcDbEntity
  8
0
  6
CONTINUOUS
 62
    7
370
   25
100
AcDbCircle
 10
83.9875
 20
73.175
 40
0.5000000000000284
100
AcDbArc
 50
90
 51
180
  0
ARC
  5
1D3
100
AcDbEntity
  8
0
  6
CONTINUOUS
 62
    7
370
   25
100
AcDbCircle
 10
83.9875
 20
60.175
 40
0.5
100
AcDbArc
 50
180
 51
270
  0
ARC
  5
1D4
100
AcDbEntity
  8
0
  6
CONTINUOUS
 62
    7
370
   25
100
AcDbCircle
 10
96.9875
 20
60.175
 40
0.5000000000000142
100
AcDbArc
 50
270
 51
0
  0
ARC
  5
1D5
100
AcDbEntity
  8
0
  6
CONTINUOUS
 62
    7
370
   25
100
AcDbCircle
 10
77.9375
 20
73.175
 40
0.5000000000000284
100
AcDbArc
 50
0
 51
90
  0
ARC
  5
1D6
100
AcDbEntity
  8
0
  6
CONTINUOUS
 62
    7
370
   25
100
AcDbCircle
 10
64.9375
 20
73.175
 40
0.5
100
AcDbArc
 50
90
 51
180
  0
ARC
  5
1D7
100
AcDbEntity
  8
0
  6
CONTINUOUS
 62
    7
370
   25
100
AcDbCircle
 10
64.9375
 20
60.175
 40
0.5000000000000142
100
AcDbArc
 50
180
 51
270
  0
ARC
  5
1D8
100
AcDbEntity
  8
0
  6
CONTINUOUS
 62
    7
370
   25
100
AcDbCircle
 10
77.9375
 20
60.175
 40
0.5000000000000284
100
AcDbArc
 50
270
 51
360
  0
ARC
  5
1D9
100
AcDbEntity
  8
0
  6
CONTINUOUS
 62
    7
370
   25
100
AcDbCircle
 10
58.8875
 20
73.175
 40
0.4999999999999858
100
AcDbArc
 50
360
 51
90
  0
ARC
  5
1DA
100
AcDbEntity
  8
0
  6
CONTINUOUS
 62
    7
370
   25
100
AcDbCircle
 10
45.8875
 20
73.175
 40
0.5000000000000071
100
AcDbArc
 50
90
 51
180
  0
ARC
  5
1DB
100
AcDbEntity
  8
0
  6
CONTINUOUS
 62
    7
370
   25
100
AcDbCircle
 10
45.8875
 20
60.175
 40
0.4999999999999787
100
AcDbArc
 50
180
 51
270
  0
ARC
  5
1DC
100
AcDbEntity
  8
0
  6
CONTINUOUS
 62
    7
370
   25
100
AcDbCircle
 10
58.8875
 20
60.175
 40
0.4999999999999929
100
AcDbArc
 50
270
 51
0
  0
ARC
  5
1DD
100
AcDbEntity
  8
0
  6
CONTINUOUS
 62
    7
370
   25
100
AcDbCircle
 10
39.8375
 20
73.175
 40
0.4999999999999716
100
AcDbArc
 50
360
 51
90
  0
ARC
  5
1DE
100
AcDbEntity
  8
0
  6
CONTINUOUS
 62
    7
370
   25
100
AcDbCircle
 10
26.8375
 20
73.175
 40
0.5000000000000142
100
AcDbArc
 50
90
 51
180
  0
ARC
  5
1DF
100
AcDbEntity
  8
0
  6
CONTINUOUS
 62
    7
370
   25
100
AcDbCircle
 10
26.8375
 20
60.175
 40
0.5000000000000142
100
AcDbArc
 50
180
 51
270
  0
ARC
  5
1E0
100
AcDbEntity
  8
0
  6
CONTINUOUS
 62
    7
370
   25
100
AcDbCircle
 10
39.8375
 20
60.175
 40
0.4999999999999929
100
AcDbArc
 50
270
 51
0
  0
ARC
  5
1E1
100
AcDbEntity
  8
0
  6
CONTINUOUS
 62
    7
370
   25
100
AcDbCircle
 10
20.7875
 20
73.175
 40
0.500000000000032
100
AcDbArc
 50
0
 51
90
  0
ARC
  5
1E2
100
AcDbEntity
  8
0
  6
CONTINUOUS
 62
    7
370
   25
100
AcDbCircle
 10
7.7875
 20
73.175
 40
0.5000000000000187
100
AcDbArc
 50
90
 51
180
  0
ARC
  5
1E3
100
AcDbEntity
  8
0
  6
CONTINUOUS
 62
    7
370
   25
100
AcDbCircle
 10
7.7875
 20
60.175
 40
0.5
100
AcDbArc
 50
180
 51
270
  0
ARC
  5
1E4
100
AcDbEntity
  8
0
  6
CONTINUOUS
 62
    7
370
   25
100
AcDbCircle
 10
20.7875
 20
60.175
 40
0.5000000000000071
100
AcDbArc
 50
270
 51
0
  0
ARC
  5
1E5
100
AcDbEntity
  8
0
  6
CONTINUOUS
 62
    7
370
   25
100
AcDbCircle
 10
151.75625
 20
54.125
 40
0.5000000000000284
100
AcDbArc
 50
0
 51
90
  0
ARC
  5
1E6
100
AcDbEntity
  8
0
  6
CONTINUOUS
 62
    7
370
   25
100
AcDbCircle
 10
138.75625
 20
54.125
 40
0.5000000000000284
100
AcDbArc
 50
90
 51
180
  0
ARC
  5
1E7
100
AcDbEntity
  8
0
  6
CONTINUOUS
 62
    7
370
   25
100
AcDbCircle
 10
138.75625
 20
41.125
 40
0.4999999999999716
100
AcDbArc
 50
180
 51
270
  0
ARC
  5
1E8
100
AcDbEntity
  8
0
  6
CONTINUOUS
 62
    7
370
   25
100
AcDbCircle
 10
151.75625
 20
41.125
 40
0.5000000000000284
100
AcDbArc
 50
270
 51
360
  0
ARC
  5
1E9
100
AcDbEntity
  8
0
  6
CONTINUOUS
 62
    7
370
   25
100
AcDbCircle
 10
120.8
 20
54.125
 40
0.5
100
AcDbArc
 50
0
 51
90
  0
ARC
  5
1EA
100
AcDbEntity
  8
0
  6
CONTINUOUS
 62
    7
370
   25
100
AcDbCircle
 10
107.8
 20
54.125
 40
0.5000000000000142
100
AcDbArc
 50
90
 51
180
  0
ARC
  5
1EB
100
AcDbEntity
  8
0
  6
CONTINUOUS
 62
    7
370
   25
100
AcDbCircle
 10
107.8
 20
41.125
 40
0.5000000000000142
100
AcDbArc
 50
180
 51
270
  0
ARC
  5
1EC
100
AcDbEntity
  8
0
  6
CONTINUOUS
 62
    7
370
   25
100
AcDbCircle
 10
120.8
 20
41.125
 40
0.4999999999999929
100
AcDbArc
 50
270
 51
0
  0
ARC
  5
1ED
100
AcDbEntity
  8
0
  6
CONTINUOUS
 62
    7
370
   25
100
AcDbCircle
 10
101.75
 20
54.125
 40
0.5
100
AcDbArc
 50
0
 51
90
  0
ARC
  5
1EE
100
AcDbEntity
  8
0
  6
CONTINUOUS
 62
    7
370
   25
100
AcDbCircle
 10
88.75
 20
54.125
 40
0.5000000000000284
100
AcDbArc
 50
90
 51
180
  0
ARC
  5
1EF
100
AcDbEntity
  8
0
  6
CONTINUOUS
 62
    7
370
   25
100
AcDbCircle
 10
88.75
 20
41.125
 40
0.5000000000000213
100
AcDbArc
 50
180
 51
270
  0
ARC
  5
1F0
100
AcDbEntity
  8
0
  6
CONTINUOUS
 62
    7
370
   25
100
AcDbCircle
 10
101.75
 20
41.125
 40
0.4999999999999858
100
AcDbArc
 50
270
 51
0
  0
ARC
  5
1F1
100
AcDbEntity
  8
0
  6
CONTINUOUS
 62
    7
370
   25
100
AcDbCircle
 10
82.7
 20
54.125
 40
0.5000000000000142
100
AcDbArc
 50
0
 51
90
  0
ARC
  5
1F2
100
AcDbEntity
  8
0
  6
CONTINUOUS
 62
    7
370
   25
100
AcDbCircle
 10
69.7
 20
54.125
 40
0.5000000000000284
100
AcDbArc
 50
90
 51
180
  0
ARC
  5
1F3
100
AcDbEntity
  8
0
  6
CONTINUOUS
 62
    7
370
   25
100
AcDbCircle
 10
69.7
 20
41.125
 40
0.5000000000000426
100
AcDbArc
 50
180
 51
270
  0
ARC
  5
1F4
100
AcDbEntity
  8
0
  6
CONTINUOUS
 62
    7
370
   25
100
AcDbCircle
 10
63.65
 20
54.125
 40
0.5
100
AcDbArc
 50
0
 51
90
  0
ARC
  5
1F5
100
AcDbEntity
  8
0
  6
CONTINUOUS
 62
    7
370
   25
100
AcDbCircle
 10
50.65
 20
54.125
 40
0.4999999999999716
100
AcDbArc
 50
90
 51
180
  0
ARC
  5
1F6
100
AcDbEntity
  8
0
  6
CONTINUOUS
 62
    7
370
   25
100
AcDbCircle
 10
50.65
 20
41.125
 40
0.5
100
AcDbArc
 50
180
 51
270
  0
ARC
  5
1F7
100
AcDbEntity
  8
0
  6
CONTINUOUS
 62
    7
370
   25
100
AcDbCircle
 10
63.65
 20
41.125
 40
0.4999999999999787
100
AcDbArc
 50
270
 51
0
  0
ARC
  5
1F8
100
AcDbEntity
  8
0
  6
CONTINUOUS
 62
    7
370
   25
100
AcDbCircle
 10
44.6
 20
54.125
 40
0.5000000000000071
100
AcDbArc
 50
0
 51
90
  0
ARC
  5
1F9
100
AcDbEntity
  8
0
  6
CONTINUOUS
 62
    7
370
   25
100
AcDbCircle
 10
31.6
 20
54.125
 40
0.5000000000000071
100
AcDbArc
 50
90
 51
180
  0
ARC
  5
1FA
100
AcDbEntity
  8
0
  6
CONTINUOUS
 62
    7
370
   25
100
AcDbCircle
 10
31.6
 20
41.125
 40
0.4999999999999858
100
AcDbArc
 50
180
 51
270
  0
ARC
  5
1FB
100
AcDbEntity
  8
0
  6
CONTINUOUS
 62
    7
370
   25
100
AcDbCircle
 10
44.6
 20
41.125
 40
0.5
100
AcDbArc
 50
270
 51
0
  0
ARC
  5
1FC
100
AcDbEntity
  8
0
  6
CONTINUOUS
 62
    7
370
   25
100
AcDbCircle
 10
25.55
 20
54.125
 40
0.5000000000000071
100
AcDbArc
 50
0
 51
90
  0
ARC
  5
1FD
100
AcDbEntity
  8
0
  6
CONTINUOUS
 62
    7
370
   25
100
AcDbCircle
 10
12.55
 20
54.125
 40
0.5000000000000071
100
AcDbArc
 50
90
 51
180
  0
ARC
  5
1FE
100
AcDbEntity
  8
0
  6
CONTINUOUS
 62
    7
370
   25
100
AcDbCircle
 10
12.55
 20
41.125
 40
0.5000000000000213
100
AcDbArc
 50
180
 51
270
  0
ARC
  5
1FF
100
AcDbEntity
  8
0
  6
CONTINUOUS
 62
    7
370
   25
100
AcDbCircle
 10
25.55
 20
41.125
 40
0.5000000000000178
100
AcDbArc
 50
270
 51
0
  0
ARC
  5
200
100
AcDbEntity
  8
0
  6
CONTINUOUS
 62
    7
370
   25
100
AcDbCircle
 10
111.275
 20
35.075
 40
0.5
100
AcDbArc
 50
0
 51
90
  0
ARC
  5
201
100
AcDbEntity
  8
0
  6
CONTINUOUS
 62
    7
370
   25
100
AcDbCircle
 10
98.27500000000001
 20
35.075
 40
0.5000000000000142
100
AcDbArc
 50
90
 51
180
  0
ARC
  5
202
100
AcDbEntity
  8
0
  6
CONTINUOUS
 62
    7
370
   25
100
AcDbCircle
 10
98.27500000000001
 20
22.075
 40
0.5000000000000071
100
AcDbArc
 50
180
 51
270
  0
ARC
  5
203
100
AcDbEntity
  8
0
  6
CONTINUOUS
 62
    7
370
   25
100
AcDbCircle
 10
111.275
 20
22.075
 40
0.5000000000000142
100
AcDbArc
 50
270
 51
0
  0
ARC
  5
204
100
AcDbEntity
  8
0
  6
CONTINUOUS
 62
    7
370
   25
100
AcDbCircle
 10
92.22499999999999
 20
35.075
 40
0.5000000000000142
100
AcDbArc
 50
0
 51
90
  0
ARC
  5
205
100
AcDbEntity
  8
0
  6
CONTINUOUS
 62
    7
370
   25
100
AcDbCircle
 10
79.22499999999999
 20
35.075
 40
0.5
100
AcDbArc
 50
90
 51
180
  0
ARC
  5
206
100
AcDbEntity
  8
0
  6
CONTINUOUS
 62
    7
370
   25
100
AcDbCircle
 10
79.22499999999999
 20
22.075
 40
0.5000000000000142
100
AcDbArc
 50
180
 51
270
  0
ARC
  5
207
100
AcDbEntity
  8
0
  6
CONTINUOUS
 62
    7
370
   25
100
AcDbCircle
 10
92.22499999999999
 20
22.075
 40
0.4999999999999858
100
AcDbArc
 50
270
 51
0
  0
ARC
  5
208
100
AcDbEntity
  8
0
  6
CONTINUOUS
 62
    7
370
   25
100
AcDbCircle
 10
73.175
 20
35.075
 40
0.5000000000000142
100
AcDbArc
 50
0
 51
90
  0
ARC
  5
209
100
AcDbEntity
  8
0
  6
CONTINUOUS
 62
    7
370
   25
100
AcDbCircle
 10
60.175
 20
35.075
 40
0.5000000000000071
100
AcDbArc
 50
90
 51
180
  0
ARC
  5
20A
100
AcDbEntity
  8
0
  6
CONTINUOUS
 62
    7
370
   25
100
AcDbCircle
 10
60.175
 20
22.075
 40
0.5000000000000142
100
AcDbArc
 50
180
 51
270
  0
ARC
  5
20B
100
AcDbEntity
  8
0
  6
CONTINUOUS
 62
    7
370
   25
100
AcDbCircle
 10
73.175
 20
22.075
 40
0.500000000000032
100
AcDbArc
 50
270
 51
0
  0
ARC
  5
20C
100
AcDbEntity
  8
0
  6
CONTINUOUS
 62
    7
370
   25
100
AcDbCircle
 10
54.125
 20
35.075
 40
0.5000000000000142
100
AcDbArc
 50
0
 51
90
  0
ARC
  5
20D
100
AcDbEntity
  8
0
  6
CONTINUOUS
 62
    7
370
   25
100
AcDbCircle
 10
41.125
 20
35.075
 40
0.5000000000000071
100
AcDbArc
 50
90
 51
180
  0
ARC
  5
20E
100
AcDbEntity
  8
0
  6
CONTINUOUS
 62
    7
370
   25
100
AcDbCircle
 10
41.125
 20
22.075
 40
0.4999999999999858
100
AcDbArc
 50
180
 51
270
  0
ARC
  5
20F
100
AcDbEntity
  8
0
  6
CONTINUOUS
 62
    7
370
   25
100
AcDbCircle
 10
54.125
 20
22.075
 40
0.5000000000000036
100
AcDbArc
 50
270
 51
0
  0
ARC
  5
210
100
AcDbEntity
  8
0
  6
CONTINUOUS
 62
    7
370
   25
100
AcDbCircle
 10
35.075
 20
35.075
 40
0.5000000000000142
100
AcDbArc
 50
0
 51
90
  0
ARC
  5
211
100
AcDbEntity
  8
0
  6
CONTINUOUS
 62
    7
370
   25
100
AcDbCircle
 10
22.075
 20
35.075
 40
0.5000000000000071
100
AcDbArc
 50
90
 51
180
  0
ARC
  5
212
100
AcDbEntity
  8
0
  6
CONTINUOUS
 62
    7
370
   25
100
AcDbCircle
 10
22.075
 20
22.075
 40
0.5000000000000249
100
AcDbArc
 50
180
 51
270
  0
ARC
  5
213
100
AcDbEntity
  8
0
  6
CONTINUOUS
 62
    7
370
   25
100
AcDbCircle
 10
35.075
 20
22.075
 40
0.5000000000000284
100
AcDbArc
 50
270
 51
360
  0
ARC
  5
214
100
AcDbEntity
  8
0
  6
CONTINUOUS
 62
    7
370
   25
100
AcDbCircle
 10
206.525
 20
-1.7375
 40
0.5
100
AcDbArc
 50
270
 51
0
  0
ARC
  5
215
100
AcDbEntity
  8
0
  6
CONTINUOUS
 62
    7
370
   25
100
AcDbCircle
 10
206.525
 20
11.2625
 40
0.5
100
AcDbArc
 50
360
 51
90
  0
ARC
  5
216
100
AcDbEntity
  8
0
  6
CONTINUOUS
 62
    7
370
   25
100
AcDbCircle
 10
193.525
 20
11.2625
 40
0.5000000000000284
100
AcDbArc
 50
90
 51
180
  0
ARC
  5
217
100
AcDbEntity
  8
0
  6
CONTINUOUS
 62
    7
370
   25
100
AcDbCircle
 10
193.525
 20
-1.7375
 40
0.5000000000000568
100
AcDbArc
 50
180
 51
270
  0
ARC
  5
218
100
AcDbEntity
  8
0
  6
CONTINUOUS
 62
    7
370
   25
100
AcDbCircle
 10
187.475
 20
-1.7375
 40
0.4999999999999718
100
AcDbArc
 50
270
 51
0
  0
ARC
  5
219
100
AcDbEntity
  8
0
  6
CONTINUOUS
 62
    7
370
   25
100
AcDbCircle
 10
187.475
 20
11.2625
 40
0.4999999999999716
100
AcDbArc
 50
360
 51
90
  0
ARC
  5
21A
100
AcDbEntity
  8
0
  6
CONTINUOUS
 62
    7
370
   25
100
AcDbCircle
 10
174.475
 20
11.2625
 40
0.5000000000000284
100
AcDbArc
 50
90
 51
180
  0
ARC
  5
21B
100
AcDbEntity
  8
0
  6
CONTINUOUS
 62
    7
370
   25
100
AcDbCircle
 10
174.475
 20
-1.7375
 40
0.5000000000000291
100
AcDbArc
 50
180
 51
270
  0
ARC
  5
21C
100
AcDbEntity
  8
0
  6
CONTINUOUS
 62
    7
370
   25
100
AcDbCircle
 10
168.425
 20
-1.7375
 40
0.5
100
AcDbArc
 50
270
 51
0
  0
ARC
  5
21D
100
AcDbEntity
  8
0
  6
CONTINUOUS
 62
    7
370
   25
100
AcDbCircle
 10
168.425
 20
11.2625
 40
0.4999999999999716
100
AcDbArc
 50
360
 51
90
  0
ARC
  5
21E
100
AcDbEntity
  8
0
  6
CONTINUOUS
 62
    7
370
   25
100
AcDbCircle
 10
155.425
 20
11.2625
 40
0.5000000000000142
100
AcDbArc
 50
90
 51
180
  0
ARC
  5
21F
100
AcDbEntity
  8
0
  6
CONTINUOUS
 62
    7
370
   25
100
AcDbCircle
 10
155.425
 20
-1.7375
 40
0.5000000000000568
100
AcDbArc
 50
180
 51
270
  0
ARC
  5
220
100
AcDbEntity
  8
0
  6
CONTINUOUS
 62
    7
370
   25
100
AcDbCircle
 10
15.7875
 20
17.45
 40
1.300000000000017
100
AcDbArc
 50
90
 51
180
  0
ARC
  5
221
100
AcDbEntity
  8
0
  6
CONTINUOUS
 62
    7
370
   25
100
AcDbCircle
 10
17.55
 20
20.45
 40
1.700000000000003
100
AcDbArc
 50
270
 51
0
  0
ARC
  5
222
100
AcDbEntity
  8
0
  6
CONTINUOUS
 62
    7
370
   25
100
AcDbCircle
 10
17.55
 20
36.7
 40
1.70000000000001
100
AcDbArc
 50
0
 51
90
  0
ARC
  5
223
100
AcDbEntity
  8
0
  6
CONTINUOUS
 62
    7
370
   25
100
AcDbCircle
 10
11.025
 20
39.7
 40
1.300000000000022
100
AcDbArc
 50
180
 51
270
  0
ARC
  5
224
100
AcDbEntity
  8
0
  6
CONTINUOUS
 62
    7
370
   25
100
AcDbCircle
 10
8.025
 20
55.75
 40
1.700000000000005
100
AcDbArc
 50
0
 51
90
  0
ARC
  5
225
100
AcDbEntity
  8
0
  6
CONTINUOUS
 62
    7
370
   25
100
AcDbCircle
 10
6.2625
 20
58.75
 40
1.300000000000018
100
AcDbArc
 50
180
 51
270
  0
ARC
  5
226
100
AcDbEntity
  8
0
  6
CONTINUOUS
 62
    7
370
   25
100
AcDbCircle
 10
6.2625
 20
74.59999999999999
 40
1.300000000000012
100
AcDbArc
 50
90
 51
180
  0
ARC
  5
227
100
AcDbEntity
  8
0
  6
CONTINUOUS
 62
    7
370
   25
100
AcDbCircle
 10
12.7875
 20
77.59999999999999
 40
1.700000000000031
100
AcDbArc
 50
270
 51
0
  0
ARC
  5
228
100
AcDbEntity
  8
0
  6
CONTINUOUS
 62
    7
370
   25
100
AcDbCircle
 10
15.7875
 20
94.02500000000001
 40
1.300000000000011
100
AcDbArc
 50
90
 51
180
  0
ARC
  5
229
100
AcDbEntity
  8
0
  6
CONTINUOUS
 62
    7
370
   25
100
AcDbCircle
 10
22.3125
 20
97.02500000000001
 40
1.700000000000031
100
AcDbArc
 50
270
 51
0
  0
ARC
  5
22A
100
AcDbEntity
  8
0
  6
CONTINUOUS
 62
    7
370
   25
100
AcDbCircle
 10
24.5625
 20
135.075
 40
0.550000000000022
100
AcDbArc
 50
90
 51
180
  0
ARC
  5
22B
100
AcDbEntity
  8
0
  6
CONTINUOUS
 62
    7
370
   25
100
AcDbCircle
 10
217.55
 20
131.825
 40
3.799999999999955
100
AcDbArc
 50
0
 51
90
  0
ARC
  5
22C
100
AcDbEntity
  8
0
  6
CONTINUOUS
 62
    7
370
   25
100
AcDbCircle
 10
217.55
 20
-8
 40
3.800000000000011
100
AcDbArc
 50
270
 51
0
  0
ARC
  5
22D
100
AcDbEntity
  8
0
  6
CONTINUOUS
 62
    7
370
   25
100
AcDbCircle
 10
15.0375
 20
-11.25
 40
0.5500000000000167
100
AcDbArc
 50
180
 51
270
  0
ARC
  5
22E
100
AcDbEntity
  8
0
  6
CONTINUOUS
 62
    7
370
   25
100
AcDbCircle
 10
142.23125
 20
16.025
 40
0.5000000000000284
100
AcDbArc
 50
0
 51
90
  0
ARC
  5
22F
100
AcDbEntity
  8
0
  6
CONTINUOUS
 62
    7
370
   25
100
AcDbCircle
 10
126.85
 20
16.025
 40
0.5000000000000036
100
AcDbArc
 50
90
 51
180
  0
ARC
  5
230
100
AcDbEntity
  8
0
  6
CONTINUOUS
 62
    7
370
   25
100
AcDbCircle
 10
126.85
 20
3.025
 40
0.5
100
AcDbArc
 50
180
 51
270
  0
ARC
  5
231
100
AcDbEntity
  8
0
  6
CONTINUOUS
 62
    7
370
   25
100
AcDbCircle
 10
142.23125
 20
3.025
 40
0.5000000000000284
100
AcDbArc
 50
270
 51
360
  0
ARC
  5
232
100
AcDbEntity
  8
0
  6
CONTINUOUS
 62
    7
370
   25
100
AcDbCircle
 10
118.41875
 20
16.025
 40
0.5
100
AcDbArc
 50
0
 51
90
  0
ARC
  5
233
100
AcDbEntity
  8
0
  6
CONTINUOUS
 62
    7
370
   25
100
AcDbCircle
 10
100.65625
 20
16.025
 40
0.5000000000000142
100
AcDbArc
 50
90
 51
180
  0
ARC
  5
234
100
AcDbEntity
  8
0
  6
CONTINUOUS
 62
    7
370
   25
100
AcDbCircle
 10
100.65625
 20
3.025
 40
0.5000000000000289
100
AcDbArc
 50
180
 51
270
  0
ARC
  5
235
100
AcDbEntity
  8
0
  6
CONTINUOUS
 62
    7
370
   25
100
AcDbCircle
 10
118.41875
 20
3.025
 40
0.4999999999999889
100
AcDbArc
 50
270
 51
0
  0
ARC
  5
236
100
AcDbEntity
  8
0
  6
CONTINUOUS
 62
    7
370
   25
100
AcDbCircle
 10
146.99375
 20
22.075
 40
0.4999999999999716
100
AcDbArc
 50
270
 51
0
  0
ARC
  5
237
100
AcDbEntity
  8
0
  6
CONTINUOUS
 62
    7
370
   25
100
AcDbCircle
 10
146.99375
 20
35.075
 40
0.5000000000000071
100
AcDbArc
 50
0
 51
90
  0
ARC
  5
238
100
AcDbEntity
  8
0
  6
CONTINUOUS
 62
    7
370
   25
100
AcDbCircle
 10
124.46875
 20
35.075
 40
0.5000000000000071
100
AcDbArc
 50
90
 51
180
  0
ARC
  5
239
100
AcDbEntity
  8
0
  6
CONTINUOUS
 62
    7
370
   25
100
AcDbCircle
 10
124.46875
 20
22.075
 40
0.5000000000000142
100
AcDbArc
 50
180
 51
270
  0
ARC
  5
23A
100
AcDbEntity
  8
0
  6
CONTINUOUS
 62
    7
370
   25
100
AcDbCircle
 10
124.5759541029
 20
21.075
 40
0.4999999999999751
100
AcDbArc
 50
11.5369590328
 51
90
  0
ARC
  5
23B
100
AcDbEntity
  8
0
  6
CONTINUOUS
 62
    7
370
   25
100
AcDbCircle
 10
125.55575
 20
21.275
 40
0.5000000000000122
100
AcDbArc
 50
191.5369590328
 51
270
  0
ARC
  5
23C
100
AcDbEntity
  8
0
  6
CONTINUOUS
 62
    7
370
   25
100
AcDbCircle
 10
131.55575
 20
21.275
 40
0.5000000000000213
100
AcDbArc
 50
270
 51
348.4630409672
  0
ARC
  5
23D
100
AcDbEntity
  8
0
  6
CONTINUOUS
 62
    7
370
   25
100
AcDbCircle
 10
132.5355458971
 20
21.075
 40
0.5000000000000355
100
AcDbArc
 50
90
 51
168.4630409672
  0
ARC
  5
23E
100
AcDbEntity
  8
0
  6
CONTINUOUS
 62
    7
370
   25
100
AcDbCircle
 10
64.0125
 20
-6.25
 40
2.100000000000006
100
AcDbArc
 50
270
 51
90
  0
ARC
  5
23F
100
AcDbEntity
  8
0
  6
CONTINUOUS
 62
    7
370
   25
100
AcDbCircle
 10
56.0125
 20
-6.25
 40
2.100000000000006
100
AcDbArc
 50
90
 51
270
  0
ARC
  5
240
100
AcDbEntity
  8
0
  6
CONTINUOUS
 62
    7
370
   25
100
AcDbCircle
 10
73.53749999999999
 20
130.075
 40
2.099999999999994
100
AcDbArc
 50
270
 51
90
  0
ARC
  5
241
100
AcDbEntity
  8
0
  6
CONTINUOUS
 62
    7
370
   25
100
AcDbCircle
 10
65.53749999999999
 20
130.075
 40
2.100000000000009
100
AcDbArc
 50
90
 51
270
  0
ARC
  5
242
100
AcDbEntity
  8
0
  6
CONTINUOUS
 62
    7
370
   25
100
AcDbCircle
 10
139.8
 20
-6.25
 40
2.100000000000006
100
AcDbArc
 50
270
 51
90
  0
ARC
  5
243
100
AcDbEntity
  8
0
  6
CONTINUOUS
 62
    7
370
   25
100
AcDbCircle
 10
131.8
 20
-6.25
 40
2.100000000000006
100
AcDbArc
 50
90
 51
270
  0
ARC
  5
244
100
AcDbEntity
  8
0
  6
CONTINUOUS
 62
    7
370
   25
100
AcDbCircle
 10
58.9125
 20
16.825
 40
0.4999999999999929
100
AcDbArc
 50
90
 51
180
  0
ARC
  5
245
100
AcDbEntity
  8
0
  6
CONTINUOUS
 62
    7
370
   25
100
AcDbCircle
 10
58.9125
 20
3.825
 40
0.5
100
AcDbArc
 50
180
 51
270
  0
ARC
  5
246
100
AcDbEntity
  8
0
  6
CONTINUOUS
 62
    7
370
   25
100
AcDbCircle
 10
59.1952041029
 20
2.825
 40
0.5000000000000178
100
AcDbArc
 50
11.5369590328
 51
90
  0
ARC
  5
247
100
AcDbEntity
  8
0
  6
CONTINUOUS
 62
    7
370
   25
100
AcDbCircle
 10
60.175
 20
3.025
 40
0.5000000000000006
100
AcDbArc
 50
191.5369590328
 51
270
  0
ARC
  5
248
100
AcDbEntity
  8
0
  6
CONTINUOUS
 62
    7
370
   25
100
AcDbCircle
 10
94.60625
 20
3.025
 40
0.4999999999999858
100
AcDbArc
 50
270
 51
0
  0
ARC
  5
249
100
AcDbEntity
  8
0
  6
CONTINUOUS
 62
    7
370
   25
100
AcDbCircle
 10
94.60625
 20
16.025
 40
0.4999999999999858
100
AcDbArc
 50
0
 51
90
  0
ARC
  5
24A
100
AcDbEntity
  8
0
  6
CONTINUOUS
 62
    7
370
   25
100
AcDbCircle
 10
65.8922958971
 20
17.025
 40
0.499999999999968
100
AcDbArc
 50
191.5369590328
 51
270
  0
ARC
  5
24B
100
AcDbEntity
  8
0
  6
CONTINUOUS
 62
    7
370
   25
100
AcDbCircle
 10
64.91249999999999
 20
16.825
 40
0.4999999999999979
100
AcDbArc
 50
11.5369590328
 51
90
  0
ARC
  5
24C
100
AcDbEntity
  8
0
  6
CONTINUOUS
 62
    7
370
   25
100
AcDbCircle
 10
49.3625
 20
3.025
 40
0.4999999999999973
100
AcDbArc
 50
270
 51
348.4630409672
  0
ARC
  5
24D
100
AcDbEntity
  8
0
  6
CONTINUOUS
 62
    7
370
   25
100
AcDbCircle
 10
50.3422958971
 20
2.825
 40
0.5000000000000235
100
AcDbArc
 50
90
 51
168.4630409672
  0
ARC
  5
24E
100
AcDbEntity
  8
0
  6
CONTINUOUS
 62
    7
370
   25
100
AcDbCircle
 10
55.41925
 20
3.825
 40
0.5
100
AcDbArc
 50
270
 51
0
  0
ARC
  5
24F
100
AcDbEntity
  8
0
  6
CONTINUOUS
 62
    7
370
   25
100
AcDbCircle
 10
55.41925
 20
16.825
 40
0.5000000000000071
100
AcDbArc
 50
0
 51
90
  0
ARC
  5
250
100
AcDbEntity
  8
0
  6
CONTINUOUS
 62
    7
370
   25
100
AcDbCircle
 10
44.65675
 20
16.825
 40
0.4999999999999787
100
AcDbArc
 50
90
 51
168.4630409672
  0
ARC
  5
251
100
AcDbEntity
  8
0
  6
CONTINUOUS
 62
    7
370
   25
100
AcDbCircle
 10
43.6769541029
 20
17.025
 40
0.5000000000000251
100
AcDbArc
 50
270
 51
348.4630409672
  0
ARC
  5
252
100
AcDbEntity
  8
0
  6
CONTINUOUS
 62
    7
370
   25
100
AcDbCircle
 10
32.5230458971
 20
17.025
 40
0.5000000000000355
100
AcDbArc
 50
191.5369590328
 51
270
  0
ARC
  5
253
100
AcDbEntity
  8
0
  6
CONTINUOUS
 62
    7
370
   25
100
AcDbCircle
 10
31.54325
 20
16.825
 40
0.5000000000000043
100
AcDbArc
 50
11.5369590328
 51
90
  0
ARC
  5
254
100
AcDbEntity
  8
0
  6
CONTINUOUS
 62
    7
370
   25
100
AcDbCircle
 10
20.78075
 20
16.825
 40
0.4999999999999787
100
AcDbArc
 50
90
 51
180
  0
ARC
  5
255
100
AcDbEntity
  8
0
  6
CONTINUOUS
 62
    7
370
   25
100
AcDbCircle
 10
20.78075
 20
3.825
 40
0.5000000000000178
100
AcDbArc
 50
180
 51
270
  0
ARC
  5
256
100
AcDbEntity
  8
0
  6
CONTINUOUS
 62
    7
370
   25
100
AcDbCircle
 10
28.2389541029
 20
2.825
 40
0.5000000000000031
100
AcDbArc
 50
11.5369590328
 51
90
  0
ARC
  5
257
100
AcDbEntity
  8
0
  6
CONTINUOUS
 62
    7
370
   25
100
AcDbCircle
 10
29.21875
 20
3.025
 40
0.5000000000000023
100
AcDbArc
 50
191.5369590328
 51
270
  0
ARC
  5
258
100
AcDbEntity
  8
0
  6
CONTINUOUS
 62
    7
370
   25
100
AcDbCircle
 10
179.8
 20
130.075
 40
2.099999999999994
100
AcDbArc
 50
270
 51
90
  0
ARC
  5
259
100
AcDbEntity
  8
0
  6
CONTINUOUS
 62
    7
370
   25
100
AcDbCircle
 10
171.8
 20
130.075
 40
2.100000000000009
100
AcDbArc
 50
90
 51
270
  0
ENDSEC
  0
SECTION
  2
OBJECTS
  0
DICTIONARY
  5
C
330
0
100
AcDbDictionary
281
    1
  3
ACAD_GROUP
350
D
  0
DICTIONARY
  5
D
330
C
100
AcDbDictionary
281
    1
  0
ENDSEC
  0
EOF
